%TF.GenerationSoftware,KiCad,Pcbnew,10.0.1-10.0.1~ubuntu25.10.1*%
%TF.CreationDate,2026-04-27T21:14:21-04:00*%
%TF.ProjectId,Day_01_Wi-Fi-Halow,4461795f-3031-45f5-9769-2d46692d4861,X1*%
%TF.SameCoordinates,Original*%
%TF.FileFunction,Copper,L1,Top*%
%TF.FilePolarity,Positive*%
%FSLAX45Y45*%
G04 Gerber Fmt 4.5, Leading zero omitted, Abs format (unit mm)*
G04 Created by KiCad (PCBNEW 10.0.1-10.0.1~ubuntu25.10.1) date 2026-04-27 21:14:21*
%MOMM*%
%LPD*%
G01*
G04 APERTURE LIST*
G04 Aperture macros list*
%AMRoundRect*
0 Rectangle with rounded corners*
0 $1 Rounding radius*
0 $2 $3 $4 $5 $6 $7 $8 $9 X,Y pos of 4 corners*
0 Add a 4 corners polygon primitive as box body*
4,1,4,$2,$3,$4,$5,$6,$7,$8,$9,$2,$3,0*
0 Add four circle primitives for the rounded corners*
1,1,$1+$1,$2,$3*
1,1,$1+$1,$4,$5*
1,1,$1+$1,$6,$7*
1,1,$1+$1,$8,$9*
0 Add four rect primitives between the rounded corners*
20,1,$1+$1,$2,$3,$4,$5,0*
20,1,$1+$1,$4,$5,$6,$7,0*
20,1,$1+$1,$6,$7,$8,$9,0*
20,1,$1+$1,$8,$9,$2,$3,0*%
%AMRotRect*
0 Rectangle, with rotation*
0 The origin of the aperture is its center*
0 $1 length*
0 $2 width*
0 $3 Rotation angle, in degrees counterclockwise*
0 Add horizontal line*
21,1,$1,$2,0,0,$3*%
%AMFreePoly0*
4,1,6,0.130000,0.115000,0.130000,-0.115000,-0.130000,-0.115000,-0.130000,0.275000,-0.020000,0.275000,0.130000,0.115000,0.130000,0.115000,$1*%
%AMFreePoly1*
4,1,6,0.130000,-0.115000,-0.130000,-0.115000,-0.130000,0.115000,0.020000,0.275000,0.130000,0.275000,0.130000,-0.115000,0.130000,-0.115000,$1*%
G04 Aperture macros list end*
%TA.AperFunction,SMDPad,CuDef*%
%ADD10RoundRect,0.115000X-0.115000X-0.145000X0.115000X-0.145000X0.115000X0.145000X-0.115000X0.145000X0*%
%TD*%
%TA.AperFunction,SMDPad,CuDef*%
%ADD11RoundRect,0.115000X0.115000X0.145000X-0.115000X0.145000X-0.115000X-0.145000X0.115000X-0.145000X0*%
%TD*%
%TA.AperFunction,SMDPad,CuDef*%
%ADD12RoundRect,0.110000X-0.190919X-0.035355X-0.035355X-0.190919X0.190919X0.035355X0.035355X0.190919X0*%
%TD*%
%TA.AperFunction,SMDPad,CuDef*%
%ADD13RoundRect,0.062500X-0.062500X0.250000X-0.062500X-0.250000X0.062500X-0.250000X0.062500X0.250000X0*%
%TD*%
%TA.AperFunction,SMDPad,CuDef*%
%ADD14RoundRect,0.112500X-0.112500X0.237500X-0.112500X-0.237500X0.112500X-0.237500X0.112500X0.237500X0*%
%TD*%
%TA.AperFunction,SMDPad,CuDef*%
%ADD15RoundRect,0.112500X-0.112500X0.175000X-0.112500X-0.175000X0.112500X-0.175000X0.112500X0.175000X0*%
%TD*%
%TA.AperFunction,SMDPad,CuDef*%
%ADD16RoundRect,0.110000X-0.160000X0.110000X-0.160000X-0.110000X0.160000X-0.110000X0.160000X0.110000X0*%
%TD*%
%TA.AperFunction,SMDPad,CuDef*%
%ADD17FreePoly0,0.000000*%
%TD*%
%TA.AperFunction,SMDPad,CuDef*%
%ADD18FreePoly1,0.000000*%
%TD*%
%TA.AperFunction,SMDPad,CuDef*%
%ADD19FreePoly0,180.000000*%
%TD*%
%TA.AperFunction,SMDPad,CuDef*%
%ADD20FreePoly1,180.000000*%
%TD*%
%TA.AperFunction,SMDPad,CuDef*%
%ADD21RotRect,0.520000X0.520000X225.000000*%
%TD*%
%TA.AperFunction,SMDPad,CuDef*%
%ADD22RoundRect,0.075000X-0.075000X-0.675000X0.075000X-0.675000X0.075000X0.675000X-0.075000X0.675000X0*%
%TD*%
%TA.AperFunction,SMDPad,CuDef*%
%ADD23RoundRect,0.075000X-0.075000X-0.825000X0.075000X-0.825000X0.075000X0.825000X-0.075000X0.825000X0*%
%TD*%
%TA.AperFunction,SMDPad,CuDef*%
%ADD24RoundRect,0.110000X-0.110000X-0.160000X0.110000X-0.160000X0.110000X0.160000X-0.110000X0.160000X0*%
%TD*%
%TA.AperFunction,SMDPad,CuDef*%
%ADD25RoundRect,0.050000X-0.300000X0.150000X-0.300000X-0.150000X0.300000X-0.150000X0.300000X0.150000X0*%
%TD*%
%TA.AperFunction,SMDPad,CuDef*%
%ADD26RoundRect,0.299213X-0.460787X-1.730787X0.460787X-1.730787X0.460787X1.730787X-0.460787X1.730787X0*%
%TD*%
%TA.AperFunction,SMDPad,CuDef*%
%ADD27RoundRect,0.281481X-0.478519X-1.748519X0.478519X-1.748519X0.478519X1.748519X-0.478519X1.748519X0*%
%TD*%
%TA.AperFunction,SMDPad,CuDef*%
%ADD28RoundRect,0.150000X0.150000X0.150000X-0.150000X0.150000X-0.150000X-0.150000X0.150000X-0.150000X0*%
%TD*%
%TA.AperFunction,SMDPad,CuDef*%
%ADD29RoundRect,0.110000X-0.035355X0.190919X-0.190919X0.035355X0.035355X-0.190919X0.190919X-0.035355X0*%
%TD*%
%TA.AperFunction,ViaPad*%
%ADD30C,0.600000*%
%TD*%
%TA.AperFunction,ViaPad*%
%ADD31C,0.800000*%
%TD*%
%TA.AperFunction,Conductor*%
%ADD32C,0.508000*%
%TD*%
%TA.AperFunction,Conductor*%
%ADD33C,0.381000*%
%TD*%
%TA.AperFunction,Conductor*%
%ADD34C,0.254000*%
%TD*%
%TA.AperFunction,Conductor*%
%ADD35C,0.152400*%
%TD*%
%TA.AperFunction,Conductor*%
%ADD36C,0.193808*%
%TD*%
G04 APERTURE END LIST*
D10*
%TO.P,C8,1*%
%TO.N,+3V3*%
X14284500Y-13380000D03*
%TO.P,C8,2*%
%TO.N,GND*%
X14370500Y-13380000D03*
%TD*%
D11*
%TO.P,C3,1*%
%TO.N,+3V3*%
X13897500Y-13700000D03*
%TO.P,C3,2*%
%TO.N,GND*%
X13811500Y-13700000D03*
%TD*%
D12*
%TO.P,Z1,1*%
%TO.N,Net-(U2-ANT)*%
X14397500Y-14910000D03*
%TO.P,Z1,2*%
%TO.N,GND*%
X14462554Y-14975054D03*
%TD*%
D13*
%TO.P,U4,1*%
%TO.N,unconnected-(U4-Pad1)*%
X14100000Y-13211250D03*
%TO.P,U4,2*%
%TO.N,/D-*%
X14050000Y-13211250D03*
D14*
%TO.P,U4,3,VSS_3*%
%TO.N,GND*%
X14000000Y-13215000D03*
D13*
%TO.P,U4,4*%
%TO.N,/D+*%
X13950000Y-13211250D03*
%TO.P,U4,5*%
%TO.N,unconnected-(U4-Pad5)*%
X13900000Y-13211250D03*
%TO.P,U4,6,NC_6*%
%TO.N,unconnected-(U4-NC-Pad6)*%
X13900000Y-13288750D03*
%TO.P,U4,7,NC_7*%
%TO.N,/D+*%
X13950000Y-13288750D03*
D15*
%TO.P,U4,8,VSS_8*%
%TO.N,GND*%
X14000000Y-13291250D03*
D13*
%TO.P,U4,9,NC_9*%
%TO.N,/D-*%
X14050000Y-13288750D03*
%TO.P,U4,10,NC_10*%
%TO.N,unconnected-(U4-NC-Pad10)*%
X14100000Y-13288750D03*
%TD*%
D16*
%TO.P,R1,1*%
%TO.N,Net-(J1-CC)*%
X13797000Y-13286000D03*
%TO.P,R1,2*%
%TO.N,GND*%
X13797000Y-13378000D03*
%TD*%
D10*
%TO.P,C7,1*%
%TO.N,Net-(D1-K)*%
X14284500Y-13122500D03*
%TO.P,C7,2*%
%TO.N,GND*%
X14370500Y-13122500D03*
%TD*%
D12*
%TO.P,Z3,1*%
%TO.N,Net-(J2-In)*%
X14227794Y-15079706D03*
%TO.P,Z3,2*%
%TO.N,GND*%
X14292848Y-15144759D03*
%TD*%
D17*
%TO.P,U3,1,OUT_1*%
%TO.N,+3V3*%
X14295000Y-13298500D03*
D18*
%TO.P,U3,2,GND_2*%
%TO.N,GND*%
X14360000Y-13298500D03*
D19*
%TO.P,U3,3,EN_3*%
%TO.N,Net-(D1-K)*%
X14360000Y-13201500D03*
D20*
%TO.P,U3,4,IN_4*%
X14295000Y-13201500D03*
D21*
%TO.P,U3,5,GND_5*%
%TO.N,GND*%
X14327500Y-13250000D03*
%TD*%
D22*
%TO.P,J1,A1,GND_A1*%
%TO.N,GND*%
X13725000Y-12887000D03*
%TO.P,J1,A2*%
%TO.N,N/C*%
X13775000Y-12887000D03*
%TO.P,J1,A3*%
X13825000Y-12887000D03*
%TO.P,J1,A4,VBUS_A4*%
%TO.N,Net-(D1-K)*%
X13875000Y-12887000D03*
%TO.P,J1,A5,CC_A5*%
%TO.N,Net-(J1-CC)*%
X13925000Y-12887000D03*
%TO.P,J1,A6,D+_A6*%
%TO.N,/D+*%
X13975000Y-12887000D03*
%TO.P,J1,A7,D-_A7*%
%TO.N,/D-*%
X14025000Y-12887000D03*
%TO.P,J1,A8*%
%TO.N,N/C*%
X14075000Y-12887000D03*
%TO.P,J1,A9,VBUS_A9*%
%TO.N,Net-(D1-K)*%
X14125000Y-12887000D03*
%TO.P,J1,A10*%
%TO.N,N/C*%
X14175000Y-12887000D03*
%TO.P,J1,A11*%
X14225000Y-12887000D03*
%TO.P,J1,A12,GND_A12*%
%TO.N,GND*%
X14275000Y-12887000D03*
D23*
%TO.P,J1,SH,SHIELD_SH*%
X14340000Y-12902000D03*
%TD*%
D11*
%TO.P,C2,1*%
%TO.N,+3V3*%
X13597500Y-14840000D03*
%TO.P,C2,2*%
%TO.N,GND*%
X13511500Y-14840000D03*
%TD*%
D24*
%TO.P,R2,1*%
%TO.N,+3V3*%
X14105500Y-14920000D03*
%TO.P,R2,2*%
%TO.N,Net-(U2-~{RESET})*%
X14197500Y-14920000D03*
%TD*%
D25*
%TO.P,D1,1,K_1*%
%TO.N,Net-(D1-K)*%
X13683000Y-13152000D03*
%TO.P,D1,2,A_2*%
%TO.N,GND*%
X13683000Y-13222000D03*
%TD*%
D26*
%TO.P,J2,1,In_1*%
%TO.N,Net-(J2-In)*%
X13997500Y-15460000D03*
D27*
%TO.P,J2,2,Ext_2*%
%TO.N,GND*%
X14251500Y-15460000D03*
X13743500Y-15460000D03*
%TD*%
D11*
%TO.P,C6,1*%
%TO.N,Net-(U2-~{RESET})*%
X14197500Y-14840000D03*
%TO.P,C6,2*%
%TO.N,GND*%
X14111500Y-14840000D03*
%TD*%
D28*
%TO.P,U2,1,GND_1*%
%TO.N,GND*%
X14497500Y-14720000D03*
%TO.P,U2,2,ANT_2*%
%TO.N,Net-(U2-ANT)*%
X14397500Y-14720000D03*
%TO.P,U2,3,GND_3*%
%TO.N,GND*%
X14297500Y-14720000D03*
%TO.P,U2,4,~{RESET}_4*%
%TO.N,Net-(U2-~{RESET})*%
X14197500Y-14720000D03*
%TO.P,U2,5,WAKE_5*%
%TO.N,unconnected-(U2-WAKE-Pad5)*%
X14097500Y-14720000D03*
%TO.P,U2,6,TMS_6*%
%TO.N,unconnected-(U2-TMS-Pad6)*%
X13997500Y-14720000D03*
%TO.P,U2,7,TCK_7*%
%TO.N,unconnected-(U2-TCK-Pad7)*%
X13897500Y-14720000D03*
%TO.P,U2,8,TDO_8*%
%TO.N,unconnected-(U2-TDO-Pad8)*%
X13797500Y-14720000D03*
%TO.P,U2,9,TDI_9*%
%TO.N,unconnected-(U2-TDI-Pad9)*%
X13697500Y-14720000D03*
%TO.P,U2,10,VBAT_10*%
%TO.N,+3V3*%
X13597500Y-14720000D03*
%TO.P,U2,11,GND_11*%
%TO.N,GND*%
X13497500Y-14720000D03*
%TO.P,U2,12,SDIO_D0_12*%
%TO.N,unconnected-(U2-SDIO_D0-Pad12)*%
X13497500Y-14620000D03*
%TO.P,U2,13,SDIO_D3_13*%
%TO.N,unconnected-(U2-SDIO_D3-Pad13)*%
X13497500Y-14520000D03*
%TO.P,U2,14,SDIO_D1_14*%
%TO.N,unconnected-(U2-SDIO_D1-Pad14)*%
X13497500Y-14420000D03*
%TO.P,U2,15,SDIO_D2_15*%
%TO.N,unconnected-(U2-SDIO_D2-Pad15)*%
X13497500Y-14320000D03*
%TO.P,U2,16,SDIO_CMD_16*%
%TO.N,unconnected-(U2-SDIO_CMD-Pad16)*%
X13497500Y-14220000D03*
%TO.P,U2,17,SDIO_CLK_17*%
%TO.N,unconnected-(U2-SDIO_CLK-Pad17)*%
X13497500Y-14120000D03*
%TO.P,U2,18,GPIO5_18*%
%TO.N,unconnected-(U2-GPIO5-Pad18)*%
X13497500Y-14020000D03*
%TO.P,U2,19,GPIO4_19*%
%TO.N,unconnected-(U2-GPIO4-Pad19)*%
X13497500Y-13920000D03*
%TO.P,U2,20,GND_20*%
%TO.N,GND*%
X13497500Y-13820000D03*
%TO.P,U2,21,GPIO3_21*%
%TO.N,unconnected-(U2-GPIO3-Pad21)*%
X13597500Y-13820000D03*
%TO.P,U2,22,VDDIO_22*%
%TO.N,+3V3*%
X13697500Y-13820000D03*
%TO.P,U2,23,GND_23*%
%TO.N,GND*%
X13797500Y-13820000D03*
%TO.P,U2,24,VBAT_TX_24*%
%TO.N,+3V3*%
X13897500Y-13820000D03*
%TO.P,U2,25,VDD_USB_25*%
X13997500Y-13820000D03*
%TO.P,U2,26,GND_26*%
%TO.N,GND*%
X14097500Y-13820000D03*
%TO.P,U2,27,USB_DN_27*%
%TO.N,/D-*%
X14197500Y-13820000D03*
%TO.P,U2,28,USB_DP_28*%
%TO.N,/D+*%
X14297500Y-13820000D03*
%TO.P,U2,29,BUSY_29*%
%TO.N,unconnected-(U2-BUSY-Pad29)*%
X14397500Y-13820000D03*
%TO.P,U2,30,GND_30*%
%TO.N,GND*%
X14497500Y-13820000D03*
%TO.P,U2,31,GPIO1_31*%
%TO.N,unconnected-(U2-GPIO1-Pad31)*%
X14497500Y-13920000D03*
%TO.P,U2,32,GPIO0_32*%
%TO.N,unconnected-(U2-GPIO0-Pad32)*%
X14497500Y-14020000D03*
%TO.P,U2,33,GPIO6_33*%
%TO.N,unconnected-(U2-GPIO6-Pad33)*%
X14497500Y-14120000D03*
%TO.P,U2,34,GPIO7_34*%
%TO.N,unconnected-(U2-GPIO7-Pad34)*%
X14497500Y-14220000D03*
%TO.P,U2,35,GPIO8_35*%
%TO.N,unconnected-(U2-GPIO8-Pad35)*%
X14497500Y-14320000D03*
%TO.P,U2,36,GPIO9_36*%
%TO.N,unconnected-(U2-GPIO9-Pad36)*%
X14497500Y-14420000D03*
%TO.P,U2,37,GPIO10_37*%
%TO.N,unconnected-(U2-GPIO10-Pad37)*%
X14497500Y-14520000D03*
%TO.P,U2,38,GND_38*%
%TO.N,GND*%
X14497500Y-14620000D03*
%TD*%
D29*
%TO.P,Z2,1*%
%TO.N,Net-(U2-ANT)*%
X14345174Y-14962326D03*
%TO.P,Z2,2*%
%TO.N,Net-(J2-In)*%
X14280120Y-15027380D03*
%TD*%
D11*
%TO.P,C5,1*%
%TO.N,+3V3*%
X13697500Y-13700000D03*
%TO.P,C5,2*%
%TO.N,GND*%
X13611500Y-13700000D03*
%TD*%
D10*
%TO.P,C4,1*%
%TO.N,+3V3*%
X13997500Y-13700000D03*
%TO.P,C4,2*%
%TO.N,GND*%
X14083500Y-13700000D03*
%TD*%
D30*
%TO.N,+3V3*%
X13897500Y-13635000D03*
X13597500Y-14902500D03*
X14285000Y-13440000D03*
X13997500Y-13635000D03*
X13695000Y-13635000D03*
%TO.N,GND*%
X14344029Y-15196412D03*
X14372500Y-13440000D03*
X14000000Y-14500000D03*
X13560000Y-15490000D03*
X14500000Y-13000000D03*
X14580000Y-14720000D03*
X13810000Y-13635000D03*
X14500000Y-13500000D03*
X13900000Y-15170000D03*
X13990000Y-15070000D03*
X13684000Y-13277000D03*
X13050000Y-13000000D03*
X14800000Y-13750000D03*
X13000000Y-15000000D03*
X14085000Y-13635000D03*
X15000000Y-15500000D03*
X13050000Y-14000000D03*
X14050000Y-14840000D03*
X13560000Y-15340000D03*
X14370000Y-13060000D03*
X13724000Y-13377000D03*
X13560000Y-15620000D03*
X14580000Y-13820000D03*
X14440000Y-15340000D03*
X13610000Y-13635000D03*
X14000000Y-13150000D03*
X13500000Y-13000000D03*
X13050000Y-13500000D03*
X14140000Y-15040000D03*
X14440000Y-15490000D03*
X14290000Y-14880000D03*
X15000000Y-15000000D03*
X14800000Y-13250000D03*
X13510000Y-14902500D03*
X13500000Y-13500000D03*
X14390000Y-15070000D03*
X14000000Y-14000000D03*
X14505069Y-15016915D03*
X13000000Y-15500000D03*
X13500000Y-15000000D03*
X13415000Y-13820000D03*
X14580000Y-14620000D03*
X14800000Y-14250000D03*
X14440000Y-15620000D03*
%TO.N,/D+*%
X14295000Y-13752500D03*
X14200000Y-13657500D03*
D31*
%TO.N,Net-(D1-K)*%
X14180000Y-13060000D03*
X13820000Y-13062500D03*
%TD*%
%TO.N,+3V3*%
D32*
X13697500Y-13700000D02*
X13697500Y-13641035D01*
D33*
X14284500Y-13380000D02*
X14284500Y-13323849D01*
X14284500Y-13380000D02*
X14284500Y-13438793D01*
D32*
X13997500Y-13700000D02*
X13997500Y-13635000D01*
D33*
X13597500Y-14840000D02*
X13597500Y-14902500D01*
D34*
X13725147Y-14840000D02*
X13597500Y-14840000D01*
D32*
X13597500Y-14720000D02*
X13597500Y-14840000D01*
X13897500Y-13820000D02*
X13897500Y-13700000D01*
D34*
X13597500Y-14840000D02*
X13715858Y-14840000D01*
D32*
X13897500Y-13700000D02*
X13897500Y-13635000D01*
X13697500Y-13700000D02*
X13697500Y-13820000D01*
D34*
X14108500Y-14920000D02*
X13918284Y-14920000D01*
D32*
X13997500Y-13700000D02*
X13997500Y-13820000D01*
D33*
X14284500Y-13323849D02*
G75*
G02*
X14295000Y-13298500I35850J-1D01*
G01*
D34*
X13870000Y-14900000D02*
G75*
G03*
X13725147Y-14840001I-144850J-144850D01*
G01*
X13918284Y-14920000D02*
G75*
G02*
X13869999Y-14900001I-4J68280D01*
G01*
D32*
X13697500Y-13641035D02*
G75*
G03*
X13694999Y-13635001I-8540J-5D01*
G01*
%TO.N,GND*%
D33*
X13611500Y-13700000D02*
X13611500Y-13638621D01*
X14497500Y-14620000D02*
X14580000Y-14620000D01*
X13797500Y-13773107D02*
X13797500Y-13820000D01*
X14370500Y-13346814D02*
X14370500Y-13380000D01*
X14360000Y-13298500D02*
X14360000Y-13321464D01*
X14497500Y-13820000D02*
X14580000Y-13820000D01*
X14497500Y-14720000D02*
X14580000Y-14720000D01*
D32*
X13683000Y-13222000D02*
X13683000Y-13274586D01*
D33*
X13811500Y-13700000D02*
X13811500Y-13638621D01*
D32*
X14370500Y-13122500D02*
X14370500Y-13061207D01*
D33*
X13511500Y-14840000D02*
X13511500Y-14898879D01*
D34*
X14111500Y-14840000D02*
X14050000Y-14840000D01*
D35*
X14327500Y-13250000D02*
X14348686Y-13271186D01*
D33*
X13811500Y-13700000D02*
X13811500Y-13739308D01*
D34*
X14293182Y-15145566D02*
X14344029Y-15196412D01*
D33*
X14083500Y-13744308D02*
X14083500Y-13700000D01*
X13497500Y-14720000D02*
X13497500Y-14761894D01*
X14083500Y-13700000D02*
X14083500Y-13638621D01*
X14097500Y-13820000D02*
X14097500Y-13778107D01*
D34*
X14463671Y-14975516D02*
X14505069Y-15016915D01*
D33*
X13497500Y-13820000D02*
X13415000Y-13820000D01*
X13511500Y-14791550D02*
X13511500Y-14840000D01*
X14370500Y-13380000D02*
X14370500Y-13435172D01*
X13505000Y-14780000D02*
X13507929Y-14782929D01*
X14000000Y-13215000D02*
X14000000Y-13150000D01*
D32*
X13797000Y-13378000D02*
X13726414Y-13378000D01*
D33*
X14000000Y-13215000D02*
X14000000Y-13291250D01*
X14090000Y-13760000D02*
G75*
G02*
X14083501Y-13744308I15690J15690D01*
G01*
X14362500Y-13327500D02*
G75*
G02*
X14370498Y-13346814I-19310J-19310D01*
G01*
X13811500Y-13739308D02*
G75*
G02*
X13805001Y-13755001I-22190J-2D01*
G01*
D35*
X14348686Y-13271186D02*
G75*
G02*
X14359999Y-13298500I-27316J-27314D01*
G01*
D34*
X14292848Y-15144759D02*
G75*
G03*
X14293182Y-15145567I1142J-1D01*
G01*
D33*
X14360000Y-13321464D02*
G75*
G03*
X14362501Y-13327499I8540J5D01*
G01*
X13805000Y-13755000D02*
G75*
G03*
X13797499Y-13773107I18110J-18110D01*
G01*
X14083500Y-13638621D02*
G75*
G02*
X14085000Y-13635000I5120J1D01*
G01*
D32*
X13726414Y-13378000D02*
G75*
G02*
X13723999Y-13377001I-4J3410D01*
G01*
D33*
X13811500Y-13638621D02*
G75*
G03*
X13810000Y-13635000I-5120J1D01*
G01*
D34*
X14462554Y-14975054D02*
G75*
G02*
X14463668Y-14975519I-4J-1576D01*
G01*
D35*
X13486035Y-13150000D02*
G75*
G02*
X13480001Y-13147499I5J8540D01*
G01*
D33*
X13511500Y-14898879D02*
G75*
G02*
X13510000Y-14902500I-5120J-1D01*
G01*
X13507929Y-14782929D02*
G75*
G02*
X13511500Y-14791550I-8619J-8621D01*
G01*
X13497500Y-14761894D02*
G75*
G03*
X13505001Y-14779999I25610J4D01*
G01*
D32*
X14370500Y-13061207D02*
G75*
G03*
X14369999Y-13060001I-1710J-3D01*
G01*
D33*
X14097500Y-13778107D02*
G75*
G03*
X14089999Y-13760001I-25610J-3D01*
G01*
D32*
X13683000Y-13274586D02*
G75*
G03*
X13683999Y-13277001I3410J-4D01*
G01*
D33*
X14370500Y-13435172D02*
G75*
G03*
X14372500Y-13439999I6830J2D01*
G01*
X13611500Y-13638621D02*
G75*
G03*
X13610000Y-13635000I-5120J1D01*
G01*
%TO.N,Net-(U2-ANT)*%
X14397500Y-14910000D02*
X14345174Y-14962326D01*
X14397500Y-14720000D02*
X14397500Y-14910000D01*
%TO.N,/D-*%
D36*
X14197500Y-13820000D02*
X14197500Y-13763009D01*
X14050000Y-13211250D02*
X14050000Y-13288750D01*
X14072500Y-13407500D02*
X14255787Y-13590787D01*
X14277000Y-13642000D02*
X14277000Y-13653000D01*
X14050000Y-13288750D02*
X14050000Y-13353180D01*
X14254069Y-13683431D02*
X14213769Y-13723732D01*
X14025000Y-12887250D02*
X14025000Y-13089643D01*
X14050000Y-13149999D02*
X14050000Y-13211500D01*
X14271697Y-13665803D02*
X14254069Y-13683431D01*
X14025000Y-13089643D02*
G75*
G03*
X14032501Y-13107749I25610J3D01*
G01*
X14050000Y-13353180D02*
G75*
G03*
X14072500Y-13407500I76820J0D01*
G01*
X14255787Y-13590787D02*
G75*
G02*
X14276999Y-13642000I-51217J-51213D01*
G01*
X14032500Y-13107750D02*
G75*
G02*
X14050000Y-13149999I-42250J-42250D01*
G01*
X14277000Y-13653000D02*
G75*
G02*
X14271697Y-13665804I-18110J0D01*
G01*
X14213769Y-13723732D02*
G75*
G03*
X14197500Y-13763009I39281J-39278D01*
G01*
%TO.N,/D+*%
X14155806Y-13550806D02*
X14140000Y-13535000D01*
X13950000Y-13149749D02*
X13950000Y-13211250D01*
X13975000Y-12887000D02*
X13975000Y-13089393D01*
X14295000Y-13752500D02*
X14295000Y-13817500D01*
X13950000Y-13288750D02*
X13950000Y-13331781D01*
X14295000Y-13817500D02*
X14297500Y-13820000D01*
X13950000Y-13211250D02*
X13950000Y-13288750D01*
X14140000Y-13535000D02*
X13989775Y-13384775D01*
X13989775Y-13384775D02*
X13959347Y-13354347D01*
X13959347Y-13354347D02*
G75*
G02*
X13949998Y-13331781I22563J22567D01*
G01*
X13967500Y-13107500D02*
G75*
G03*
X13949999Y-13149749I42250J-42250D01*
G01*
X14200000Y-13657500D02*
G75*
G03*
X14155806Y-13550805I-150890J0D01*
G01*
X13975000Y-13089393D02*
G75*
G02*
X13967499Y-13107499I-25610J3D01*
G01*
%TO.N,Net-(J1-CC)*%
D35*
X13827000Y-13178000D02*
X13833293Y-13171707D01*
X13797000Y-13286000D02*
X13797000Y-13250426D01*
X13925000Y-13014003D02*
X13925000Y-12887000D01*
X13833293Y-13171707D02*
X13878336Y-13126663D01*
X13797000Y-13250426D02*
G75*
G02*
X13827001Y-13178001I102430J-4D01*
G01*
X13878336Y-13126663D02*
G75*
G03*
X13925001Y-13014003I-112666J112663D01*
G01*
%TO.N,Net-(D1-K)*%
D32*
X14292174Y-13170000D02*
X14292174Y-13198267D01*
D33*
X13730036Y-13062500D02*
X13820000Y-13062500D01*
D32*
X14292174Y-13141027D02*
X14292174Y-13170000D01*
X14284500Y-13122500D02*
X14286276Y-13124365D01*
X14249776Y-13087776D02*
X14284500Y-13122500D01*
X13820000Y-13042500D02*
X13820000Y-13062500D01*
D33*
X13683000Y-13152000D02*
X13683000Y-13120971D01*
X13706000Y-13074000D02*
X13708636Y-13071364D01*
D35*
X14292174Y-13170000D02*
X14334393Y-13170000D01*
D34*
X13875000Y-12889500D02*
X13875000Y-12987500D01*
D32*
X14292174Y-13198267D02*
X14291970Y-13198470D01*
X14292112Y-13138452D02*
X14292174Y-13141027D01*
X14180000Y-13040000D02*
X14180000Y-13060000D01*
X14291107Y-13133403D02*
X14292112Y-13138452D01*
D35*
X14360000Y-13195607D02*
X14360000Y-13201500D01*
D32*
X14289136Y-13128646D02*
X14291107Y-13133403D01*
D33*
X13699950Y-13080050D02*
X13706000Y-13074000D01*
D34*
X14125000Y-12985000D02*
X14140000Y-13000000D01*
D32*
X14286276Y-13124365D02*
X14289136Y-13128646D01*
X14140000Y-13000000D02*
X14180000Y-13040000D01*
X13860000Y-13002500D02*
X13820000Y-13042500D01*
D34*
X13875000Y-12987500D02*
X13860000Y-13002500D01*
D32*
X14180000Y-13060000D02*
X14182846Y-13060053D01*
D34*
X14125000Y-12887000D02*
X14125000Y-12985000D01*
D33*
X13708636Y-13071364D02*
G75*
G02*
X13730036Y-13062496I21404J-21396D01*
G01*
D32*
X14182846Y-13060053D02*
G75*
G02*
X14249779Y-13087774I4J-94657D01*
G01*
D35*
X14352500Y-13177500D02*
G75*
G02*
X14360001Y-13195607I-18110J-18110D01*
G01*
D33*
X13683000Y-13120971D02*
G75*
G02*
X13699949Y-13080050I57870J1D01*
G01*
D35*
X14334393Y-13170000D02*
G75*
G02*
X14352499Y-13177501I-3J-25610D01*
G01*
%TO.N,Net-(J2-In)*%
D33*
X14134913Y-15120000D02*
X14112426Y-15120000D01*
X14040000Y-15150000D02*
X14038067Y-15151862D01*
X14280120Y-15027380D02*
X14227794Y-15079706D01*
X14038067Y-15151862D02*
X14019970Y-15169959D01*
X14227794Y-15079706D02*
X14224569Y-15082863D01*
X13998000Y-15223000D02*
X13998000Y-15458793D01*
X14005000Y-15477929D02*
G75*
G02*
X14000000Y-15490000I-17070J-1D01*
G01*
X14019970Y-15169959D02*
G75*
G03*
X13998000Y-15223000I53040J-53041D01*
G01*
X13998000Y-15458793D02*
G75*
G02*
X13997499Y-15459999I-1710J3D01*
G01*
X14224569Y-15082863D02*
G75*
G02*
X14134913Y-15120003I-89659J89654D01*
G01*
X14112426Y-15120000D02*
G75*
G03*
X14040001Y-15150001I4J-102430D01*
G01*
%TO.N,Net-(U2-~{RESET})*%
D34*
X14197500Y-14920000D02*
X14197500Y-14720000D01*
%TD*%
%TA.AperFunction,Conductor*%
%TO.N,GND*%
G36*
X14004028Y-13111569D02*
G01*
X14006069Y-13113611D01*
X14011408Y-13121600D01*
X14011499Y-13121738D01*
X14011670Y-13121908D01*
X14011671Y-13121909D01*
X14014663Y-13124901D01*
X14015301Y-13125629D01*
X14019976Y-13131722D01*
X14020942Y-13133395D01*
X14020942Y-13133395D01*
X14023694Y-13140038D01*
X14024194Y-13141903D01*
X14025196Y-13149518D01*
X14025260Y-13150484D01*
X14025260Y-13173339D01*
X14024013Y-13177450D01*
X14023686Y-13177939D01*
X14022986Y-13181455D01*
X14022450Y-13184152D01*
X14022450Y-13238348D01*
X14023333Y-13242788D01*
X14023686Y-13244561D01*
X14024012Y-13245049D01*
X14025260Y-13249161D01*
X14025260Y-13250839D01*
X14024013Y-13254950D01*
X14023686Y-13255439D01*
X14022450Y-13261652D01*
X14022450Y-13315848D01*
X14023478Y-13321017D01*
X14023686Y-13322061D01*
X14024012Y-13322549D01*
X14025260Y-13326661D01*
X14025260Y-13348818D01*
X14025259Y-13348818D01*
X14025260Y-13351534D01*
X14025260Y-13361173D01*
X14026232Y-13367312D01*
X14026089Y-13367906D01*
X14026323Y-13368470D01*
X14025445Y-13370589D01*
X14024910Y-13372819D01*
X14024389Y-13373138D01*
X14024156Y-13373702D01*
X14022036Y-13374580D01*
X14020081Y-13375779D01*
X14019487Y-13375636D01*
X14018923Y-13375870D01*
X14016804Y-13374992D01*
X14014573Y-13374456D01*
X14013690Y-13373702D01*
X14003789Y-13363801D01*
X13980347Y-13340359D01*
X13980347Y-13340359D01*
X13977184Y-13337195D01*
X13976546Y-13336468D01*
X13976318Y-13336172D01*
X13974852Y-13332631D01*
X13974803Y-13332261D01*
X13974740Y-13331296D01*
X13974740Y-13327419D01*
X13974740Y-13327419D01*
X13974740Y-13326661D01*
X13975988Y-13322549D01*
X13976314Y-13322061D01*
X13977550Y-13315848D01*
X13977550Y-13261652D01*
X13976314Y-13255439D01*
X13976314Y-13255439D01*
X13975987Y-13254950D01*
X13974740Y-13250839D01*
X13974740Y-13249161D01*
X13975988Y-13245049D01*
X13976314Y-13244561D01*
X13977550Y-13238348D01*
X13977550Y-13184152D01*
X13976314Y-13177939D01*
X13976314Y-13177939D01*
X13975987Y-13177450D01*
X13974740Y-13173339D01*
X13974740Y-13150234D01*
X13974804Y-13149268D01*
X13975060Y-13147324D01*
X13975806Y-13141653D01*
X13976306Y-13139788D01*
X13979058Y-13133144D01*
X13980023Y-13131472D01*
X13984699Y-13125378D01*
X13985336Y-13124652D01*
X13988079Y-13121909D01*
X13988079Y-13121909D01*
X13988500Y-13121488D01*
X13993764Y-13113611D01*
X13998473Y-13110464D01*
X14004028Y-13111569D01*
G37*
%TD.AperFunction*%
%TA.AperFunction,Conductor*%
G36*
X14335092Y-13223018D02*
G01*
X14335319Y-13223286D01*
X14335324Y-13223281D01*
X14335655Y-13223635D01*
X14335656Y-13223635D01*
X14350656Y-13239635D01*
X14354225Y-13242467D01*
X14355426Y-13242788D01*
X14359920Y-13246236D01*
X14360659Y-13251851D01*
X14357416Y-13256222D01*
X14350692Y-13260399D01*
X14335692Y-13276399D01*
X14334586Y-13277889D01*
X14329727Y-13280800D01*
X14324234Y-13279422D01*
X14323391Y-13278570D01*
X14323343Y-13278618D01*
X14315293Y-13270568D01*
X14313799Y-13269807D01*
X14311760Y-13268275D01*
X14308536Y-13264836D01*
X14304344Y-13260365D01*
X14304344Y-13260365D01*
X14304344Y-13260364D01*
X14301965Y-13258477D01*
X14300775Y-13257533D01*
X14300775Y-13257533D01*
X14300775Y-13257533D01*
X14299637Y-13257228D01*
X14297722Y-13255759D01*
X14295644Y-13254535D01*
X14295524Y-13254072D01*
X14295144Y-13253780D01*
X14294829Y-13251388D01*
X14294225Y-13249052D01*
X14294472Y-13248672D01*
X14294405Y-13248165D01*
X14297098Y-13244171D01*
X14297475Y-13243887D01*
X14297507Y-13243883D01*
X14304344Y-13239635D01*
X14307303Y-13236479D01*
X14307812Y-13236096D01*
X14307997Y-13236048D01*
X14308565Y-13235597D01*
X14316807Y-13230838D01*
X14324542Y-13223104D01*
X14324542Y-13223103D01*
X14324627Y-13223018D01*
X14329860Y-13220851D01*
X14335092Y-13223018D01*
G37*
%TD.AperFunction*%
%TA.AperFunction,Conductor*%
G36*
X13364873Y-12725050D02*
G01*
X13368805Y-12725050D01*
X13369771Y-12725113D01*
X13370732Y-12725240D01*
X13374781Y-12725773D01*
X13376647Y-12726273D01*
X13380864Y-12728019D01*
X13382537Y-12728985D01*
X13383859Y-12730000D01*
X13386546Y-12732062D01*
X13387274Y-12732700D01*
X13407642Y-12753068D01*
X13412869Y-12758295D01*
X13425161Y-12766509D01*
X13438820Y-12772166D01*
X13453319Y-12775050D01*
X13460711Y-12775050D01*
X14534873Y-12775050D01*
X14534873Y-12775050D01*
X14539290Y-12775050D01*
X14544272Y-12775050D01*
X14545367Y-12775050D01*
X14545368Y-12775050D01*
X14546681Y-12775050D01*
X14546681Y-12775050D01*
X14561181Y-12772166D01*
X14574839Y-12766508D01*
X14587130Y-12758295D01*
X14588123Y-12757303D01*
X14588123Y-12757303D01*
X14588834Y-12756592D01*
X14588834Y-12756592D01*
X14612726Y-12732700D01*
X14613452Y-12732063D01*
X14617463Y-12728985D01*
X14619135Y-12728020D01*
X14623354Y-12726273D01*
X14625219Y-12725773D01*
X14628751Y-12725308D01*
X14630231Y-12725113D01*
X14631196Y-12725050D01*
X15165583Y-12725050D01*
X15167550Y-12725050D01*
X15172783Y-12727217D01*
X15174950Y-12732450D01*
X15174950Y-13015583D01*
X15174950Y-13020000D01*
X15174950Y-13026203D01*
X15177580Y-13037724D01*
X15177710Y-13038297D01*
X15177711Y-13038297D01*
X15183093Y-13049473D01*
X15183093Y-13049474D01*
X15183932Y-13050526D01*
X15190827Y-13059172D01*
X15198660Y-13065419D01*
X15200309Y-13066734D01*
X15200526Y-13066907D01*
X15211703Y-13072289D01*
X15223797Y-13075050D01*
X15225017Y-13075050D01*
X15265583Y-13075050D01*
X15267550Y-13075050D01*
X15272783Y-13077217D01*
X15274950Y-13082450D01*
X15274950Y-15449776D01*
X15274936Y-15450223D01*
X15273337Y-15476668D01*
X15273229Y-15477555D01*
X15268494Y-15503394D01*
X15268280Y-15504262D01*
X15260465Y-15529340D01*
X15260148Y-15530176D01*
X15249367Y-15554132D01*
X15248951Y-15554923D01*
X15235362Y-15577403D01*
X15234854Y-15578138D01*
X15218653Y-15598817D01*
X15218061Y-15599486D01*
X15199486Y-15618061D01*
X15198817Y-15618653D01*
X15178138Y-15634854D01*
X15177403Y-15635362D01*
X15154923Y-15648951D01*
X15154132Y-15649367D01*
X15130176Y-15660148D01*
X15129340Y-15660465D01*
X15104262Y-15668280D01*
X15103394Y-15668494D01*
X15077555Y-15673229D01*
X15076668Y-15673337D01*
X15050223Y-15674936D01*
X15049776Y-15674950D01*
X14083228Y-15674950D01*
X14077995Y-15672783D01*
X14075828Y-15667550D01*
X14077274Y-15663156D01*
X14079493Y-15660148D01*
X14083788Y-15654330D01*
X14088265Y-15641534D01*
X14088550Y-15638496D01*
X14088550Y-15281504D01*
X14088265Y-15278466D01*
X14088265Y-15278466D01*
X14088265Y-15278465D01*
X14083788Y-15265670D01*
X14083788Y-15265670D01*
X14075737Y-15254763D01*
X14064830Y-15246712D01*
X14064830Y-15246712D01*
X14052034Y-15242235D01*
X14052034Y-15242235D01*
X14051274Y-15242164D01*
X14048996Y-15241950D01*
X14048995Y-15241950D01*
X14039500Y-15241950D01*
X14034267Y-15239783D01*
X14032100Y-15234550D01*
X14032100Y-15223364D01*
X14032136Y-15222639D01*
X14032168Y-15222304D01*
X14032815Y-15215743D01*
X14033097Y-15214322D01*
X14035003Y-15208041D01*
X14035557Y-15206702D01*
X14038651Y-15200914D01*
X14039457Y-15199708D01*
X14043853Y-15194351D01*
X14044338Y-15193816D01*
X14047902Y-15190253D01*
X14047902Y-15190252D01*
X14059623Y-15178531D01*
X14060107Y-15178118D01*
X14060293Y-15177931D01*
X14060293Y-15177931D01*
X14063848Y-15174377D01*
X14063931Y-15174295D01*
X14063954Y-15174272D01*
X14064396Y-15173879D01*
X14073904Y-15166077D01*
X14075108Y-15165272D01*
X14085637Y-15159644D01*
X14086975Y-15159090D01*
X14098400Y-15155624D01*
X14099821Y-15155341D01*
X14112065Y-15154136D01*
X14112790Y-15154100D01*
X14145459Y-15154100D01*
X14145459Y-15154100D01*
X14166369Y-15151347D01*
X14186741Y-15145888D01*
X14206227Y-15137817D01*
X14224492Y-15127272D01*
X14226572Y-15125676D01*
X14229633Y-15124289D01*
X14234423Y-15123336D01*
X14240865Y-15119032D01*
X14267120Y-15092776D01*
X14271425Y-15086334D01*
X14271492Y-15085996D01*
X14273517Y-15082208D01*
X14280866Y-15074858D01*
X14284655Y-15072833D01*
X14293820Y-15071010D01*
X14300262Y-15066706D01*
X14319446Y-15047521D01*
X14323751Y-15041079D01*
X14325773Y-15030915D01*
X14323751Y-15020751D01*
X14319446Y-15014309D01*
X14293191Y-14988054D01*
X14286749Y-14983749D01*
X14280305Y-14982467D01*
X14276585Y-14981727D01*
X14276585Y-14981727D01*
X14266421Y-14983749D01*
X14259979Y-14988054D01*
X14259979Y-14988054D01*
X14240794Y-15007238D01*
X14240794Y-15007238D01*
X14236490Y-15013680D01*
X14234667Y-15022844D01*
X14232642Y-15026633D01*
X14225292Y-15033983D01*
X14221504Y-15036008D01*
X14221166Y-15036075D01*
X14214724Y-15040380D01*
X14188468Y-15066635D01*
X14186959Y-15068894D01*
X14184673Y-15071092D01*
X14177491Y-15075493D01*
X14176457Y-15076020D01*
X14164095Y-15081141D01*
X14162991Y-15081499D01*
X14153430Y-15083795D01*
X14149980Y-15084623D01*
X14148833Y-15084804D01*
X14135203Y-15085877D01*
X14134623Y-15085900D01*
X14117827Y-15085900D01*
X14112426Y-15085900D01*
X14103478Y-15085900D01*
X14100307Y-15086317D01*
X14085735Y-15088236D01*
X14085734Y-15088236D01*
X14068447Y-15092868D01*
X14051914Y-15099716D01*
X14051913Y-15099717D01*
X14036414Y-15108665D01*
X14036413Y-15108665D01*
X14022216Y-15119560D01*
X14022215Y-15119560D01*
X14017774Y-15124001D01*
X14017722Y-15124053D01*
X14017273Y-15124492D01*
X14017129Y-15124575D01*
X14014209Y-15127495D01*
X14014174Y-15127530D01*
X14014173Y-15127530D01*
X14014129Y-15127574D01*
X14011174Y-15130421D01*
X14011002Y-15130637D01*
X14010449Y-15131255D01*
X13999677Y-15142028D01*
X13999677Y-15142028D01*
X13989785Y-15151919D01*
X13979691Y-15165813D01*
X13971894Y-15181116D01*
X13966587Y-15197449D01*
X13966587Y-15197450D01*
X13963900Y-15214413D01*
X13963900Y-15234550D01*
X13961733Y-15239783D01*
X13956500Y-15241950D01*
X13946004Y-15241950D01*
X13943979Y-15242140D01*
X13942966Y-15242235D01*
X13942965Y-15242235D01*
X13930170Y-15246712D01*
X13919263Y-15254762D01*
X13919262Y-15254763D01*
X13911212Y-15265670D01*
X13906735Y-15278465D01*
X13906735Y-15278466D01*
X13906735Y-15278466D01*
X13906450Y-15281504D01*
X13906450Y-15638496D01*
X13906671Y-15640859D01*
X13906735Y-15641534D01*
X13906735Y-15641534D01*
X13911212Y-15654330D01*
X13917726Y-15663156D01*
X13919089Y-15668653D01*
X13916166Y-15673504D01*
X13911772Y-15674950D01*
X12950224Y-15674950D01*
X12949777Y-15674936D01*
X12923332Y-15673337D01*
X12922445Y-15673229D01*
X12896606Y-15668494D01*
X12895738Y-15668280D01*
X12893395Y-15667550D01*
X12870660Y-15660465D01*
X12869824Y-15660148D01*
X12845868Y-15649367D01*
X12845077Y-15648951D01*
X12822597Y-15635362D01*
X12821861Y-15634854D01*
X12801183Y-15618653D01*
X12800514Y-15618061D01*
X12781939Y-15599486D01*
X12781346Y-15598817D01*
X12765146Y-15578138D01*
X12764638Y-15577403D01*
X12751048Y-15554923D01*
X12750633Y-15554132D01*
X12739851Y-15530175D01*
X12739535Y-15529341D01*
X12731719Y-15504261D01*
X12731506Y-15503395D01*
X12726770Y-15477554D01*
X12726663Y-15476669D01*
X12725063Y-15450223D01*
X12725050Y-15449776D01*
X12725050Y-14640539D01*
X12749790Y-14640539D01*
X12749790Y-14659461D01*
X12752750Y-14678149D01*
X12752750Y-14678150D01*
X12758597Y-14696144D01*
X12758597Y-14696145D01*
X12760823Y-14700514D01*
X12767187Y-14713004D01*
X12778309Y-14728311D01*
X12791688Y-14741691D01*
X12791689Y-14741691D01*
X12791689Y-14741691D01*
X12806258Y-14752276D01*
X12806996Y-14752813D01*
X12817956Y-14758397D01*
X12823855Y-14761403D01*
X12823856Y-14761403D01*
X12841850Y-14767250D01*
X12841850Y-14767250D01*
X12841851Y-14767250D01*
X12851195Y-14768730D01*
X12860539Y-14770210D01*
X12860539Y-14770210D01*
X12879461Y-14770210D01*
X12886936Y-14769026D01*
X12898149Y-14767250D01*
X12898150Y-14767250D01*
X12898150Y-14767250D01*
X12916144Y-14761403D01*
X12916144Y-14761403D01*
X12916145Y-14761403D01*
X12933004Y-14752813D01*
X12948311Y-14741691D01*
X12961691Y-14728311D01*
X12972813Y-14713004D01*
X12979177Y-14700513D01*
X13552450Y-14700513D01*
X13552450Y-14739486D01*
X13552741Y-14741999D01*
X13552741Y-14741999D01*
X13556419Y-14750329D01*
X13557050Y-14753318D01*
X13557050Y-14845325D01*
X13558588Y-14851067D01*
X13559198Y-14853342D01*
X13559450Y-14855257D01*
X13559450Y-14857114D01*
X13560990Y-14864859D01*
X13561823Y-14866105D01*
X13562928Y-14871660D01*
X13561681Y-14874412D01*
X13561694Y-14874419D01*
X13561622Y-14874543D01*
X13561541Y-14874721D01*
X13561451Y-14874838D01*
X13555520Y-14885111D01*
X13555520Y-14885112D01*
X13552450Y-14896569D01*
X13552450Y-14908431D01*
X13555520Y-14919888D01*
X13555520Y-14919889D01*
X13561451Y-14930161D01*
X13561451Y-14930161D01*
X13561451Y-14930161D01*
X13569839Y-14938549D01*
X13569839Y-14938549D01*
X13569839Y-14938549D01*
X13580111Y-14944480D01*
X13580111Y-14944480D01*
X13580111Y-14944480D01*
X13580112Y-14944480D01*
X13585840Y-14946015D01*
X13591569Y-14947550D01*
X13591569Y-14947550D01*
X13591569Y-14947550D01*
X13603431Y-14947550D01*
X13603431Y-14947550D01*
X13614889Y-14944480D01*
X13625161Y-14938549D01*
X13633549Y-14930161D01*
X13639480Y-14919889D01*
X13642550Y-14908431D01*
X13642550Y-14908431D01*
X13642550Y-14896569D01*
X13642550Y-14896569D01*
X13639480Y-14885112D01*
X13639480Y-14885111D01*
X13635865Y-14878850D01*
X13635126Y-14873235D01*
X13638573Y-14868741D01*
X13642273Y-14867750D01*
X13719511Y-14867750D01*
X13720254Y-14867750D01*
X13724904Y-14867750D01*
X13725388Y-14867766D01*
X13747780Y-14869233D01*
X13748740Y-14869360D01*
X13770509Y-14873690D01*
X13771444Y-14873940D01*
X13792462Y-14881075D01*
X13793356Y-14881445D01*
X13813265Y-14891263D01*
X13814101Y-14891746D01*
X13832557Y-14904078D01*
X13833325Y-14904668D01*
X13847016Y-14916674D01*
X13850194Y-14919461D01*
X13850547Y-14919792D01*
X13855722Y-14924967D01*
X13867951Y-14933852D01*
X13880951Y-14940475D01*
X13881420Y-14940714D01*
X13881420Y-14940714D01*
X13895795Y-14945385D01*
X13895796Y-14945385D01*
X13895796Y-14945385D01*
X13910726Y-14947750D01*
X13918284Y-14947750D01*
X13923177Y-14947750D01*
X14067066Y-14947750D01*
X14072298Y-14949917D01*
X14073219Y-14951039D01*
X14075719Y-14954781D01*
X14075719Y-14954781D01*
X14075719Y-14954781D01*
X14084336Y-14960538D01*
X14091935Y-14962050D01*
X14091935Y-14962050D01*
X14119065Y-14962050D01*
X14119065Y-14962050D01*
X14126664Y-14960538D01*
X14135281Y-14954781D01*
X14141038Y-14946164D01*
X14142550Y-14938565D01*
X14142550Y-14901435D01*
X14141038Y-14893836D01*
X14135281Y-14885219D01*
X14135120Y-14885112D01*
X14126664Y-14879461D01*
X14119065Y-14877950D01*
X14091935Y-14877950D01*
X14087410Y-14878850D01*
X14084336Y-14879461D01*
X14075719Y-14885219D01*
X14075719Y-14885219D01*
X14073219Y-14888961D01*
X14068509Y-14892108D01*
X14067066Y-14892250D01*
X13918769Y-14892250D01*
X13917803Y-14892187D01*
X13916613Y-14892030D01*
X13908759Y-14890996D01*
X13906893Y-14890496D01*
X13898917Y-14887192D01*
X13897244Y-14886226D01*
X13890007Y-14880673D01*
X13889279Y-14880035D01*
X13885741Y-14876496D01*
X13885740Y-14876496D01*
X13880386Y-14871141D01*
X13880385Y-14871141D01*
X13862797Y-14857115D01*
X13859959Y-14854852D01*
X13837839Y-14840953D01*
X13814300Y-14829617D01*
X13789643Y-14820989D01*
X13789641Y-14820988D01*
X13764171Y-14815175D01*
X13764171Y-14815175D01*
X13753045Y-14813921D01*
X13738210Y-14812250D01*
X13738209Y-14812250D01*
X13645350Y-14812250D01*
X13640117Y-14810083D01*
X13637950Y-14804850D01*
X13637950Y-14753318D01*
X13638580Y-14750329D01*
X13638934Y-14749528D01*
X13640730Y-14745459D01*
X13644827Y-14741548D01*
X13650489Y-14741679D01*
X13654269Y-14745459D01*
X13654269Y-14745460D01*
X13657279Y-14752276D01*
X13665223Y-14760221D01*
X13675501Y-14764758D01*
X13678013Y-14765050D01*
X13716986Y-14765050D01*
X13719499Y-14764758D01*
X13729776Y-14760221D01*
X13737721Y-14752276D01*
X13740730Y-14745459D01*
X13744827Y-14741548D01*
X13750489Y-14741679D01*
X13754269Y-14745459D01*
X13757279Y-14752276D01*
X13765223Y-14760221D01*
X13775501Y-14764758D01*
X13778013Y-14765050D01*
X13816986Y-14765050D01*
X13819499Y-14764758D01*
X13829776Y-14760221D01*
X13837721Y-14752276D01*
X13840730Y-14745459D01*
X13844827Y-14741548D01*
X13850489Y-14741679D01*
X13854269Y-14745459D01*
X13857279Y-14752276D01*
X13865223Y-14760221D01*
X13875501Y-14764758D01*
X13878013Y-14765050D01*
X13916986Y-14765050D01*
X13919499Y-14764758D01*
X13929776Y-14760221D01*
X13937721Y-14752276D01*
X13940730Y-14745459D01*
X13944827Y-14741548D01*
X13950489Y-14741679D01*
X13954269Y-14745459D01*
X13957279Y-14752276D01*
X13965223Y-14760221D01*
X13975501Y-14764758D01*
X13978013Y-14765050D01*
X14016986Y-14765050D01*
X14019499Y-14764758D01*
X14029776Y-14760221D01*
X14037721Y-14752276D01*
X14040730Y-14745459D01*
X14044827Y-14741548D01*
X14050489Y-14741679D01*
X14054269Y-14745459D01*
X14057279Y-14752276D01*
X14065223Y-14760221D01*
X14075501Y-14764758D01*
X14078013Y-14765050D01*
X14116986Y-14765050D01*
X14119499Y-14764758D01*
X14129776Y-14760221D01*
X14137721Y-14752276D01*
X14140730Y-14745459D01*
X14144827Y-14741548D01*
X14150489Y-14741679D01*
X14154269Y-14745459D01*
X14157279Y-14752276D01*
X14165223Y-14760221D01*
X14165338Y-14760271D01*
X14165416Y-14760352D01*
X14165789Y-14760608D01*
X14165735Y-14760687D01*
X14169250Y-14764367D01*
X14169750Y-14767041D01*
X14169750Y-14800471D01*
X14167583Y-14805704D01*
X14167196Y-14806021D01*
X14166858Y-14806358D01*
X14160991Y-14815140D01*
X14160990Y-14815140D01*
X14159450Y-14822885D01*
X14159450Y-14857114D01*
X14160990Y-14864859D01*
X14166858Y-14873641D01*
X14167374Y-14874157D01*
X14167336Y-14874194D01*
X14167583Y-14874296D01*
X14168408Y-14876290D01*
X14169608Y-14878084D01*
X14169750Y-14879529D01*
X14169750Y-14880123D01*
X14167941Y-14884491D01*
X14168124Y-14884613D01*
X14161961Y-14893836D01*
X14161418Y-14896569D01*
X14160450Y-14901435D01*
X14160450Y-14938565D01*
X14160877Y-14940714D01*
X14161961Y-14946164D01*
X14166995Y-14953697D01*
X14167719Y-14954781D01*
X14176336Y-14960538D01*
X14183935Y-14962050D01*
X14183935Y-14962050D01*
X14211065Y-14962050D01*
X14211065Y-14962050D01*
X14218664Y-14960538D01*
X14221280Y-14958790D01*
X14299522Y-14958790D01*
X14301544Y-14968954D01*
X14305848Y-14975396D01*
X14332104Y-15001652D01*
X14338546Y-15005956D01*
X14347023Y-15007643D01*
X14348710Y-15007978D01*
X14348710Y-15007978D01*
X14358874Y-15005956D01*
X14365316Y-15001652D01*
X14384500Y-14982468D01*
X14388805Y-14976026D01*
X14390628Y-14966861D01*
X14392653Y-14963072D01*
X14400002Y-14955722D01*
X14403791Y-14953697D01*
X14404129Y-14953630D01*
X14410571Y-14949326D01*
X14436826Y-14923071D01*
X14441130Y-14916629D01*
X14443152Y-14906464D01*
X14441130Y-14896300D01*
X14436826Y-14889858D01*
X14433767Y-14886800D01*
X14431600Y-14881567D01*
X14431600Y-14761462D01*
X14433767Y-14756230D01*
X14437721Y-14752276D01*
X14442258Y-14741999D01*
X14442550Y-14739486D01*
X14442550Y-14700514D01*
X14442258Y-14698001D01*
X14437721Y-14687723D01*
X14429776Y-14679779D01*
X14419499Y-14675241D01*
X14419499Y-14675241D01*
X14419499Y-14675241D01*
X14417366Y-14674994D01*
X14416986Y-14674950D01*
X14416986Y-14674950D01*
X14378014Y-14674950D01*
X14375501Y-14675241D01*
X14375501Y-14675241D01*
X14365223Y-14679779D01*
X14357279Y-14687723D01*
X14352741Y-14698001D01*
X14352450Y-14700513D01*
X14352450Y-14739486D01*
X14352741Y-14741999D01*
X14352741Y-14741999D01*
X14357279Y-14752276D01*
X14361233Y-14756230D01*
X14363400Y-14761462D01*
X14363400Y-14888638D01*
X14361233Y-14893871D01*
X14358174Y-14896929D01*
X14353870Y-14903371D01*
X14353802Y-14903710D01*
X14351777Y-14907498D01*
X14344428Y-14914847D01*
X14340639Y-14916872D01*
X14331474Y-14918695D01*
X14325032Y-14923000D01*
X14325032Y-14923000D01*
X14305848Y-14942184D01*
X14305848Y-14942184D01*
X14301544Y-14948626D01*
X14301064Y-14951039D01*
X14299522Y-14958790D01*
X14221280Y-14958790D01*
X14227281Y-14954781D01*
X14233038Y-14946164D01*
X14234550Y-14938565D01*
X14234550Y-14901435D01*
X14233038Y-14893836D01*
X14227281Y-14885219D01*
X14227281Y-14885219D01*
X14226876Y-14884613D01*
X14227059Y-14884491D01*
X14225250Y-14880123D01*
X14225250Y-14879529D01*
X14227417Y-14874296D01*
X14227803Y-14873979D01*
X14228141Y-14873642D01*
X14228141Y-14873641D01*
X14234009Y-14864859D01*
X14235550Y-14857115D01*
X14235550Y-14822885D01*
X14235173Y-14820989D01*
X14234010Y-14815141D01*
X14228141Y-14806358D01*
X14227626Y-14805843D01*
X14227860Y-14805609D01*
X14225392Y-14801913D01*
X14225250Y-14800471D01*
X14225250Y-14767041D01*
X14227417Y-14761808D01*
X14229661Y-14760271D01*
X14229776Y-14760221D01*
X14237721Y-14752276D01*
X14242258Y-14741999D01*
X14242550Y-14739486D01*
X14242550Y-14700514D01*
X14242258Y-14698001D01*
X14237721Y-14687723D01*
X14229776Y-14679779D01*
X14219499Y-14675241D01*
X14219499Y-14675241D01*
X14219499Y-14675241D01*
X14217366Y-14674994D01*
X14216986Y-14674950D01*
X14216986Y-14674950D01*
X14178014Y-14674950D01*
X14175501Y-14675241D01*
X14175501Y-14675241D01*
X14165223Y-14679779D01*
X14157279Y-14687723D01*
X14154269Y-14694540D01*
X14150173Y-14698452D01*
X14144511Y-14698321D01*
X14140730Y-14694540D01*
X14137721Y-14687723D01*
X14129776Y-14679779D01*
X14119499Y-14675241D01*
X14119499Y-14675241D01*
X14119499Y-14675241D01*
X14117366Y-14674994D01*
X14116986Y-14674950D01*
X14116986Y-14674950D01*
X14078014Y-14674950D01*
X14075501Y-14675241D01*
X14075501Y-14675241D01*
X14065223Y-14679779D01*
X14057279Y-14687723D01*
X14054269Y-14694540D01*
X14050173Y-14698452D01*
X14044511Y-14698321D01*
X14040730Y-14694540D01*
X14037721Y-14687723D01*
X14029776Y-14679779D01*
X14019499Y-14675241D01*
X14019499Y-14675241D01*
X14019499Y-14675241D01*
X14017366Y-14674994D01*
X14016986Y-14674950D01*
X14016986Y-14674950D01*
X13978014Y-14674950D01*
X13975501Y-14675241D01*
X13975501Y-14675241D01*
X13965223Y-14679779D01*
X13957279Y-14687723D01*
X13954269Y-14694540D01*
X13950173Y-14698452D01*
X13944511Y-14698321D01*
X13940730Y-14694540D01*
X13937721Y-14687723D01*
X13929776Y-14679779D01*
X13919499Y-14675241D01*
X13919499Y-14675241D01*
X13919499Y-14675241D01*
X13917366Y-14674994D01*
X13916986Y-14674950D01*
X13916986Y-14674950D01*
X13878014Y-14674950D01*
X13875501Y-14675241D01*
X13875501Y-14675241D01*
X13865223Y-14679779D01*
X13857279Y-14687723D01*
X13854269Y-14694540D01*
X13850173Y-14698452D01*
X13844511Y-14698321D01*
X13840730Y-14694540D01*
X13837721Y-14687723D01*
X13829776Y-14679779D01*
X13819499Y-14675241D01*
X13819499Y-14675241D01*
X13819499Y-14675241D01*
X13817366Y-14674994D01*
X13816986Y-14674950D01*
X13816986Y-14674950D01*
X13778014Y-14674950D01*
X13775501Y-14675241D01*
X13775501Y-14675241D01*
X13765223Y-14679779D01*
X13757279Y-14687723D01*
X13754269Y-14694540D01*
X13750173Y-14698452D01*
X13744511Y-14698321D01*
X13740730Y-14694540D01*
X13737721Y-14687723D01*
X13729776Y-14679779D01*
X13719499Y-14675241D01*
X13719499Y-14675241D01*
X13719499Y-14675241D01*
X13717366Y-14674994D01*
X13716986Y-14674950D01*
X13716986Y-14674950D01*
X13678014Y-14674950D01*
X13675501Y-14675241D01*
X13675501Y-14675241D01*
X13665223Y-14679779D01*
X13657279Y-14687723D01*
X13654269Y-14694540D01*
X13650173Y-14698452D01*
X13644511Y-14698321D01*
X13640730Y-14694540D01*
X13637721Y-14687723D01*
X13629776Y-14679779D01*
X13619499Y-14675241D01*
X13619499Y-14675241D01*
X13619499Y-14675241D01*
X13617366Y-14674994D01*
X13616986Y-14674950D01*
X13616986Y-14674950D01*
X13578014Y-14674950D01*
X13575501Y-14675241D01*
X13575501Y-14675241D01*
X13565223Y-14679779D01*
X13557279Y-14687723D01*
X13552741Y-14698001D01*
X13552450Y-14700513D01*
X12979177Y-14700513D01*
X12981403Y-14696145D01*
X12987250Y-14678149D01*
X12989470Y-14664133D01*
X12990210Y-14659461D01*
X12990210Y-14640539D01*
X12987250Y-14621851D01*
X12987250Y-14621850D01*
X12981403Y-14603856D01*
X12981403Y-14603855D01*
X12978420Y-14598001D01*
X12972813Y-14586996D01*
X12967569Y-14579779D01*
X12961691Y-14571689D01*
X12961691Y-14571689D01*
X12961691Y-14571688D01*
X12948311Y-14558309D01*
X12948311Y-14558309D01*
X12948311Y-14558309D01*
X12933004Y-14547187D01*
X12933003Y-14547187D01*
X12916145Y-14538597D01*
X12916144Y-14538597D01*
X12898150Y-14532750D01*
X12898149Y-14532750D01*
X12879461Y-14529790D01*
X12879461Y-14529790D01*
X12860539Y-14529790D01*
X12860539Y-14529790D01*
X12841851Y-14532750D01*
X12841850Y-14532750D01*
X12823856Y-14538597D01*
X12823855Y-14538597D01*
X12806996Y-14547187D01*
X12806996Y-14547187D01*
X12791689Y-14558309D01*
X12778309Y-14571689D01*
X12767187Y-14586996D01*
X12767187Y-14586996D01*
X12758597Y-14603855D01*
X12758597Y-14603856D01*
X12752750Y-14621850D01*
X12752750Y-14621851D01*
X12749790Y-14640539D01*
X12725050Y-14640539D01*
X12725050Y-13900513D01*
X13452450Y-13900513D01*
X13452450Y-13939486D01*
X13452741Y-13941999D01*
X13452741Y-13941999D01*
X13457279Y-13952276D01*
X13465223Y-13960221D01*
X13472040Y-13963230D01*
X13475952Y-13967327D01*
X13475821Y-13972989D01*
X13472040Y-13976769D01*
X13465223Y-13979779D01*
X13457279Y-13987723D01*
X13452741Y-13998001D01*
X13452450Y-14000513D01*
X13452450Y-14039486D01*
X13452741Y-14041999D01*
X13452741Y-14041999D01*
X13457279Y-14052276D01*
X13465223Y-14060221D01*
X13472040Y-14063230D01*
X13475952Y-14067327D01*
X13475821Y-14072989D01*
X13472040Y-14076769D01*
X13465223Y-14079779D01*
X13457279Y-14087723D01*
X13452741Y-14098001D01*
X13452450Y-14100513D01*
X13452450Y-14139486D01*
X13452741Y-14141999D01*
X13452741Y-14141999D01*
X13457279Y-14152276D01*
X13465223Y-14160221D01*
X13472040Y-14163230D01*
X13475952Y-14167327D01*
X13475821Y-14172989D01*
X13472040Y-14176769D01*
X13465223Y-14179779D01*
X13457279Y-14187723D01*
X13452741Y-14198001D01*
X13452450Y-14200513D01*
X13452450Y-14239486D01*
X13452741Y-14241999D01*
X13452741Y-14241999D01*
X13457279Y-14252276D01*
X13465223Y-14260221D01*
X13472040Y-14263230D01*
X13475952Y-14267327D01*
X13475821Y-14272989D01*
X13472040Y-14276769D01*
X13465223Y-14279779D01*
X13457279Y-14287723D01*
X13452741Y-14298001D01*
X13452450Y-14300513D01*
X13452450Y-14339486D01*
X13452741Y-14341999D01*
X13452741Y-14341999D01*
X13457279Y-14352276D01*
X13465223Y-14360221D01*
X13472040Y-14363230D01*
X13475952Y-14367327D01*
X13475821Y-14372989D01*
X13472040Y-14376769D01*
X13465223Y-14379779D01*
X13457279Y-14387723D01*
X13452741Y-14398001D01*
X13452450Y-14400513D01*
X13452450Y-14439486D01*
X13452741Y-14441999D01*
X13452741Y-14441999D01*
X13457279Y-14452276D01*
X13465223Y-14460221D01*
X13472040Y-14463230D01*
X13475952Y-14467327D01*
X13475821Y-14472989D01*
X13472040Y-14476769D01*
X13465223Y-14479779D01*
X13457279Y-14487723D01*
X13452741Y-14498001D01*
X13452450Y-14500513D01*
X13452450Y-14539486D01*
X13452741Y-14541999D01*
X13452741Y-14541999D01*
X13455032Y-14547187D01*
X13457279Y-14552276D01*
X13465223Y-14560221D01*
X13472040Y-14563230D01*
X13475952Y-14567327D01*
X13475821Y-14572989D01*
X13472040Y-14576769D01*
X13465223Y-14579779D01*
X13457279Y-14587723D01*
X13452741Y-14598001D01*
X13452450Y-14600513D01*
X13452450Y-14639486D01*
X13452741Y-14641999D01*
X13452741Y-14641999D01*
X13457279Y-14652276D01*
X13465223Y-14660221D01*
X13475501Y-14664758D01*
X13478013Y-14665050D01*
X13516986Y-14665050D01*
X13519499Y-14664758D01*
X13529776Y-14660221D01*
X13537721Y-14652276D01*
X13542258Y-14641999D01*
X13542428Y-14640539D01*
X15009790Y-14640539D01*
X15009790Y-14659461D01*
X15012750Y-14678149D01*
X15012750Y-14678150D01*
X15018597Y-14696144D01*
X15018597Y-14696145D01*
X15020823Y-14700514D01*
X15027187Y-14713004D01*
X15038309Y-14728311D01*
X15051688Y-14741691D01*
X15051689Y-14741691D01*
X15051689Y-14741691D01*
X15066258Y-14752276D01*
X15066996Y-14752813D01*
X15077956Y-14758397D01*
X15083855Y-14761403D01*
X15083856Y-14761403D01*
X15101850Y-14767250D01*
X15101850Y-14767250D01*
X15101851Y-14767250D01*
X15111195Y-14768730D01*
X15120539Y-14770210D01*
X15120539Y-14770210D01*
X15139461Y-14770210D01*
X15146936Y-14769026D01*
X15158149Y-14767250D01*
X15158150Y-14767250D01*
X15158150Y-14767250D01*
X15176144Y-14761403D01*
X15176144Y-14761403D01*
X15176145Y-14761403D01*
X15193004Y-14752813D01*
X15208311Y-14741691D01*
X15221691Y-14728311D01*
X15232813Y-14713004D01*
X15241403Y-14696145D01*
X15247250Y-14678149D01*
X15249470Y-14664133D01*
X15250210Y-14659461D01*
X15250210Y-14640539D01*
X15247250Y-14621851D01*
X15247250Y-14621850D01*
X15241403Y-14603856D01*
X15241403Y-14603855D01*
X15238420Y-14598001D01*
X15232813Y-14586996D01*
X15227569Y-14579779D01*
X15221691Y-14571689D01*
X15221691Y-14571689D01*
X15221691Y-14571688D01*
X15208311Y-14558309D01*
X15208311Y-14558309D01*
X15208311Y-14558309D01*
X15193004Y-14547187D01*
X15193003Y-14547187D01*
X15176145Y-14538597D01*
X15176144Y-14538597D01*
X15158150Y-14532750D01*
X15158149Y-14532750D01*
X15139461Y-14529790D01*
X15139461Y-14529790D01*
X15120539Y-14529790D01*
X15120539Y-14529790D01*
X15101851Y-14532750D01*
X15101850Y-14532750D01*
X15083856Y-14538597D01*
X15083855Y-14538597D01*
X15066996Y-14547187D01*
X15066996Y-14547187D01*
X15051689Y-14558309D01*
X15038309Y-14571689D01*
X15027187Y-14586996D01*
X15027187Y-14586996D01*
X15018597Y-14603855D01*
X15018597Y-14603856D01*
X15012750Y-14621850D01*
X15012750Y-14621851D01*
X15009790Y-14640539D01*
X13542428Y-14640539D01*
X13542550Y-14639486D01*
X13542550Y-14600514D01*
X13542258Y-14598001D01*
X13537721Y-14587723D01*
X13529776Y-14579779D01*
X13522959Y-14576769D01*
X13519048Y-14572673D01*
X13519179Y-14567011D01*
X13522959Y-14563230D01*
X13529776Y-14560221D01*
X13537721Y-14552276D01*
X13542258Y-14541999D01*
X13542550Y-14539486D01*
X13542550Y-14500514D01*
X13542258Y-14498001D01*
X13537721Y-14487723D01*
X13529776Y-14479779D01*
X13522959Y-14476769D01*
X13519048Y-14472673D01*
X13519179Y-14467011D01*
X13522959Y-14463230D01*
X13529776Y-14460221D01*
X13537721Y-14452276D01*
X13542258Y-14441999D01*
X13542550Y-14439486D01*
X13542550Y-14400514D01*
X13542258Y-14398001D01*
X13537721Y-14387723D01*
X13529776Y-14379779D01*
X13522959Y-14376769D01*
X13519048Y-14372673D01*
X13519179Y-14367011D01*
X13522959Y-14363230D01*
X13529776Y-14360221D01*
X13537721Y-14352276D01*
X13542258Y-14341999D01*
X13542550Y-14339486D01*
X13542550Y-14300514D01*
X13542258Y-14298001D01*
X13537721Y-14287723D01*
X13529776Y-14279779D01*
X13522959Y-14276769D01*
X13519048Y-14272673D01*
X13519179Y-14267011D01*
X13522959Y-14263230D01*
X13529776Y-14260221D01*
X13537721Y-14252276D01*
X13542258Y-14241999D01*
X13542550Y-14239486D01*
X13542550Y-14200514D01*
X13542258Y-14198001D01*
X13537721Y-14187723D01*
X13529776Y-14179779D01*
X13522959Y-14176769D01*
X13519048Y-14172673D01*
X13519179Y-14167011D01*
X13522959Y-14163230D01*
X13529776Y-14160221D01*
X13537721Y-14152276D01*
X13542258Y-14141999D01*
X13542550Y-14139486D01*
X13542550Y-14100514D01*
X13542258Y-14098001D01*
X13537721Y-14087723D01*
X13529776Y-14079779D01*
X13522959Y-14076769D01*
X13519048Y-14072673D01*
X13519179Y-14067011D01*
X13522959Y-14063230D01*
X13529776Y-14060221D01*
X13537721Y-14052276D01*
X13542258Y-14041999D01*
X13542550Y-14039486D01*
X13542550Y-14000514D01*
X13542258Y-13998001D01*
X13537721Y-13987723D01*
X13529776Y-13979779D01*
X13522959Y-13976769D01*
X13519048Y-13972673D01*
X13519179Y-13967011D01*
X13522959Y-13963230D01*
X13529776Y-13960221D01*
X13537721Y-13952276D01*
X13542258Y-13941999D01*
X13542550Y-13939486D01*
X13542550Y-13900514D01*
X13542550Y-13900513D01*
X14452450Y-13900513D01*
X14452450Y-13939486D01*
X14452741Y-13941999D01*
X14452741Y-13941999D01*
X14457279Y-13952276D01*
X14465223Y-13960221D01*
X14472040Y-13963230D01*
X14475952Y-13967327D01*
X14475821Y-13972989D01*
X14472040Y-13976769D01*
X14465223Y-13979779D01*
X14457279Y-13987723D01*
X14452741Y-13998001D01*
X14452450Y-14000513D01*
X14452450Y-14039486D01*
X14452741Y-14041999D01*
X14452741Y-14041999D01*
X14457279Y-14052276D01*
X14465223Y-14060221D01*
X14472040Y-14063230D01*
X14475952Y-14067327D01*
X14475821Y-14072989D01*
X14472040Y-14076769D01*
X14465223Y-14079779D01*
X14457279Y-14087723D01*
X14452741Y-14098001D01*
X14452450Y-14100513D01*
X14452450Y-14139486D01*
X14452741Y-14141999D01*
X14452741Y-14141999D01*
X14457279Y-14152276D01*
X14465223Y-14160221D01*
X14472040Y-14163230D01*
X14475952Y-14167327D01*
X14475821Y-14172989D01*
X14472040Y-14176769D01*
X14465223Y-14179779D01*
X14457279Y-14187723D01*
X14452741Y-14198001D01*
X14452450Y-14200513D01*
X14452450Y-14239486D01*
X14452741Y-14241999D01*
X14452741Y-14241999D01*
X14457279Y-14252276D01*
X14465223Y-14260221D01*
X14472040Y-14263230D01*
X14475952Y-14267327D01*
X14475821Y-14272989D01*
X14472040Y-14276769D01*
X14465223Y-14279779D01*
X14457279Y-14287723D01*
X14452741Y-14298001D01*
X14452450Y-14300513D01*
X14452450Y-14339486D01*
X14452741Y-14341999D01*
X14452741Y-14341999D01*
X14457279Y-14352276D01*
X14465223Y-14360221D01*
X14472040Y-14363230D01*
X14475952Y-14367327D01*
X14475821Y-14372989D01*
X14472040Y-14376769D01*
X14465223Y-14379779D01*
X14457279Y-14387723D01*
X14452741Y-14398001D01*
X14452450Y-14400513D01*
X14452450Y-14439486D01*
X14452741Y-14441999D01*
X14452741Y-14441999D01*
X14457279Y-14452276D01*
X14465223Y-14460221D01*
X14472040Y-14463230D01*
X14475952Y-14467327D01*
X14475821Y-14472989D01*
X14472040Y-14476769D01*
X14465223Y-14479779D01*
X14457279Y-14487723D01*
X14452741Y-14498001D01*
X14452450Y-14500513D01*
X14452450Y-14539486D01*
X14452741Y-14541999D01*
X14452741Y-14541999D01*
X14455032Y-14547187D01*
X14457279Y-14552276D01*
X14465223Y-14560221D01*
X14475501Y-14564758D01*
X14478013Y-14565050D01*
X14516986Y-14565050D01*
X14519499Y-14564758D01*
X14529776Y-14560221D01*
X14537721Y-14552276D01*
X14542258Y-14541999D01*
X14542550Y-14539486D01*
X14542550Y-14500514D01*
X14542258Y-14498001D01*
X14537721Y-14487723D01*
X14529776Y-14479779D01*
X14522959Y-14476769D01*
X14519048Y-14472673D01*
X14519179Y-14467011D01*
X14522959Y-14463230D01*
X14529776Y-14460221D01*
X14537721Y-14452276D01*
X14542258Y-14441999D01*
X14542550Y-14439486D01*
X14542550Y-14400514D01*
X14542258Y-14398001D01*
X14537721Y-14387723D01*
X14529776Y-14379779D01*
X14522959Y-14376769D01*
X14519048Y-14372673D01*
X14519179Y-14367011D01*
X14522959Y-14363230D01*
X14529776Y-14360221D01*
X14537721Y-14352276D01*
X14542258Y-14341999D01*
X14542550Y-14339486D01*
X14542550Y-14300514D01*
X14542258Y-14298001D01*
X14537721Y-14287723D01*
X14529776Y-14279779D01*
X14522959Y-14276769D01*
X14519048Y-14272673D01*
X14519179Y-14267011D01*
X14522959Y-14263230D01*
X14529776Y-14260221D01*
X14537721Y-14252276D01*
X14542258Y-14241999D01*
X14542550Y-14239486D01*
X14542550Y-14200514D01*
X14542258Y-14198001D01*
X14537721Y-14187723D01*
X14529776Y-14179779D01*
X14522959Y-14176769D01*
X14519048Y-14172673D01*
X14519179Y-14167011D01*
X14522959Y-14163230D01*
X14529776Y-14160221D01*
X14537721Y-14152276D01*
X14542258Y-14141999D01*
X14542550Y-14139486D01*
X14542550Y-14100514D01*
X14542258Y-14098001D01*
X14537721Y-14087723D01*
X14529776Y-14079779D01*
X14522959Y-14076769D01*
X14519048Y-14072673D01*
X14519179Y-14067011D01*
X14522959Y-14063230D01*
X14529776Y-14060221D01*
X14537721Y-14052276D01*
X14542258Y-14041999D01*
X14542550Y-14039486D01*
X14542550Y-14000514D01*
X14542258Y-13998001D01*
X14537721Y-13987723D01*
X14529776Y-13979779D01*
X14522959Y-13976769D01*
X14519048Y-13972673D01*
X14519179Y-13967011D01*
X14522959Y-13963230D01*
X14529776Y-13960221D01*
X14537721Y-13952276D01*
X14542258Y-13941999D01*
X14542550Y-13939486D01*
X14542550Y-13900514D01*
X14542258Y-13898001D01*
X14537721Y-13887723D01*
X14529776Y-13879779D01*
X14519499Y-13875241D01*
X14519499Y-13875241D01*
X14519499Y-13875241D01*
X14517366Y-13874994D01*
X14516986Y-13874950D01*
X14516986Y-13874950D01*
X14478014Y-13874950D01*
X14475501Y-13875241D01*
X14475501Y-13875241D01*
X14465223Y-13879779D01*
X14457279Y-13887723D01*
X14452741Y-13898001D01*
X14452450Y-13900513D01*
X13542550Y-13900513D01*
X13542258Y-13898001D01*
X13537721Y-13887723D01*
X13529776Y-13879779D01*
X13519499Y-13875241D01*
X13519499Y-13875241D01*
X13519499Y-13875241D01*
X13517366Y-13874994D01*
X13516986Y-13874950D01*
X13516986Y-13874950D01*
X13478014Y-13874950D01*
X13475501Y-13875241D01*
X13475501Y-13875241D01*
X13465223Y-13879779D01*
X13457279Y-13887723D01*
X13452741Y-13898001D01*
X13452450Y-13900513D01*
X12725050Y-13900513D01*
X12725050Y-13800513D01*
X13552450Y-13800513D01*
X13552450Y-13839486D01*
X13552741Y-13841999D01*
X13552741Y-13841999D01*
X13557279Y-13852276D01*
X13565223Y-13860221D01*
X13575501Y-13864758D01*
X13578013Y-13865050D01*
X13616986Y-13865050D01*
X13619499Y-13864758D01*
X13629776Y-13860221D01*
X13637721Y-13852276D01*
X13640730Y-13845459D01*
X13644827Y-13841548D01*
X13650489Y-13841679D01*
X13654269Y-13845459D01*
X13657279Y-13852276D01*
X13665223Y-13860221D01*
X13675501Y-13864758D01*
X13678013Y-13865050D01*
X13716986Y-13865050D01*
X13719499Y-13864758D01*
X13729776Y-13860221D01*
X13737721Y-13852276D01*
X13742258Y-13841999D01*
X13742550Y-13839486D01*
X13742550Y-13800514D01*
X13742258Y-13798001D01*
X13740090Y-13793091D01*
X13738580Y-13789671D01*
X13737950Y-13786682D01*
X13737950Y-13649742D01*
X13738202Y-13647827D01*
X13739254Y-13643901D01*
X13740050Y-13640931D01*
X13740050Y-13640931D01*
X13740050Y-13629069D01*
X13740050Y-13629069D01*
X13852450Y-13629069D01*
X13852450Y-13640931D01*
X13855520Y-13652388D01*
X13855520Y-13652389D01*
X13856058Y-13653321D01*
X13857050Y-13657021D01*
X13857050Y-13786682D01*
X13856419Y-13789671D01*
X13852741Y-13798001D01*
X13852450Y-13800513D01*
X13852450Y-13839486D01*
X13852741Y-13841999D01*
X13852741Y-13841999D01*
X13857279Y-13852276D01*
X13865223Y-13860221D01*
X13875501Y-13864758D01*
X13878013Y-13865050D01*
X13916986Y-13865050D01*
X13919499Y-13864758D01*
X13929776Y-13860221D01*
X13937721Y-13852276D01*
X13940730Y-13845459D01*
X13944827Y-13841548D01*
X13950489Y-13841679D01*
X13954269Y-13845459D01*
X13957279Y-13852276D01*
X13965223Y-13860221D01*
X13975501Y-13864758D01*
X13978013Y-13865050D01*
X14016986Y-13865050D01*
X14019499Y-13864758D01*
X14029776Y-13860221D01*
X14037721Y-13852276D01*
X14042258Y-13841999D01*
X14042550Y-13839486D01*
X14042550Y-13800514D01*
X14042258Y-13798001D01*
X14040090Y-13793091D01*
X14038580Y-13789671D01*
X14037950Y-13786682D01*
X14037950Y-13657021D01*
X14038942Y-13653321D01*
X14039480Y-13652389D01*
X14042550Y-13640931D01*
X14042550Y-13640931D01*
X14042550Y-13629069D01*
X14042550Y-13629069D01*
X14039480Y-13617612D01*
X14039480Y-13617611D01*
X14033549Y-13607339D01*
X14033549Y-13607339D01*
X14033549Y-13607339D01*
X14025161Y-13598951D01*
X14025161Y-13598951D01*
X14025161Y-13598951D01*
X14014889Y-13593020D01*
X14014888Y-13593020D01*
X14003431Y-13589950D01*
X14003431Y-13589950D01*
X13991569Y-13589950D01*
X13991569Y-13589950D01*
X13980112Y-13593020D01*
X13980111Y-13593020D01*
X13969839Y-13598951D01*
X13961451Y-13607339D01*
X13955520Y-13617611D01*
X13955520Y-13617612D01*
X13954648Y-13620867D01*
X13951200Y-13625360D01*
X13945585Y-13626099D01*
X13941091Y-13622651D01*
X13940352Y-13620867D01*
X13939480Y-13617612D01*
X13939480Y-13617611D01*
X13933549Y-13607339D01*
X13933549Y-13607339D01*
X13933549Y-13607339D01*
X13925161Y-13598951D01*
X13925161Y-13598951D01*
X13925161Y-13598951D01*
X13914889Y-13593020D01*
X13914888Y-13593020D01*
X13903431Y-13589950D01*
X13903431Y-13589950D01*
X13891569Y-13589950D01*
X13891569Y-13589950D01*
X13880112Y-13593020D01*
X13880111Y-13593020D01*
X13869839Y-13598951D01*
X13861451Y-13607339D01*
X13855520Y-13617611D01*
X13855520Y-13617612D01*
X13852450Y-13629069D01*
X13740050Y-13629069D01*
X13736980Y-13617612D01*
X13736980Y-13617611D01*
X13731049Y-13607339D01*
X13731049Y-13607339D01*
X13731049Y-13607339D01*
X13722661Y-13598951D01*
X13722661Y-13598951D01*
X13722661Y-13598951D01*
X13712389Y-13593020D01*
X13712388Y-13593020D01*
X13700931Y-13589950D01*
X13700931Y-13589950D01*
X13689069Y-13589950D01*
X13689069Y-13589950D01*
X13677612Y-13593020D01*
X13677611Y-13593020D01*
X13667339Y-13598951D01*
X13658951Y-13607339D01*
X13653020Y-13617611D01*
X13653020Y-13617612D01*
X13649950Y-13629069D01*
X13649950Y-13640931D01*
X13653020Y-13652388D01*
X13653020Y-13652389D01*
X13656058Y-13657651D01*
X13657050Y-13661351D01*
X13657050Y-13786682D01*
X13656419Y-13789671D01*
X13656419Y-13789671D01*
X13654269Y-13794540D01*
X13650173Y-13798452D01*
X13644511Y-13798321D01*
X13640730Y-13794540D01*
X13637721Y-13787723D01*
X13629776Y-13779779D01*
X13619499Y-13775241D01*
X13619499Y-13775241D01*
X13619499Y-13775241D01*
X13617366Y-13774994D01*
X13616986Y-13774950D01*
X13616986Y-13774950D01*
X13578014Y-13774950D01*
X13575501Y-13775241D01*
X13575501Y-13775241D01*
X13565223Y-13779779D01*
X13557279Y-13787723D01*
X13552741Y-13798001D01*
X13552450Y-13800513D01*
X12725050Y-13800513D01*
X12725050Y-13135025D01*
X13632950Y-13135025D01*
X13632950Y-13168975D01*
X13633332Y-13170893D01*
X13634113Y-13174823D01*
X13635256Y-13176533D01*
X13638545Y-13181455D01*
X13642262Y-13183939D01*
X13645177Y-13185887D01*
X13645177Y-13185887D01*
X13645177Y-13185887D01*
X13651025Y-13187050D01*
X13651025Y-13187050D01*
X13714975Y-13187050D01*
X13714975Y-13187050D01*
X13720823Y-13185887D01*
X13727455Y-13181455D01*
X13731887Y-13174823D01*
X13733050Y-13168975D01*
X13733050Y-13135025D01*
X13731887Y-13129177D01*
X13727455Y-13122545D01*
X13722522Y-13119248D01*
X13721322Y-13117453D01*
X13719796Y-13115926D01*
X13719796Y-13115169D01*
X13719375Y-13114539D01*
X13719797Y-13110263D01*
X13719912Y-13109984D01*
X13720878Y-13108313D01*
X13723767Y-13104547D01*
X13724405Y-13103820D01*
X13728922Y-13099303D01*
X13728922Y-13099302D01*
X13729458Y-13098767D01*
X13729641Y-13098691D01*
X13734690Y-13096600D01*
X13735437Y-13096600D01*
X13773182Y-13096600D01*
X13778415Y-13098767D01*
X13786198Y-13106551D01*
X13792627Y-13110263D01*
X13798426Y-13113611D01*
X13798751Y-13113798D01*
X13798752Y-13113798D01*
X13798752Y-13113798D01*
X13802279Y-13114744D01*
X13812752Y-13117550D01*
X13812752Y-13117550D01*
X13812752Y-13117550D01*
X13827248Y-13117550D01*
X13827248Y-13117550D01*
X13837441Y-13114818D01*
X13839013Y-13114397D01*
X13844628Y-13115137D01*
X13848076Y-13119630D01*
X13847337Y-13125245D01*
X13846161Y-13126778D01*
X13819410Y-13153529D01*
X13819410Y-13153529D01*
X13807781Y-13165158D01*
X13804008Y-13168932D01*
X13792434Y-13184861D01*
X13792434Y-13184862D01*
X13783495Y-13202406D01*
X13783495Y-13202406D01*
X13777410Y-13221132D01*
X13777410Y-13221133D01*
X13774330Y-13240581D01*
X13774330Y-13244171D01*
X13772163Y-13249404D01*
X13771041Y-13250324D01*
X13762219Y-13256219D01*
X13762219Y-13256219D01*
X13756461Y-13264836D01*
X13756461Y-13264836D01*
X13754950Y-13272435D01*
X13754950Y-13299565D01*
X13756461Y-13307164D01*
X13762219Y-13315781D01*
X13770836Y-13321538D01*
X13778435Y-13323050D01*
X13778435Y-13323050D01*
X13815565Y-13323050D01*
X13815565Y-13323050D01*
X13823164Y-13321538D01*
X13831781Y-13315781D01*
X13837538Y-13307164D01*
X13839050Y-13299565D01*
X13839050Y-13272435D01*
X13837538Y-13264836D01*
X13831781Y-13256219D01*
X13831093Y-13255759D01*
X13823448Y-13250651D01*
X13822866Y-13249780D01*
X13821932Y-13249304D01*
X13821349Y-13247510D01*
X13820302Y-13245942D01*
X13820182Y-13243918D01*
X13820606Y-13238530D01*
X13820788Y-13237384D01*
X13823438Y-13226346D01*
X13823796Y-13225244D01*
X13828140Y-13214755D01*
X13828667Y-13213722D01*
X13834599Y-13204042D01*
X13835279Y-13203105D01*
X13842842Y-13194251D01*
X13843235Y-13193825D01*
X13853120Y-13183940D01*
X13853121Y-13183939D01*
X13860053Y-13177007D01*
X13865285Y-13174840D01*
X13870518Y-13177007D01*
X13872685Y-13182239D01*
X13872543Y-13183683D01*
X13872450Y-13184152D01*
X13872450Y-13238348D01*
X13873686Y-13244561D01*
X13874573Y-13245889D01*
X13875678Y-13251444D01*
X13874573Y-13254111D01*
X13873686Y-13255439D01*
X13872450Y-13261652D01*
X13872450Y-13315848D01*
X13873686Y-13322061D01*
X13876759Y-13326661D01*
X13878393Y-13329106D01*
X13885439Y-13333814D01*
X13891652Y-13335050D01*
X13891652Y-13335050D01*
X13908348Y-13335050D01*
X13908348Y-13335050D01*
X13914561Y-13333814D01*
X13914561Y-13333814D01*
X13915234Y-13333535D01*
X13915359Y-13333837D01*
X13919727Y-13332968D01*
X13924436Y-13336113D01*
X13925542Y-13338782D01*
X13927436Y-13348306D01*
X13927437Y-13348306D01*
X13931707Y-13358616D01*
X13934560Y-13362885D01*
X13937907Y-13367895D01*
X13938373Y-13368361D01*
X13968801Y-13398789D01*
X13968801Y-13398789D01*
X14119026Y-13549014D01*
X14135227Y-13565215D01*
X14135227Y-13565215D01*
X14138106Y-13568094D01*
X14138501Y-13568521D01*
X14150789Y-13582909D01*
X14151472Y-13583849D01*
X14161206Y-13599733D01*
X14161733Y-13600768D01*
X14168863Y-13617980D01*
X14169221Y-13619085D01*
X14169260Y-13619247D01*
X14169316Y-13619478D01*
X14168429Y-13625072D01*
X14167353Y-13626437D01*
X14163951Y-13629839D01*
X14158020Y-13640111D01*
X14158020Y-13640112D01*
X14154950Y-13651569D01*
X14154950Y-13663431D01*
X14158020Y-13674888D01*
X14158020Y-13674889D01*
X14163951Y-13685161D01*
X14163951Y-13685161D01*
X14163951Y-13685161D01*
X14172339Y-13693549D01*
X14182611Y-13699480D01*
X14186735Y-13700585D01*
X14191228Y-13704033D01*
X14191968Y-13709648D01*
X14190807Y-13712082D01*
X14184379Y-13720930D01*
X14178641Y-13732190D01*
X14178641Y-13732190D01*
X14174737Y-13744208D01*
X14174736Y-13744209D01*
X14172760Y-13756690D01*
X14172760Y-13756690D01*
X14172760Y-13763009D01*
X14172759Y-13767372D01*
X14172760Y-13767372D01*
X14172760Y-13771630D01*
X14170592Y-13776863D01*
X14168349Y-13778399D01*
X14165224Y-13779779D01*
X14165224Y-13779779D01*
X14157279Y-13787723D01*
X14152741Y-13798001D01*
X14152450Y-13800513D01*
X14152450Y-13839486D01*
X14152741Y-13841999D01*
X14152741Y-13841999D01*
X14157279Y-13852276D01*
X14165223Y-13860221D01*
X14175501Y-13864758D01*
X14178013Y-13865050D01*
X14216986Y-13865050D01*
X14219499Y-13864758D01*
X14229776Y-13860221D01*
X14237721Y-13852276D01*
X14240730Y-13845459D01*
X14244827Y-13841548D01*
X14250489Y-13841679D01*
X14254269Y-13845459D01*
X14257279Y-13852276D01*
X14265223Y-13860221D01*
X14275501Y-13864758D01*
X14278013Y-13865050D01*
X14316986Y-13865050D01*
X14319499Y-13864758D01*
X14329776Y-13860221D01*
X14337721Y-13852276D01*
X14340730Y-13845459D01*
X14344827Y-13841548D01*
X14350489Y-13841679D01*
X14354269Y-13845459D01*
X14357279Y-13852276D01*
X14365223Y-13860221D01*
X14375501Y-13864758D01*
X14378013Y-13865050D01*
X14416986Y-13865050D01*
X14419499Y-13864758D01*
X14429776Y-13860221D01*
X14437721Y-13852276D01*
X14442258Y-13841999D01*
X14442550Y-13839486D01*
X14442550Y-13800514D01*
X14442258Y-13798001D01*
X14437721Y-13787723D01*
X14429776Y-13779779D01*
X14419499Y-13775241D01*
X14419499Y-13775241D01*
X14419499Y-13775241D01*
X14417366Y-13774994D01*
X14416986Y-13774950D01*
X14416986Y-13774950D01*
X14378014Y-13774950D01*
X14375501Y-13775241D01*
X14375501Y-13775241D01*
X14365223Y-13779779D01*
X14357279Y-13787723D01*
X14354269Y-13794540D01*
X14350173Y-13798452D01*
X14344511Y-13798321D01*
X14341225Y-13795474D01*
X14340944Y-13795025D01*
X14337721Y-13787723D01*
X14334142Y-13784145D01*
X14333696Y-13783431D01*
X14333356Y-13781406D01*
X14332571Y-13779508D01*
X14332858Y-13778434D01*
X14332760Y-13777845D01*
X14333170Y-13777269D01*
X14333562Y-13775808D01*
X14336980Y-13769889D01*
X14340050Y-13758431D01*
X14340050Y-13758431D01*
X14340050Y-13746569D01*
X14340050Y-13746569D01*
X14339417Y-13744209D01*
X14337513Y-13737101D01*
X14336980Y-13735112D01*
X14336980Y-13735111D01*
X14331049Y-13724839D01*
X14331049Y-13724839D01*
X14331049Y-13724839D01*
X14322661Y-13716451D01*
X14322661Y-13716451D01*
X14322661Y-13716451D01*
X14312389Y-13710520D01*
X14312388Y-13710520D01*
X14300931Y-13707450D01*
X14300931Y-13707450D01*
X14289069Y-13707450D01*
X14282918Y-13709098D01*
X14281927Y-13708967D01*
X14281003Y-13709350D01*
X14279218Y-13708611D01*
X14277303Y-13708359D01*
X14276694Y-13707565D01*
X14275770Y-13707183D01*
X14275031Y-13705398D01*
X14273855Y-13703865D01*
X14273986Y-13702874D01*
X14273603Y-13701950D01*
X14274342Y-13700165D01*
X14274594Y-13698250D01*
X14275770Y-13696718D01*
X14285065Y-13687423D01*
X14285066Y-13687423D01*
X14286106Y-13686382D01*
X14286106Y-13686382D01*
X14289191Y-13683297D01*
X14292175Y-13680313D01*
X14292671Y-13679818D01*
X14292671Y-13679817D01*
X14292686Y-13679794D01*
X14293344Y-13678563D01*
X14296864Y-13673296D01*
X14300094Y-13665498D01*
X14301472Y-13658569D01*
X14301740Y-13657921D01*
X14301740Y-13651394D01*
X14301740Y-13648638D01*
X14301740Y-13648637D01*
X14301740Y-13646362D01*
X14301740Y-13646362D01*
X14301740Y-13642000D01*
X14301740Y-13634353D01*
X14299348Y-13619247D01*
X14299347Y-13619246D01*
X14299347Y-13619246D01*
X14294622Y-13604701D01*
X14294622Y-13604701D01*
X14294622Y-13604701D01*
X14291025Y-13597642D01*
X14287678Y-13591073D01*
X14279382Y-13579655D01*
X14278688Y-13578700D01*
X14273281Y-13573293D01*
X14270196Y-13570208D01*
X14270196Y-13570208D01*
X14094120Y-13394131D01*
X14094120Y-13394131D01*
X14092154Y-13392166D01*
X14090251Y-13390263D01*
X14089763Y-13389725D01*
X14083980Y-13382677D01*
X14083174Y-13381471D01*
X14080131Y-13375779D01*
X14079048Y-13373752D01*
X14078493Y-13372413D01*
X14075952Y-13364037D01*
X14075670Y-13362616D01*
X14074776Y-13353541D01*
X14074740Y-13352816D01*
X14074740Y-13340457D01*
X14076908Y-13335225D01*
X14082140Y-13333057D01*
X14084972Y-13333621D01*
X14085439Y-13333814D01*
X14085439Y-13333814D01*
X14091652Y-13335050D01*
X14091652Y-13335050D01*
X14108348Y-13335050D01*
X14108348Y-13335050D01*
X14114561Y-13333814D01*
X14121606Y-13329106D01*
X14126314Y-13322061D01*
X14127550Y-13315848D01*
X14127550Y-13261652D01*
X14126314Y-13255439D01*
X14125427Y-13254111D01*
X14124322Y-13248556D01*
X14125427Y-13245889D01*
X14126314Y-13244561D01*
X14126314Y-13244561D01*
X14127550Y-13238348D01*
X14127550Y-13184152D01*
X14126314Y-13177939D01*
X14121606Y-13170893D01*
X14115693Y-13166942D01*
X14114561Y-13166186D01*
X14109396Y-13165158D01*
X14108348Y-13164950D01*
X14091652Y-13164950D01*
X14089700Y-13165338D01*
X14085439Y-13166186D01*
X14084972Y-13166379D01*
X14083500Y-13166379D01*
X14082140Y-13166942D01*
X14080780Y-13166379D01*
X14079308Y-13166379D01*
X14078267Y-13165338D01*
X14076908Y-13164775D01*
X14076344Y-13163415D01*
X14075303Y-13162374D01*
X14074740Y-13159542D01*
X14074740Y-13145376D01*
X14074740Y-13143349D01*
X14072660Y-13130214D01*
X14072660Y-13130214D01*
X14072660Y-13130213D01*
X14068551Y-13117567D01*
X14068550Y-13117566D01*
X14064741Y-13110090D01*
X14062513Y-13105717D01*
X14061505Y-13104329D01*
X14054696Y-13094958D01*
X14054696Y-13094958D01*
X14054696Y-13094958D01*
X14051908Y-13092169D01*
X14049740Y-13086937D01*
X14049740Y-12982976D01*
X14051908Y-12977743D01*
X14057140Y-12975576D01*
X14058584Y-12975718D01*
X14058701Y-12975742D01*
X14058701Y-12975742D01*
X14065279Y-12977050D01*
X14084721Y-12977050D01*
X14088406Y-12976317D01*
X14093961Y-12977422D01*
X14097108Y-12982131D01*
X14097160Y-12982423D01*
X14097250Y-12982995D01*
X14097250Y-12988653D01*
X14099141Y-12995711D01*
X14099296Y-12995979D01*
X14099460Y-12997018D01*
X14099384Y-12997334D01*
X14099550Y-12998170D01*
X14099550Y-13005325D01*
X14102306Y-13015613D01*
X14102307Y-13015613D01*
X14107632Y-13024836D01*
X14107632Y-13024837D01*
X14107632Y-13024837D01*
X14116071Y-13033276D01*
X14124168Y-13041373D01*
X14126336Y-13046606D01*
X14126084Y-13048521D01*
X14124950Y-13052752D01*
X14124950Y-13067248D01*
X14128701Y-13081248D01*
X14128702Y-13081249D01*
X14133902Y-13090255D01*
X14135949Y-13093801D01*
X14146198Y-13104051D01*
X14158751Y-13111298D01*
X14158752Y-13111298D01*
X14158752Y-13111298D01*
X14163897Y-13112677D01*
X14172752Y-13115050D01*
X14172752Y-13115050D01*
X14172752Y-13115050D01*
X14187248Y-13115050D01*
X14187248Y-13115050D01*
X14201248Y-13111298D01*
X14204811Y-13109242D01*
X14205683Y-13109127D01*
X14206364Y-13108569D01*
X14208398Y-13108769D01*
X14210426Y-13108502D01*
X14211999Y-13109124D01*
X14212319Y-13109295D01*
X14213523Y-13110100D01*
X14220892Y-13116148D01*
X14221430Y-13116635D01*
X14233972Y-13129177D01*
X14245369Y-13140574D01*
X14247394Y-13144363D01*
X14247990Y-13147359D01*
X14249266Y-13149268D01*
X14250477Y-13151080D01*
X14251724Y-13155192D01*
X14251724Y-13191411D01*
X14251559Y-13192661D01*
X14251584Y-13192664D01*
X14251520Y-13193145D01*
X14251520Y-13203796D01*
X14254277Y-13214083D01*
X14254277Y-13214084D01*
X14259602Y-13223307D01*
X14259602Y-13223307D01*
X14265471Y-13229176D01*
X14267386Y-13232493D01*
X14268533Y-13236775D01*
X14274225Y-13242467D01*
X14275663Y-13242852D01*
X14280157Y-13246300D01*
X14280896Y-13251915D01*
X14277448Y-13256409D01*
X14275663Y-13257148D01*
X14274225Y-13257533D01*
X14268533Y-13263225D01*
X14266450Y-13271000D01*
X14266450Y-13276365D01*
X14265203Y-13280476D01*
X14258361Y-13290716D01*
X14253088Y-13303445D01*
X14253088Y-13303446D01*
X14250621Y-13315848D01*
X14250400Y-13316960D01*
X14250400Y-13323849D01*
X14250400Y-13329250D01*
X14250400Y-13329250D01*
X14250400Y-13349290D01*
X14249153Y-13353401D01*
X14247990Y-13355141D01*
X14247990Y-13355141D01*
X14246450Y-13362885D01*
X14246450Y-13397114D01*
X14247990Y-13404859D01*
X14248266Y-13405271D01*
X14249371Y-13410826D01*
X14248521Y-13413082D01*
X14243020Y-13422611D01*
X14243020Y-13422612D01*
X14239950Y-13434069D01*
X14239950Y-13445931D01*
X14243020Y-13457388D01*
X14243020Y-13457389D01*
X14248951Y-13467661D01*
X14248951Y-13467661D01*
X14248951Y-13467661D01*
X14257339Y-13476049D01*
X14267611Y-13481980D01*
X14267611Y-13481980D01*
X14267612Y-13481980D01*
X14273340Y-13483515D01*
X14279069Y-13485050D01*
X14279069Y-13485050D01*
X14279069Y-13485050D01*
X14290931Y-13485050D01*
X14290931Y-13485050D01*
X14302389Y-13481980D01*
X14312661Y-13476049D01*
X14321049Y-13467661D01*
X14326980Y-13457389D01*
X14330050Y-13445931D01*
X14330050Y-13445931D01*
X14330050Y-13434069D01*
X14330050Y-13434069D01*
X14326980Y-13422612D01*
X14326980Y-13422611D01*
X14321015Y-13412280D01*
X14320275Y-13406664D01*
X14320779Y-13405553D01*
X14320731Y-13405533D01*
X14321009Y-13404859D01*
X14321009Y-13404859D01*
X14321009Y-13404859D01*
X14322550Y-13397115D01*
X14322550Y-13362885D01*
X14322209Y-13361173D01*
X14321010Y-13355141D01*
X14319847Y-13353401D01*
X14318600Y-13349290D01*
X14318600Y-13326190D01*
X14320708Y-13321017D01*
X14320737Y-13320988D01*
X14322931Y-13318793D01*
X14322985Y-13318687D01*
X14323452Y-13318210D01*
X14325596Y-13317293D01*
X14327584Y-13316074D01*
X14328137Y-13316206D01*
X14328660Y-13315983D01*
X14330824Y-13316851D01*
X14333092Y-13317395D01*
X14333899Y-13318083D01*
X14333917Y-13318091D01*
X14333922Y-13318103D01*
X14333977Y-13318150D01*
X14339250Y-13323423D01*
X14347000Y-13325500D01*
X14347000Y-13325500D01*
X14373000Y-13325500D01*
X14373000Y-13325500D01*
X14380750Y-13323423D01*
X14386423Y-13317750D01*
X14388500Y-13310000D01*
X14388500Y-13310000D01*
X14388500Y-13271000D01*
X14388500Y-13271000D01*
X14386423Y-13263250D01*
X14380750Y-13257576D01*
X14379243Y-13257173D01*
X14374750Y-13253725D01*
X14374011Y-13248109D01*
X14377459Y-13243616D01*
X14379243Y-13242877D01*
X14380775Y-13242467D01*
X14386467Y-13236775D01*
X14388550Y-13229000D01*
X14388550Y-13229000D01*
X14388550Y-13190000D01*
X14388550Y-13190000D01*
X14387759Y-13187050D01*
X14386467Y-13182225D01*
X14380775Y-13176533D01*
X14380775Y-13176533D01*
X14380285Y-13176250D01*
X14377442Y-13173008D01*
X14377347Y-13173059D01*
X14377176Y-13172739D01*
X14371892Y-13164832D01*
X14371892Y-13164832D01*
X14368530Y-13161470D01*
X14365342Y-13158281D01*
X14365168Y-13158108D01*
X14357261Y-13152824D01*
X14357260Y-13152824D01*
X14357260Y-13152824D01*
X14357260Y-13152824D01*
X14348476Y-13149185D01*
X14348475Y-13149185D01*
X14340286Y-13147556D01*
X14339148Y-13147330D01*
X14339148Y-13147330D01*
X14338792Y-13147259D01*
X14338825Y-13147092D01*
X14337096Y-13146168D01*
X14334791Y-13145213D01*
X14334643Y-13144855D01*
X14334302Y-13144673D01*
X14332624Y-13139980D01*
X14332624Y-13139069D01*
X14332640Y-13138585D01*
X14332641Y-13138573D01*
X14332823Y-13135780D01*
X14332591Y-13134612D01*
X14332451Y-13133346D01*
X14332446Y-13133145D01*
X14332422Y-13132155D01*
X14331524Y-13129099D01*
X14331366Y-13128457D01*
X14331085Y-13127044D01*
X14331006Y-13126569D01*
X14330515Y-13122840D01*
X14330001Y-13121600D01*
X14329740Y-13120285D01*
X14327970Y-13116697D01*
X14327106Y-13114611D01*
X14326936Y-13114159D01*
X14325965Y-13111298D01*
X14325728Y-13110600D01*
X14325386Y-13110089D01*
X14325215Y-13109822D01*
X14324920Y-13109336D01*
X14324468Y-13108244D01*
X14323452Y-13106920D01*
X14323244Y-13106577D01*
X14323164Y-13106064D01*
X14322310Y-13104178D01*
X14321009Y-13097641D01*
X14315141Y-13088858D01*
X14306359Y-13082990D01*
X14303363Y-13082394D01*
X14299574Y-13080369D01*
X14294255Y-13075050D01*
X14274613Y-13055408D01*
X14274613Y-13055408D01*
X14272117Y-13052912D01*
X14268102Y-13049831D01*
X14258067Y-13042131D01*
X14258066Y-13042130D01*
X14242730Y-13033276D01*
X14242729Y-13033276D01*
X14226367Y-13026498D01*
X14226367Y-13026498D01*
X14226367Y-13026498D01*
X14225528Y-13026273D01*
X14222378Y-13024520D01*
X14222292Y-13024440D01*
X14213801Y-13015949D01*
X14212372Y-13015123D01*
X14211747Y-13014537D01*
X14211724Y-13014486D01*
X14211581Y-13014376D01*
X14185781Y-12988576D01*
X14183613Y-12983343D01*
X14185781Y-12978111D01*
X14189570Y-12976085D01*
X14191299Y-12975742D01*
X14195889Y-12972674D01*
X14201444Y-12971570D01*
X14204111Y-12972674D01*
X14208701Y-12975742D01*
X14215279Y-12977050D01*
X14234721Y-12977050D01*
X14241299Y-12975742D01*
X14248758Y-12970758D01*
X14253742Y-12963299D01*
X14255050Y-12956721D01*
X14255050Y-12817279D01*
X14255050Y-12817279D01*
X14255050Y-12817278D01*
X14253742Y-12810702D01*
X14248758Y-12803242D01*
X14248758Y-12803242D01*
X14241298Y-12798258D01*
X14236029Y-12797210D01*
X14234721Y-12796950D01*
X14234721Y-12796950D01*
X14215279Y-12796950D01*
X14208701Y-12798258D01*
X14204111Y-12801325D01*
X14198556Y-12802430D01*
X14195889Y-12801325D01*
X14191299Y-12798258D01*
X14188010Y-12797604D01*
X14184721Y-12796950D01*
X14184721Y-12796950D01*
X14165279Y-12796950D01*
X14158701Y-12798258D01*
X14154111Y-12801325D01*
X14148556Y-12802430D01*
X14145889Y-12801325D01*
X14141299Y-12798258D01*
X14138010Y-12797604D01*
X14134721Y-12796950D01*
X14134721Y-12796950D01*
X14115279Y-12796950D01*
X14108701Y-12798258D01*
X14104111Y-12801325D01*
X14098556Y-12802430D01*
X14095889Y-12801325D01*
X14091299Y-12798258D01*
X14088010Y-12797604D01*
X14084721Y-12796950D01*
X14084721Y-12796950D01*
X14065279Y-12796950D01*
X14058701Y-12798258D01*
X14054111Y-12801325D01*
X14048556Y-12802430D01*
X14045889Y-12801325D01*
X14041299Y-12798258D01*
X14038010Y-12797604D01*
X14034721Y-12796950D01*
X14034721Y-12796950D01*
X14015279Y-12796950D01*
X14008701Y-12798258D01*
X14004111Y-12801325D01*
X13998556Y-12802430D01*
X13995889Y-12801325D01*
X13991299Y-12798258D01*
X13988010Y-12797604D01*
X13984721Y-12796950D01*
X13984721Y-12796950D01*
X13965279Y-12796950D01*
X13958701Y-12798258D01*
X13954111Y-12801325D01*
X13948556Y-12802430D01*
X13945889Y-12801325D01*
X13941299Y-12798258D01*
X13938010Y-12797604D01*
X13934721Y-12796950D01*
X13934721Y-12796950D01*
X13915279Y-12796950D01*
X13908701Y-12798258D01*
X13904111Y-12801325D01*
X13898556Y-12802430D01*
X13895889Y-12801325D01*
X13891299Y-12798258D01*
X13888010Y-12797604D01*
X13884721Y-12796950D01*
X13884721Y-12796950D01*
X13865279Y-12796950D01*
X13858701Y-12798258D01*
X13854111Y-12801325D01*
X13848556Y-12802430D01*
X13845889Y-12801325D01*
X13841299Y-12798258D01*
X13838010Y-12797604D01*
X13834721Y-12796950D01*
X13834721Y-12796950D01*
X13815279Y-12796950D01*
X13808701Y-12798258D01*
X13804111Y-12801325D01*
X13798556Y-12802430D01*
X13795889Y-12801325D01*
X13791299Y-12798258D01*
X13788010Y-12797604D01*
X13784721Y-12796950D01*
X13784721Y-12796950D01*
X13765279Y-12796950D01*
X13758701Y-12798258D01*
X13751242Y-12803242D01*
X13751242Y-12803242D01*
X13746258Y-12810701D01*
X13744950Y-12817279D01*
X13744950Y-12956721D01*
X13746258Y-12963298D01*
X13750000Y-12968898D01*
X13751242Y-12970758D01*
X13758701Y-12975742D01*
X13765279Y-12977050D01*
X13784721Y-12977050D01*
X13791299Y-12975742D01*
X13795889Y-12972674D01*
X13801444Y-12971570D01*
X13803010Y-12972067D01*
X13803586Y-12972324D01*
X13808701Y-12975742D01*
X13813327Y-12976662D01*
X13814082Y-12976998D01*
X13815505Y-12978498D01*
X13817224Y-12979647D01*
X13817391Y-12980486D01*
X13817980Y-12981107D01*
X13817926Y-12983174D01*
X13818329Y-12985202D01*
X13817849Y-12986100D01*
X13817832Y-12986769D01*
X13817142Y-12987422D01*
X13816304Y-12988991D01*
X13795163Y-13010132D01*
X13795163Y-13010132D01*
X13788419Y-13016876D01*
X13786887Y-13018051D01*
X13786198Y-13018449D01*
X13778415Y-13026233D01*
X13773182Y-13028400D01*
X13735436Y-13028400D01*
X13730035Y-13028400D01*
X13723696Y-13028400D01*
X13720171Y-13029101D01*
X13711262Y-13030873D01*
X13711261Y-13030874D01*
X13699548Y-13035725D01*
X13699548Y-13035725D01*
X13689006Y-13042769D01*
X13689006Y-13042769D01*
X13687902Y-13043873D01*
X13687698Y-13044077D01*
X13687698Y-13044077D01*
X13685062Y-13046713D01*
X13685062Y-13046713D01*
X13682804Y-13048971D01*
X13678713Y-13053062D01*
X13678713Y-13053062D01*
X13676523Y-13055252D01*
X13670719Y-13061056D01*
X13662210Y-13072767D01*
X13662210Y-13072768D01*
X13655638Y-13085666D01*
X13655638Y-13085667D01*
X13651165Y-13099433D01*
X13651164Y-13099434D01*
X13649067Y-13112677D01*
X13646108Y-13117506D01*
X13645773Y-13117694D01*
X13645783Y-13117708D01*
X13638545Y-13122545D01*
X13638545Y-13122545D01*
X13634113Y-13129177D01*
X13633907Y-13130213D01*
X13632950Y-13135025D01*
X12725050Y-13135025D01*
X12725050Y-13082450D01*
X12727217Y-13077217D01*
X12732450Y-13075050D01*
X12776202Y-13075050D01*
X12776203Y-13075050D01*
X12788297Y-13072289D01*
X12799474Y-13066907D01*
X12809172Y-13059172D01*
X12816907Y-13049474D01*
X12822289Y-13038297D01*
X12825050Y-13026203D01*
X12825050Y-13020000D01*
X12825050Y-13015583D01*
X12825050Y-12732450D01*
X12827217Y-12727217D01*
X12832450Y-12725050D01*
X12834417Y-12725050D01*
X13364873Y-12725050D01*
X13364873Y-12725050D01*
G37*
%TD.AperFunction*%
%TD*%
M02*
