%TF.GenerationSoftware,KiCad,Pcbnew,10.0.1-10.0.1~ubuntu25.10.1*%
%TF.CreationDate,2026-04-27T21:14:21-04:00*%
%TF.ProjectId,Day_01_Wi-Fi-Halow,4461795f-3031-45f5-9769-2d46692d4861,X1*%
%TF.SameCoordinates,Original*%
%TF.FileFunction,Legend,Top*%
%TF.FilePolarity,Positive*%
%FSLAX45Y45*%
G04 Gerber Fmt 4.5, Leading zero omitted, Abs format (unit mm)*
G04 Created by KiCad (PCBNEW 10.0.1-10.0.1~ubuntu25.10.1) date 2026-04-27 21:14:21*
%MOMM*%
%LPD*%
G01*
G04 APERTURE LIST*
G04 Aperture macros list*
%AMRoundRect*
0 Rectangle with rounded corners*
0 $1 Rounding radius*
0 $2 $3 $4 $5 $6 $7 $8 $9 X,Y pos of 4 corners*
0 Add a 4 corners polygon primitive as box body*
4,1,4,$2,$3,$4,$5,$6,$7,$8,$9,$2,$3,0*
0 Add four circle primitives for the rounded corners*
1,1,$1+$1,$2,$3*
1,1,$1+$1,$4,$5*
1,1,$1+$1,$6,$7*
1,1,$1+$1,$8,$9*
0 Add four rect primitives between the rounded corners*
20,1,$1+$1,$2,$3,$4,$5,0*
20,1,$1+$1,$4,$5,$6,$7,0*
20,1,$1+$1,$6,$7,$8,$9,0*
20,1,$1+$1,$8,$9,$2,$3,0*%
%AMRotRect*
0 Rectangle, with rotation*
0 The origin of the aperture is its center*
0 $1 length*
0 $2 width*
0 $3 Rotation angle, in degrees counterclockwise*
0 Add horizontal line*
21,1,$1,$2,0,0,$3*%
%AMFreePoly0*
4,1,6,0.130000,0.115000,0.130000,-0.115000,-0.130000,-0.115000,-0.130000,0.275000,-0.020000,0.275000,0.130000,0.115000,0.130000,0.115000,$1*%
%AMFreePoly1*
4,1,6,0.130000,-0.115000,-0.130000,-0.115000,-0.130000,0.115000,0.020000,0.275000,0.130000,0.275000,0.130000,-0.115000,0.130000,-0.115000,$1*%
G04 Aperture macros list end*
%ADD10C,0.200000*%
%ADD11C,0.120000*%
%ADD12C,0.000000*%
%ADD13C,2.200000*%
%ADD14RoundRect,0.115000X-0.115000X-0.145000X0.115000X-0.145000X0.115000X0.145000X-0.115000X0.145000X0*%
%ADD15RoundRect,0.115000X0.115000X0.145000X-0.115000X0.145000X-0.115000X-0.145000X0.115000X-0.145000X0*%
%ADD16RoundRect,0.110000X-0.190919X-0.035355X-0.035355X-0.190919X0.190919X0.035355X0.035355X0.190919X0*%
%ADD17RoundRect,0.062500X-0.062500X0.250000X-0.062500X-0.250000X0.062500X-0.250000X0.062500X0.250000X0*%
%ADD18RoundRect,0.112500X-0.112500X0.237500X-0.112500X-0.237500X0.112500X-0.237500X0.112500X0.237500X0*%
%ADD19RoundRect,0.112500X-0.112500X0.175000X-0.112500X-0.175000X0.112500X-0.175000X0.112500X0.175000X0*%
%ADD20RoundRect,0.110000X-0.160000X0.110000X-0.160000X-0.110000X0.160000X-0.110000X0.160000X0.110000X0*%
%ADD21FreePoly0,0.000000*%
%ADD22FreePoly1,0.000000*%
%ADD23FreePoly0,180.000000*%
%ADD24FreePoly1,180.000000*%
%ADD25RotRect,0.520000X0.520000X225.000000*%
%ADD26RoundRect,0.075000X-0.075000X-0.675000X0.075000X-0.675000X0.075000X0.675000X-0.075000X0.675000X0*%
%ADD27RoundRect,0.075000X-0.075000X-0.825000X0.075000X-0.825000X0.075000X0.825000X-0.075000X0.825000X0*%
%ADD28RoundRect,0.110000X-0.110000X-0.160000X0.110000X-0.160000X0.110000X0.160000X-0.110000X0.160000X0*%
%ADD29RoundRect,0.050000X-0.300000X0.150000X-0.300000X-0.150000X0.300000X-0.150000X0.300000X0.150000X0*%
%ADD30RoundRect,0.299213X-0.460787X-1.730787X0.460787X-1.730787X0.460787X1.730787X-0.460787X1.730787X0*%
%ADD31RoundRect,0.281481X-0.478519X-1.748519X0.478519X-1.748519X0.478519X1.748519X-0.478519X1.748519X0*%
%ADD32RoundRect,0.150000X0.150000X0.150000X-0.150000X0.150000X-0.150000X-0.150000X0.150000X-0.150000X0*%
%ADD33RoundRect,0.110000X-0.035355X0.190919X-0.190919X0.035355X0.035355X-0.190919X0.190919X-0.035355X0*%
G04 APERTURE END LIST*
D10*
X15070333Y-12808872D02*
X15070333Y-12782205D01*
X15028428Y-12782205D02*
X15108428Y-12782205D01*
X15108428Y-12782205D02*
X15108428Y-12820301D01*
X15028428Y-12850777D02*
X15081761Y-12850777D01*
X15066523Y-12850777D02*
X15074142Y-12854586D01*
X15074142Y-12854586D02*
X15077952Y-12858396D01*
X15077952Y-12858396D02*
X15081761Y-12866015D01*
X15081761Y-12866015D02*
X15081761Y-12873634D01*
X15028428Y-12934586D02*
X15070333Y-12934586D01*
X15070333Y-12934586D02*
X15077952Y-12930777D01*
X15077952Y-12930777D02*
X15081761Y-12923158D01*
X15081761Y-12923158D02*
X15081761Y-12907920D01*
X15081761Y-12907920D02*
X15077952Y-12900301D01*
X15032238Y-12934586D02*
X15028428Y-12926967D01*
X15028428Y-12926967D02*
X15028428Y-12907920D01*
X15028428Y-12907920D02*
X15032238Y-12900301D01*
X15032238Y-12900301D02*
X15039857Y-12896491D01*
X15039857Y-12896491D02*
X15047476Y-12896491D01*
X15047476Y-12896491D02*
X15055095Y-12900301D01*
X15055095Y-12900301D02*
X15058904Y-12907920D01*
X15058904Y-12907920D02*
X15058904Y-12926967D01*
X15058904Y-12926967D02*
X15062714Y-12934586D01*
X15028428Y-12972682D02*
X15081761Y-12972682D01*
X15074142Y-12972682D02*
X15077952Y-12976491D01*
X15077952Y-12976491D02*
X15081761Y-12984110D01*
X15081761Y-12984110D02*
X15081761Y-12995539D01*
X15081761Y-12995539D02*
X15077952Y-13003158D01*
X15077952Y-13003158D02*
X15070333Y-13006967D01*
X15070333Y-13006967D02*
X15028428Y-13006967D01*
X15070333Y-13006967D02*
X15077952Y-13010777D01*
X15077952Y-13010777D02*
X15081761Y-13018396D01*
X15081761Y-13018396D02*
X15081761Y-13029824D01*
X15081761Y-13029824D02*
X15077952Y-13037443D01*
X15077952Y-13037443D02*
X15070333Y-13041253D01*
X15070333Y-13041253D02*
X15028428Y-13041253D01*
X15032238Y-13109824D02*
X15028428Y-13102205D01*
X15028428Y-13102205D02*
X15028428Y-13086967D01*
X15028428Y-13086967D02*
X15032238Y-13079348D01*
X15032238Y-13079348D02*
X15039857Y-13075539D01*
X15039857Y-13075539D02*
X15070333Y-13075539D01*
X15070333Y-13075539D02*
X15077952Y-13079348D01*
X15077952Y-13079348D02*
X15081761Y-13086967D01*
X15081761Y-13086967D02*
X15081761Y-13102205D01*
X15081761Y-13102205D02*
X15077952Y-13109824D01*
X15077952Y-13109824D02*
X15070333Y-13113634D01*
X15070333Y-13113634D02*
X15062714Y-13113634D01*
X15062714Y-13113634D02*
X15055095Y-13075539D01*
X15081761Y-13140301D02*
X15028428Y-13155539D01*
X15028428Y-13155539D02*
X15066523Y-13170777D01*
X15066523Y-13170777D02*
X15028428Y-13186015D01*
X15028428Y-13186015D02*
X15081761Y-13201253D01*
X15028428Y-13243158D02*
X15032238Y-13235539D01*
X15032238Y-13235539D02*
X15036047Y-13231729D01*
X15036047Y-13231729D02*
X15043666Y-13227920D01*
X15043666Y-13227920D02*
X15066523Y-13227920D01*
X15066523Y-13227920D02*
X15074142Y-13231729D01*
X15074142Y-13231729D02*
X15077952Y-13235539D01*
X15077952Y-13235539D02*
X15081761Y-13243158D01*
X15081761Y-13243158D02*
X15081761Y-13254586D01*
X15081761Y-13254586D02*
X15077952Y-13262205D01*
X15077952Y-13262205D02*
X15074142Y-13266015D01*
X15074142Y-13266015D02*
X15066523Y-13269824D01*
X15066523Y-13269824D02*
X15043666Y-13269824D01*
X15043666Y-13269824D02*
X15036047Y-13266015D01*
X15036047Y-13266015D02*
X15032238Y-13262205D01*
X15032238Y-13262205D02*
X15028428Y-13254586D01*
X15028428Y-13254586D02*
X15028428Y-13243158D01*
X15028428Y-13304110D02*
X15081761Y-13304110D01*
X15066523Y-13304110D02*
X15074142Y-13307920D01*
X15074142Y-13307920D02*
X15077952Y-13311729D01*
X15077952Y-13311729D02*
X15081761Y-13319348D01*
X15081761Y-13319348D02*
X15081761Y-13326967D01*
X15028428Y-13353634D02*
X15108428Y-13353634D01*
X15058904Y-13361253D02*
X15028428Y-13384110D01*
X15081761Y-13384110D02*
X15051285Y-13353634D01*
X15070333Y-13479348D02*
X15070333Y-13506015D01*
X15028428Y-13517443D02*
X15028428Y-13479348D01*
X15028428Y-13479348D02*
X15108428Y-13479348D01*
X15108428Y-13479348D02*
X15108428Y-13517443D01*
X15028428Y-13544110D02*
X15081761Y-13586015D01*
X15081761Y-13544110D02*
X15028428Y-13586015D01*
X15081761Y-13616491D02*
X15001761Y-13616491D01*
X15077952Y-13616491D02*
X15081761Y-13624110D01*
X15081761Y-13624110D02*
X15081761Y-13639348D01*
X15081761Y-13639348D02*
X15077952Y-13646967D01*
X15077952Y-13646967D02*
X15074142Y-13650777D01*
X15074142Y-13650777D02*
X15066523Y-13654586D01*
X15066523Y-13654586D02*
X15043666Y-13654586D01*
X15043666Y-13654586D02*
X15036047Y-13650777D01*
X15036047Y-13650777D02*
X15032238Y-13646967D01*
X15032238Y-13646967D02*
X15028428Y-13639348D01*
X15028428Y-13639348D02*
X15028428Y-13624110D01*
X15028428Y-13624110D02*
X15032238Y-13616491D01*
X15028428Y-13723158D02*
X15070333Y-13723158D01*
X15070333Y-13723158D02*
X15077952Y-13719348D01*
X15077952Y-13719348D02*
X15081761Y-13711729D01*
X15081761Y-13711729D02*
X15081761Y-13696491D01*
X15081761Y-13696491D02*
X15077952Y-13688872D01*
X15032238Y-13723158D02*
X15028428Y-13715539D01*
X15028428Y-13715539D02*
X15028428Y-13696491D01*
X15028428Y-13696491D02*
X15032238Y-13688872D01*
X15032238Y-13688872D02*
X15039857Y-13685063D01*
X15039857Y-13685063D02*
X15047476Y-13685063D01*
X15047476Y-13685063D02*
X15055095Y-13688872D01*
X15055095Y-13688872D02*
X15058904Y-13696491D01*
X15058904Y-13696491D02*
X15058904Y-13715539D01*
X15058904Y-13715539D02*
X15062714Y-13723158D01*
X15081761Y-13761253D02*
X15028428Y-13761253D01*
X15074142Y-13761253D02*
X15077952Y-13765063D01*
X15077952Y-13765063D02*
X15081761Y-13772682D01*
X15081761Y-13772682D02*
X15081761Y-13784110D01*
X15081761Y-13784110D02*
X15077952Y-13791729D01*
X15077952Y-13791729D02*
X15070333Y-13795539D01*
X15070333Y-13795539D02*
X15028428Y-13795539D01*
X15032238Y-13829825D02*
X15028428Y-13837444D01*
X15028428Y-13837444D02*
X15028428Y-13852682D01*
X15028428Y-13852682D02*
X15032238Y-13860301D01*
X15032238Y-13860301D02*
X15039857Y-13864110D01*
X15039857Y-13864110D02*
X15043666Y-13864110D01*
X15043666Y-13864110D02*
X15051285Y-13860301D01*
X15051285Y-13860301D02*
X15055095Y-13852682D01*
X15055095Y-13852682D02*
X15055095Y-13841253D01*
X15055095Y-13841253D02*
X15058904Y-13833634D01*
X15058904Y-13833634D02*
X15066523Y-13829825D01*
X15066523Y-13829825D02*
X15070333Y-13829825D01*
X15070333Y-13829825D02*
X15077952Y-13833634D01*
X15077952Y-13833634D02*
X15081761Y-13841253D01*
X15081761Y-13841253D02*
X15081761Y-13852682D01*
X15081761Y-13852682D02*
X15077952Y-13860301D01*
X15028428Y-13898396D02*
X15081761Y-13898396D01*
X15108428Y-13898396D02*
X15104619Y-13894586D01*
X15104619Y-13894586D02*
X15100809Y-13898396D01*
X15100809Y-13898396D02*
X15104619Y-13902206D01*
X15104619Y-13902206D02*
X15108428Y-13898396D01*
X15108428Y-13898396D02*
X15100809Y-13898396D01*
X15028428Y-13947920D02*
X15032238Y-13940301D01*
X15032238Y-13940301D02*
X15036047Y-13936491D01*
X15036047Y-13936491D02*
X15043666Y-13932682D01*
X15043666Y-13932682D02*
X15066523Y-13932682D01*
X15066523Y-13932682D02*
X15074142Y-13936491D01*
X15074142Y-13936491D02*
X15077952Y-13940301D01*
X15077952Y-13940301D02*
X15081761Y-13947920D01*
X15081761Y-13947920D02*
X15081761Y-13959348D01*
X15081761Y-13959348D02*
X15077952Y-13966967D01*
X15077952Y-13966967D02*
X15074142Y-13970777D01*
X15074142Y-13970777D02*
X15066523Y-13974586D01*
X15066523Y-13974586D02*
X15043666Y-13974586D01*
X15043666Y-13974586D02*
X15036047Y-13970777D01*
X15036047Y-13970777D02*
X15032238Y-13966967D01*
X15032238Y-13966967D02*
X15028428Y-13959348D01*
X15028428Y-13959348D02*
X15028428Y-13947920D01*
X15081761Y-14008872D02*
X15028428Y-14008872D01*
X15074142Y-14008872D02*
X15077952Y-14012682D01*
X15077952Y-14012682D02*
X15081761Y-14020301D01*
X15081761Y-14020301D02*
X15081761Y-14031729D01*
X15081761Y-14031729D02*
X15077952Y-14039348D01*
X15077952Y-14039348D02*
X15070333Y-14043158D01*
X15070333Y-14043158D02*
X15028428Y-14043158D01*
X15036047Y-14187920D02*
X15032238Y-14184110D01*
X15032238Y-14184110D02*
X15028428Y-14172682D01*
X15028428Y-14172682D02*
X15028428Y-14165063D01*
X15028428Y-14165063D02*
X15032238Y-14153634D01*
X15032238Y-14153634D02*
X15039857Y-14146015D01*
X15039857Y-14146015D02*
X15047476Y-14142206D01*
X15047476Y-14142206D02*
X15062714Y-14138396D01*
X15062714Y-14138396D02*
X15074142Y-14138396D01*
X15074142Y-14138396D02*
X15089380Y-14142206D01*
X15089380Y-14142206D02*
X15097000Y-14146015D01*
X15097000Y-14146015D02*
X15104619Y-14153634D01*
X15104619Y-14153634D02*
X15108428Y-14165063D01*
X15108428Y-14165063D02*
X15108428Y-14172682D01*
X15108428Y-14172682D02*
X15104619Y-14184110D01*
X15104619Y-14184110D02*
X15100809Y-14187920D01*
X15028428Y-14256491D02*
X15070333Y-14256491D01*
X15070333Y-14256491D02*
X15077952Y-14252682D01*
X15077952Y-14252682D02*
X15081761Y-14245063D01*
X15081761Y-14245063D02*
X15081761Y-14229825D01*
X15081761Y-14229825D02*
X15077952Y-14222206D01*
X15032238Y-14256491D02*
X15028428Y-14248872D01*
X15028428Y-14248872D02*
X15028428Y-14229825D01*
X15028428Y-14229825D02*
X15032238Y-14222206D01*
X15032238Y-14222206D02*
X15039857Y-14218396D01*
X15039857Y-14218396D02*
X15047476Y-14218396D01*
X15047476Y-14218396D02*
X15055095Y-14222206D01*
X15055095Y-14222206D02*
X15058904Y-14229825D01*
X15058904Y-14229825D02*
X15058904Y-14248872D01*
X15058904Y-14248872D02*
X15062714Y-14256491D01*
X15028428Y-14294587D02*
X15081761Y-14294587D01*
X15066523Y-14294587D02*
X15074142Y-14298396D01*
X15074142Y-14298396D02*
X15077952Y-14302206D01*
X15077952Y-14302206D02*
X15081761Y-14309825D01*
X15081761Y-14309825D02*
X15081761Y-14317444D01*
X15028428Y-14378396D02*
X15108428Y-14378396D01*
X15032238Y-14378396D02*
X15028428Y-14370777D01*
X15028428Y-14370777D02*
X15028428Y-14355539D01*
X15028428Y-14355539D02*
X15032238Y-14347920D01*
X15032238Y-14347920D02*
X15036047Y-14344110D01*
X15036047Y-14344110D02*
X15043666Y-14340301D01*
X15043666Y-14340301D02*
X15066523Y-14340301D01*
X15066523Y-14340301D02*
X15074142Y-14344110D01*
X15074142Y-14344110D02*
X15077952Y-14347920D01*
X15077952Y-14347920D02*
X15081761Y-14355539D01*
X15081761Y-14355539D02*
X15081761Y-14370777D01*
X15081761Y-14370777D02*
X15077952Y-14378396D01*
X14899633Y-12782205D02*
X14979633Y-12782205D01*
X14979633Y-12782205D02*
X14979633Y-12801253D01*
X14979633Y-12801253D02*
X14975823Y-12812682D01*
X14975823Y-12812682D02*
X14968204Y-12820301D01*
X14968204Y-12820301D02*
X14960585Y-12824110D01*
X14960585Y-12824110D02*
X14945347Y-12827920D01*
X14945347Y-12827920D02*
X14933918Y-12827920D01*
X14933918Y-12827920D02*
X14918680Y-12824110D01*
X14918680Y-12824110D02*
X14911061Y-12820301D01*
X14911061Y-12820301D02*
X14903442Y-12812682D01*
X14903442Y-12812682D02*
X14899633Y-12801253D01*
X14899633Y-12801253D02*
X14899633Y-12782205D01*
X14899633Y-12896491D02*
X14941537Y-12896491D01*
X14941537Y-12896491D02*
X14949156Y-12892682D01*
X14949156Y-12892682D02*
X14952966Y-12885062D01*
X14952966Y-12885062D02*
X14952966Y-12869824D01*
X14952966Y-12869824D02*
X14949156Y-12862205D01*
X14903442Y-12896491D02*
X14899633Y-12888872D01*
X14899633Y-12888872D02*
X14899633Y-12869824D01*
X14899633Y-12869824D02*
X14903442Y-12862205D01*
X14903442Y-12862205D02*
X14911061Y-12858396D01*
X14911061Y-12858396D02*
X14918680Y-12858396D01*
X14918680Y-12858396D02*
X14926299Y-12862205D01*
X14926299Y-12862205D02*
X14930109Y-12869824D01*
X14930109Y-12869824D02*
X14930109Y-12888872D01*
X14930109Y-12888872D02*
X14933918Y-12896491D01*
X14952966Y-12926967D02*
X14899633Y-12946015D01*
X14952966Y-12965063D02*
X14899633Y-12946015D01*
X14899633Y-12946015D02*
X14880585Y-12938396D01*
X14880585Y-12938396D02*
X14876775Y-12934586D01*
X14876775Y-12934586D02*
X14872966Y-12926967D01*
X14899633Y-13098396D02*
X14899633Y-13052682D01*
X14899633Y-13075539D02*
X14979633Y-13075539D01*
X14979633Y-13075539D02*
X14968204Y-13067920D01*
X14968204Y-13067920D02*
X14960585Y-13060301D01*
X14960585Y-13060301D02*
X14956775Y-13052682D01*
X14930109Y-13193634D02*
X14930109Y-13254586D01*
X14979633Y-13346015D02*
X14899633Y-13365063D01*
X14899633Y-13365063D02*
X14956775Y-13380301D01*
X14956775Y-13380301D02*
X14899633Y-13395539D01*
X14899633Y-13395539D02*
X14979633Y-13414586D01*
X14899633Y-13445063D02*
X14952966Y-13445063D01*
X14979633Y-13445063D02*
X14975823Y-13441253D01*
X14975823Y-13441253D02*
X14972014Y-13445063D01*
X14972014Y-13445063D02*
X14975823Y-13448872D01*
X14975823Y-13448872D02*
X14979633Y-13445063D01*
X14979633Y-13445063D02*
X14972014Y-13445063D01*
X14930109Y-13483158D02*
X14930109Y-13544110D01*
X14941537Y-13608872D02*
X14941537Y-13582205D01*
X14899633Y-13582205D02*
X14979633Y-13582205D01*
X14979633Y-13582205D02*
X14979633Y-13620301D01*
X14899633Y-13650777D02*
X14952966Y-13650777D01*
X14979633Y-13650777D02*
X14975823Y-13646967D01*
X14975823Y-13646967D02*
X14972014Y-13650777D01*
X14972014Y-13650777D02*
X14975823Y-13654586D01*
X14975823Y-13654586D02*
X14979633Y-13650777D01*
X14979633Y-13650777D02*
X14972014Y-13650777D01*
X14899633Y-13749824D02*
X14979633Y-13749824D01*
X14941537Y-13749824D02*
X14941537Y-13795539D01*
X14899633Y-13795539D02*
X14979633Y-13795539D01*
X14899633Y-13867920D02*
X14941537Y-13867920D01*
X14941537Y-13867920D02*
X14949156Y-13864110D01*
X14949156Y-13864110D02*
X14952966Y-13856491D01*
X14952966Y-13856491D02*
X14952966Y-13841253D01*
X14952966Y-13841253D02*
X14949156Y-13833634D01*
X14903442Y-13867920D02*
X14899633Y-13860301D01*
X14899633Y-13860301D02*
X14899633Y-13841253D01*
X14899633Y-13841253D02*
X14903442Y-13833634D01*
X14903442Y-13833634D02*
X14911061Y-13829824D01*
X14911061Y-13829824D02*
X14918680Y-13829824D01*
X14918680Y-13829824D02*
X14926299Y-13833634D01*
X14926299Y-13833634D02*
X14930109Y-13841253D01*
X14930109Y-13841253D02*
X14930109Y-13860301D01*
X14930109Y-13860301D02*
X14933918Y-13867920D01*
X14899633Y-13944110D02*
X14899633Y-13906015D01*
X14899633Y-13906015D02*
X14979633Y-13906015D01*
X14899633Y-13982205D02*
X14903442Y-13974586D01*
X14903442Y-13974586D02*
X14907252Y-13970777D01*
X14907252Y-13970777D02*
X14914871Y-13966967D01*
X14914871Y-13966967D02*
X14937728Y-13966967D01*
X14937728Y-13966967D02*
X14945347Y-13970777D01*
X14945347Y-13970777D02*
X14949156Y-13974586D01*
X14949156Y-13974586D02*
X14952966Y-13982205D01*
X14952966Y-13982205D02*
X14952966Y-13993634D01*
X14952966Y-13993634D02*
X14949156Y-14001253D01*
X14949156Y-14001253D02*
X14945347Y-14005063D01*
X14945347Y-14005063D02*
X14937728Y-14008872D01*
X14937728Y-14008872D02*
X14914871Y-14008872D01*
X14914871Y-14008872D02*
X14907252Y-14005063D01*
X14907252Y-14005063D02*
X14903442Y-14001253D01*
X14903442Y-14001253D02*
X14899633Y-13993634D01*
X14899633Y-13993634D02*
X14899633Y-13982205D01*
X14952966Y-14035539D02*
X14899633Y-14050777D01*
X14899633Y-14050777D02*
X14937728Y-14066015D01*
X14937728Y-14066015D02*
X14899633Y-14081253D01*
X14899633Y-14081253D02*
X14952966Y-14096491D01*
%TO.C,C8*%
D11*
X14313146Y-13344000D02*
X14341854Y-13344000D01*
X14313146Y-13416000D02*
X14341854Y-13416000D01*
D12*
%TO.C,LOGO1*%
G36*
X12944758Y-14148924D02*
G01*
X12908552Y-14148924D01*
X12908552Y-14191707D01*
X12944437Y-14191707D01*
X12944437Y-14221120D01*
X12842827Y-14221120D01*
X12842827Y-14191600D01*
X12879246Y-14191600D01*
X12879246Y-14148817D01*
X12843040Y-14148817D01*
X12843040Y-14119350D01*
X12944651Y-14119350D01*
X12944758Y-14148924D01*
G37*
G36*
X12972059Y-14070858D02*
G01*
X12972883Y-14070903D01*
X12973700Y-14070978D01*
X12974510Y-14071082D01*
X12975311Y-14071216D01*
X12976106Y-14071380D01*
X12976890Y-14071572D01*
X12977665Y-14071792D01*
X12978430Y-14072040D01*
X12979183Y-14072315D01*
X12979923Y-14072618D01*
X12980652Y-14072946D01*
X12981367Y-14073300D01*
X12982069Y-14073680D01*
X12982756Y-14074085D01*
X12983427Y-14074513D01*
X12984081Y-14074966D01*
X12984720Y-14075443D01*
X12985341Y-14075943D01*
X12985945Y-14076466D01*
X12986528Y-14077011D01*
X12987094Y-14077577D01*
X12987639Y-14078165D01*
X12988163Y-14078774D01*
X12988666Y-14079404D01*
X12989146Y-14080053D01*
X12989604Y-14080722D01*
X12990038Y-14081410D01*
X12990448Y-14082116D01*
X12990833Y-14082841D01*
X12991192Y-14083583D01*
X12991526Y-14084342D01*
X12992103Y-14085891D01*
X12992559Y-14087464D01*
X12992893Y-14089053D01*
X12993108Y-14090652D01*
X12993204Y-14092254D01*
X12993183Y-14093852D01*
X12993047Y-14095442D01*
X12992795Y-14097016D01*
X12992430Y-14098567D01*
X12991953Y-14100089D01*
X12991365Y-14101576D01*
X12990667Y-14103021D01*
X12989861Y-14104419D01*
X12988949Y-14105761D01*
X12987930Y-14107042D01*
X12986807Y-14108255D01*
X12985595Y-14109383D01*
X12984317Y-14110404D01*
X12982976Y-14111319D01*
X12981582Y-14112129D01*
X12980137Y-14112830D01*
X12978652Y-14113422D01*
X12977131Y-14113903D01*
X12975581Y-14114271D01*
X12974008Y-14114527D01*
X12972419Y-14114667D01*
X12970820Y-14114692D01*
X12969218Y-14114600D01*
X12967619Y-14114389D01*
X12966029Y-14114059D01*
X12964456Y-14113607D01*
X12962904Y-14113033D01*
X12961401Y-14112343D01*
X12959968Y-14111552D01*
X12958609Y-14110664D01*
X12957329Y-14109685D01*
X12956130Y-14108619D01*
X12955015Y-14107472D01*
X12953989Y-14106250D01*
X12953056Y-14104959D01*
X12952219Y-14103601D01*
X12951482Y-14102187D01*
X12950848Y-14100719D01*
X12950321Y-14099204D01*
X12949905Y-14097645D01*
X12949603Y-14096050D01*
X12949419Y-14094423D01*
X12949357Y-14092771D01*
X12949382Y-14091685D01*
X12949459Y-14090605D01*
X12949590Y-14089535D01*
X12949772Y-14088475D01*
X12950006Y-14087429D01*
X12950290Y-14086397D01*
X12950624Y-14085381D01*
X12951007Y-14084384D01*
X12951437Y-14083406D01*
X12951916Y-14082450D01*
X12952442Y-14081517D01*
X12953014Y-14080609D01*
X12953630Y-14079729D01*
X12954291Y-14078878D01*
X12954996Y-14078058D01*
X12955745Y-14077270D01*
X12956531Y-14076520D01*
X12957350Y-14075812D01*
X12958200Y-14075148D01*
X12959078Y-14074530D01*
X12959984Y-14073957D01*
X12960915Y-14073429D01*
X12961870Y-14072948D01*
X12962847Y-14072514D01*
X12963844Y-14072129D01*
X12964859Y-14071793D01*
X12965890Y-14071506D01*
X12966936Y-14071270D01*
X12967996Y-14071085D01*
X12969065Y-14070953D01*
X12970144Y-14070871D01*
X12971230Y-14070844D01*
X12972059Y-14070858D01*
G37*
G36*
X12869672Y-13470274D02*
G01*
X12871401Y-13470265D01*
X12873124Y-13470313D01*
X12874843Y-13470417D01*
X12876554Y-13470578D01*
X12878258Y-13470793D01*
X12879952Y-13471064D01*
X12881636Y-13471390D01*
X12883308Y-13471771D01*
X12884967Y-13472206D01*
X12886610Y-13472696D01*
X12888239Y-13473238D01*
X12889849Y-13473835D01*
X12891441Y-13474482D01*
X12893013Y-13475185D01*
X12894564Y-13475940D01*
X12896092Y-13476745D01*
X12897507Y-13477585D01*
X12898887Y-13478472D01*
X12900230Y-13479408D01*
X12901537Y-13480392D01*
X12902805Y-13481421D01*
X12904034Y-13482493D01*
X12905222Y-13483609D01*
X12906368Y-13484769D01*
X12907472Y-13485967D01*
X12908531Y-13487207D01*
X12909546Y-13488484D01*
X12910513Y-13489799D01*
X12911434Y-13491151D01*
X12912306Y-13492536D01*
X12913129Y-13493956D01*
X12913901Y-13495410D01*
X12914689Y-13497151D01*
X12915424Y-13498913D01*
X12916104Y-13500693D01*
X12916729Y-13502490D01*
X12917301Y-13504305D01*
X12917817Y-13506135D01*
X12918278Y-13507978D01*
X12918683Y-13509834D01*
X12919032Y-13511701D01*
X12919325Y-13513579D01*
X12919561Y-13515465D01*
X12919741Y-13517360D01*
X12919865Y-13519258D01*
X12919930Y-13521163D01*
X12919939Y-13523073D01*
X12919891Y-13524983D01*
X12919891Y-13547283D01*
X12894435Y-13547283D01*
X12894435Y-13530117D01*
X12894460Y-13529137D01*
X12894455Y-13528159D01*
X12894420Y-13527182D01*
X12894355Y-13526208D01*
X12894260Y-13525238D01*
X12894135Y-13524272D01*
X12893980Y-13523310D01*
X12893797Y-13522353D01*
X12893583Y-13521404D01*
X12893340Y-13520460D01*
X12893068Y-13519525D01*
X12892767Y-13518597D01*
X12892438Y-13517679D01*
X12892080Y-13516770D01*
X12891693Y-13515871D01*
X12891278Y-13514982D01*
X12890898Y-13514271D01*
X12890491Y-13513576D01*
X12890058Y-13512899D01*
X12889601Y-13512240D01*
X12889120Y-13511600D01*
X12888615Y-13510981D01*
X12888086Y-13510382D01*
X12887536Y-13509802D01*
X12886964Y-13509245D01*
X12886370Y-13508710D01*
X12885756Y-13508197D01*
X12885122Y-13507708D01*
X12884470Y-13507242D01*
X12883798Y-13506803D01*
X12883108Y-13506386D01*
X12882401Y-13505998D01*
X12880831Y-13505307D01*
X12879234Y-13504710D01*
X12877614Y-13504205D01*
X12875973Y-13503791D01*
X12874318Y-13503469D01*
X12872651Y-13503239D01*
X12870977Y-13503102D01*
X12869298Y-13503056D01*
X12867620Y-13503102D01*
X12865946Y-13503239D01*
X12864278Y-13503469D01*
X12862623Y-13503791D01*
X12860984Y-13504205D01*
X12859363Y-13504710D01*
X12857766Y-13505307D01*
X12856196Y-13505998D01*
X12855500Y-13506390D01*
X12854821Y-13506810D01*
X12854159Y-13507252D01*
X12853517Y-13507721D01*
X12852894Y-13508211D01*
X12852291Y-13508726D01*
X12851708Y-13509261D01*
X12851146Y-13509819D01*
X12850606Y-13510398D01*
X12850087Y-13510997D01*
X12849592Y-13511615D01*
X12849120Y-13512253D01*
X12848673Y-13512910D01*
X12848249Y-13513583D01*
X12847851Y-13514275D01*
X12847479Y-13514982D01*
X12847073Y-13515880D01*
X12846695Y-13516789D01*
X12846345Y-13517706D01*
X12846023Y-13518632D01*
X12845728Y-13519567D01*
X12845461Y-13520511D01*
X12845223Y-13521461D01*
X12845015Y-13522418D01*
X12844833Y-13523380D01*
X12844681Y-13524347D01*
X12844557Y-13525319D01*
X12844463Y-13526295D01*
X12844398Y-13527274D01*
X12844362Y-13528255D01*
X12844355Y-13529239D01*
X12844377Y-13530224D01*
X12844377Y-13551616D01*
X12894595Y-13551616D01*
X12924864Y-13551616D01*
X12968771Y-13551616D01*
X12968771Y-13583382D01*
X12818600Y-13583382D01*
X12818600Y-13524128D01*
X12818573Y-13522234D01*
X12818604Y-13520343D01*
X12818694Y-13518460D01*
X12818842Y-13516581D01*
X12819049Y-13514709D01*
X12819313Y-13512845D01*
X12819635Y-13510992D01*
X12820014Y-13509150D01*
X12820450Y-13507320D01*
X12820943Y-13505505D01*
X12821492Y-13503705D01*
X12822096Y-13501922D01*
X12822757Y-13500156D01*
X12823474Y-13498410D01*
X12824246Y-13496684D01*
X12825071Y-13494981D01*
X12825859Y-13493547D01*
X12826697Y-13492144D01*
X12827583Y-13490776D01*
X12828517Y-13489444D01*
X12829498Y-13488146D01*
X12830524Y-13486889D01*
X12831595Y-13485669D01*
X12832709Y-13484491D01*
X12833865Y-13483352D01*
X12835062Y-13482257D01*
X12836299Y-13481204D01*
X12837574Y-13480198D01*
X12838887Y-13479236D01*
X12840236Y-13478321D01*
X12841621Y-13477455D01*
X12843040Y-13476637D01*
X12843040Y-13476637D01*
X12844585Y-13475841D01*
X12846153Y-13475097D01*
X12847741Y-13474404D01*
X12849348Y-13473766D01*
X12850974Y-13473177D01*
X12852615Y-13472643D01*
X12854273Y-13472161D01*
X12855945Y-13471733D01*
X12857630Y-13471359D01*
X12859326Y-13471039D01*
X12861032Y-13470773D01*
X12862748Y-13470563D01*
X12864471Y-13470407D01*
X12866200Y-13470307D01*
X12867935Y-13470263D01*
X12869672Y-13470274D01*
G37*
G36*
X12947041Y-14072074D02*
G01*
X12945792Y-14073641D01*
X12944650Y-14075274D01*
X12943616Y-14076966D01*
X12942693Y-14078713D01*
X12941880Y-14080507D01*
X12941180Y-14082347D01*
X12940595Y-14084223D01*
X12940125Y-14086132D01*
X12939773Y-14088067D01*
X12939540Y-14090025D01*
X12939428Y-14091997D01*
X12939437Y-14093981D01*
X12939570Y-14095969D01*
X12939828Y-14097955D01*
X12940213Y-14099937D01*
X12841115Y-14099937D01*
X12840205Y-14099963D01*
X12839307Y-14100033D01*
X12838423Y-14100148D01*
X12837552Y-14100306D01*
X12836697Y-14100506D01*
X12835858Y-14100744D01*
X12835037Y-14101025D01*
X12834234Y-14101343D01*
X12833451Y-14101697D01*
X12832690Y-14102089D01*
X12831948Y-14102515D01*
X12831231Y-14102977D01*
X12830538Y-14103470D01*
X12829869Y-14103995D01*
X12829228Y-14104551D01*
X12828614Y-14105138D01*
X12828027Y-14105752D01*
X12827472Y-14106393D01*
X12826947Y-14107062D01*
X12826453Y-14107754D01*
X12825992Y-14108471D01*
X12825566Y-14109212D01*
X12825174Y-14109974D01*
X12824819Y-14110757D01*
X12824501Y-14111560D01*
X12824222Y-14112380D01*
X12823981Y-14113220D01*
X12823782Y-14114075D01*
X12823624Y-14114946D01*
X12823510Y-14115830D01*
X12823439Y-14116729D01*
X12823413Y-14117638D01*
X12823413Y-14222885D01*
X12823439Y-14223794D01*
X12823510Y-14224693D01*
X12823624Y-14225578D01*
X12823782Y-14226447D01*
X12823981Y-14227303D01*
X12824222Y-14228141D01*
X12824501Y-14228964D01*
X12824819Y-14229766D01*
X12825174Y-14230549D01*
X12825566Y-14231311D01*
X12825992Y-14232052D01*
X12826452Y-14232769D01*
X12826947Y-14233463D01*
X12827472Y-14234130D01*
X12828027Y-14234772D01*
X12828614Y-14235387D01*
X12829228Y-14235973D01*
X12829869Y-14236529D01*
X12830538Y-14237054D01*
X12831231Y-14237548D01*
X12831948Y-14238008D01*
X12832690Y-14238435D01*
X12833451Y-14238826D01*
X12834234Y-14239181D01*
X12835037Y-14239499D01*
X12835858Y-14239779D01*
X12836697Y-14240019D01*
X12837552Y-14240218D01*
X12838423Y-14240375D01*
X12839307Y-14240490D01*
X12840205Y-14240561D01*
X12841115Y-14240587D01*
X12946362Y-14240587D01*
X12947274Y-14240563D01*
X12948174Y-14240495D01*
X12949061Y-14240382D01*
X12949934Y-14240227D01*
X12950790Y-14240030D01*
X12951631Y-14239791D01*
X12952455Y-14239513D01*
X12953260Y-14239196D01*
X12954046Y-14238843D01*
X12954810Y-14238452D01*
X12955553Y-14238026D01*
X12956272Y-14237566D01*
X12956968Y-14237073D01*
X12957638Y-14236548D01*
X12958281Y-14235991D01*
X12958898Y-14235405D01*
X12959486Y-14234790D01*
X12960044Y-14234148D01*
X12960571Y-14233481D01*
X12961066Y-14232787D01*
X12961529Y-14232068D01*
X12961957Y-14231327D01*
X12962350Y-14230563D01*
X12962706Y-14229780D01*
X12963026Y-14228976D01*
X12963306Y-14228152D01*
X12963547Y-14227312D01*
X12963747Y-14226455D01*
X12963906Y-14225583D01*
X12964021Y-14224697D01*
X12964091Y-14223797D01*
X12964117Y-14222885D01*
X12964117Y-14123788D01*
X12966099Y-14124173D01*
X12968086Y-14124431D01*
X12970074Y-14124563D01*
X12972057Y-14124573D01*
X12974029Y-14124461D01*
X12975986Y-14124227D01*
X12977922Y-14123875D01*
X12979831Y-14123407D01*
X12981708Y-14122820D01*
X12983546Y-14122121D01*
X12985341Y-14121308D01*
X12987088Y-14120383D01*
X12988780Y-14119351D01*
X12990413Y-14118209D01*
X12991981Y-14116960D01*
X12993477Y-14115605D01*
X12993477Y-14222885D01*
X12993407Y-14225306D01*
X12993219Y-14227696D01*
X12992913Y-14230050D01*
X12992493Y-14232367D01*
X12991963Y-14234642D01*
X12991323Y-14236875D01*
X12990579Y-14239061D01*
X12989732Y-14241197D01*
X12988786Y-14243281D01*
X12987744Y-14245310D01*
X12986609Y-14247280D01*
X12985382Y-14249188D01*
X12984069Y-14251034D01*
X12982670Y-14252811D01*
X12981190Y-14254518D01*
X12979631Y-14256154D01*
X12977996Y-14257713D01*
X12976288Y-14259193D01*
X12974510Y-14260592D01*
X12972666Y-14261904D01*
X12970756Y-14263131D01*
X12968786Y-14264268D01*
X12966757Y-14265310D01*
X12964674Y-14266255D01*
X12962537Y-14267103D01*
X12960351Y-14267846D01*
X12958119Y-14268485D01*
X12955843Y-14269016D01*
X12953527Y-14269436D01*
X12951173Y-14269742D01*
X12948783Y-14269931D01*
X12946362Y-14270000D01*
X12841115Y-14270000D01*
X12838694Y-14269931D01*
X12836305Y-14269742D01*
X12833951Y-14269436D01*
X12831634Y-14269016D01*
X12829358Y-14268485D01*
X12827126Y-14267846D01*
X12824940Y-14267103D01*
X12822803Y-14266255D01*
X12820720Y-14265310D01*
X12818691Y-14264267D01*
X12816721Y-14263131D01*
X12814811Y-14261904D01*
X12812967Y-14260592D01*
X12811189Y-14259193D01*
X12809482Y-14257712D01*
X12807847Y-14256154D01*
X12806287Y-14254518D01*
X12804807Y-14252811D01*
X12803408Y-14251033D01*
X12802095Y-14249188D01*
X12800868Y-14247280D01*
X12799733Y-14245309D01*
X12798691Y-14243281D01*
X12797745Y-14241196D01*
X12796898Y-14239060D01*
X12796154Y-14236875D01*
X12795514Y-14234642D01*
X12794984Y-14232366D01*
X12794564Y-14230050D01*
X12794258Y-14227695D01*
X12794070Y-14225306D01*
X12794000Y-14222885D01*
X12794000Y-14117638D01*
X12794070Y-14115218D01*
X12794259Y-14112830D01*
X12794564Y-14110477D01*
X12794984Y-14108161D01*
X12795515Y-14105886D01*
X12796155Y-14103655D01*
X12796899Y-14101470D01*
X12797746Y-14099335D01*
X12798692Y-14097252D01*
X12799735Y-14095225D01*
X12800870Y-14093256D01*
X12802097Y-14091348D01*
X12803411Y-14089505D01*
X12804810Y-14087729D01*
X12806290Y-14086022D01*
X12807850Y-14084389D01*
X12809485Y-14082832D01*
X12811193Y-14081353D01*
X12812971Y-14079955D01*
X12814815Y-14078644D01*
X12816725Y-14077420D01*
X12818695Y-14076286D01*
X12820724Y-14075246D01*
X12822807Y-14074302D01*
X12824943Y-14073458D01*
X12827129Y-14072716D01*
X12829361Y-14072079D01*
X12831636Y-14071550D01*
X12833952Y-14071133D01*
X12836306Y-14070830D01*
X12838695Y-14070643D01*
X12841115Y-14070577D01*
X12946362Y-14070577D01*
X12948395Y-14070577D01*
X12947041Y-14072074D01*
G37*
G36*
X12927270Y-13200366D02*
G01*
X12928684Y-13200366D01*
X12930094Y-13200416D01*
X12931497Y-13200518D01*
X12932894Y-13200669D01*
X12934283Y-13200870D01*
X12935663Y-13201120D01*
X12937032Y-13201419D01*
X12938390Y-13201766D01*
X12939734Y-13202161D01*
X12941063Y-13202605D01*
X12942377Y-13203096D01*
X12943673Y-13203633D01*
X12944952Y-13204218D01*
X12946210Y-13204849D01*
X12947447Y-13205525D01*
X12948662Y-13206248D01*
X12949863Y-13207070D01*
X12951032Y-13207932D01*
X12952166Y-13208834D01*
X12953266Y-13209774D01*
X12954330Y-13210753D01*
X12955358Y-13211767D01*
X12956348Y-13212817D01*
X12957299Y-13213901D01*
X12958211Y-13215018D01*
X12959083Y-13216168D01*
X12959914Y-13217348D01*
X12960703Y-13218560D01*
X12961449Y-13219800D01*
X12962151Y-13221067D01*
X12962809Y-13222362D01*
X12963421Y-13223682D01*
X12964121Y-13225370D01*
X12964772Y-13227073D01*
X12965376Y-13228794D01*
X12965932Y-13230527D01*
X12966438Y-13232275D01*
X12966897Y-13234033D01*
X12967306Y-13235804D01*
X12967667Y-13237585D01*
X12967979Y-13239376D01*
X12968241Y-13241174D01*
X12968453Y-13242979D01*
X12968618Y-13244791D01*
X12968731Y-13246608D01*
X12968794Y-13248429D01*
X12968807Y-13250253D01*
X12968771Y-13252080D01*
X12968771Y-13316255D01*
X12844377Y-13316255D01*
X12818760Y-13316255D01*
X12818760Y-13259324D01*
X12844330Y-13259324D01*
X12844377Y-13260422D01*
X12844377Y-13284541D01*
X12881491Y-13284541D01*
X12902884Y-13284541D01*
X12942779Y-13284541D01*
X12942779Y-13258658D01*
X12942862Y-13257374D01*
X12942891Y-13256092D01*
X12942863Y-13254815D01*
X12942782Y-13253542D01*
X12942646Y-13252276D01*
X12942456Y-13251019D01*
X12942213Y-13249773D01*
X12941917Y-13248537D01*
X12941569Y-13247316D01*
X12941168Y-13246111D01*
X12940716Y-13244923D01*
X12940214Y-13243753D01*
X12939660Y-13242604D01*
X12939055Y-13241477D01*
X12938402Y-13240375D01*
X12937699Y-13239298D01*
X12937056Y-13238566D01*
X12936377Y-13237877D01*
X12935662Y-13237230D01*
X12934915Y-13236627D01*
X12934137Y-13236070D01*
X12933331Y-13235559D01*
X12932498Y-13235095D01*
X12931641Y-13234679D01*
X12930763Y-13234313D01*
X12929863Y-13233997D01*
X12928946Y-13233731D01*
X12928013Y-13233518D01*
X12927067Y-13233356D01*
X12926109Y-13233250D01*
X12925142Y-13233198D01*
X12924168Y-13233202D01*
X12923441Y-13233201D01*
X12922716Y-13233227D01*
X12921994Y-13233277D01*
X12921275Y-13233354D01*
X12920560Y-13233455D01*
X12919850Y-13233582D01*
X12919145Y-13233735D01*
X12918446Y-13233911D01*
X12917754Y-13234112D01*
X12917069Y-13234339D01*
X12916392Y-13234588D01*
X12915725Y-13234863D01*
X12915065Y-13235161D01*
X12914417Y-13235483D01*
X12913779Y-13235827D01*
X12913152Y-13236196D01*
X12912552Y-13236601D01*
X12911968Y-13237025D01*
X12911400Y-13237469D01*
X12910849Y-13237931D01*
X12910314Y-13238411D01*
X12909797Y-13238909D01*
X12909297Y-13239424D01*
X12908815Y-13239956D01*
X12908353Y-13240504D01*
X12907909Y-13241068D01*
X12907484Y-13241646D01*
X12907078Y-13242241D01*
X12906694Y-13242848D01*
X12906329Y-13243470D01*
X12905986Y-13244105D01*
X12905665Y-13244753D01*
X12905318Y-13245529D01*
X12904994Y-13246314D01*
X12904694Y-13247107D01*
X12904416Y-13247907D01*
X12904162Y-13248715D01*
X12903932Y-13249528D01*
X12903725Y-13250348D01*
X12903541Y-13251173D01*
X12903382Y-13252004D01*
X12903246Y-13252838D01*
X12903134Y-13253677D01*
X12903046Y-13254518D01*
X12902982Y-13255362D01*
X12902943Y-13256209D01*
X12902928Y-13257058D01*
X12902937Y-13257909D01*
X12902937Y-13280155D01*
X12881545Y-13280155D01*
X12881545Y-13261010D01*
X12881546Y-13260261D01*
X12881527Y-13259511D01*
X12881488Y-13258763D01*
X12881430Y-13258018D01*
X12881352Y-13257274D01*
X12881256Y-13256534D01*
X12881140Y-13255796D01*
X12881004Y-13255061D01*
X12880851Y-13254330D01*
X12880678Y-13253604D01*
X12880486Y-13252881D01*
X12880275Y-13252164D01*
X12880045Y-13251453D01*
X12879798Y-13250746D01*
X12879531Y-13250046D01*
X12879246Y-13249352D01*
X12878969Y-13248751D01*
X12878672Y-13248161D01*
X12878356Y-13247581D01*
X12878021Y-13247014D01*
X12877668Y-13246459D01*
X12877297Y-13245916D01*
X12876908Y-13245387D01*
X12876502Y-13244869D01*
X12876079Y-13244368D01*
X12875639Y-13243880D01*
X12875182Y-13243406D01*
X12874710Y-13242948D01*
X12874222Y-13242506D01*
X12873719Y-13242081D01*
X12873200Y-13241670D01*
X12872668Y-13241277D01*
X12872096Y-13240910D01*
X12871512Y-13240565D01*
X12870916Y-13240246D01*
X12870310Y-13239950D01*
X12869693Y-13239678D01*
X12869068Y-13239430D01*
X12868432Y-13239207D01*
X12867790Y-13239009D01*
X12867140Y-13238835D01*
X12866484Y-13238687D01*
X12865823Y-13238563D01*
X12865155Y-13238466D01*
X12864485Y-13238394D01*
X12863810Y-13238348D01*
X12863133Y-13238329D01*
X12862453Y-13238335D01*
X12861515Y-13238330D01*
X12860582Y-13238378D01*
X12859659Y-13238477D01*
X12858746Y-13238627D01*
X12857846Y-13238829D01*
X12856960Y-13239079D01*
X12856091Y-13239378D01*
X12855241Y-13239725D01*
X12854412Y-13240119D01*
X12853605Y-13240558D01*
X12852822Y-13241044D01*
X12852066Y-13241572D01*
X12851340Y-13242144D01*
X12850643Y-13242759D01*
X12849980Y-13243415D01*
X12849351Y-13244111D01*
X12848699Y-13244996D01*
X12848090Y-13245906D01*
X12847524Y-13246840D01*
X12847003Y-13247796D01*
X12846527Y-13248774D01*
X12846096Y-13249769D01*
X12845710Y-13250783D01*
X12845371Y-13251812D01*
X12845078Y-13252855D01*
X12844833Y-13253910D01*
X12844635Y-13254978D01*
X12844485Y-13256054D01*
X12844384Y-13257138D01*
X12844332Y-13258229D01*
X12844330Y-13259324D01*
X12818760Y-13259324D01*
X12818760Y-13255877D01*
X12818728Y-13254104D01*
X12818739Y-13252335D01*
X12818798Y-13250567D01*
X12818901Y-13248804D01*
X12819050Y-13247045D01*
X12819244Y-13245290D01*
X12819482Y-13243542D01*
X12819765Y-13241801D01*
X12820094Y-13240068D01*
X12820467Y-13238343D01*
X12820883Y-13236628D01*
X12821344Y-13234923D01*
X12821849Y-13233231D01*
X12822399Y-13231550D01*
X12822991Y-13229882D01*
X12823627Y-13228228D01*
X12824176Y-13226970D01*
X12824768Y-13225736D01*
X12825404Y-13224528D01*
X12826084Y-13223346D01*
X12826805Y-13222191D01*
X12827568Y-13221065D01*
X12828371Y-13219967D01*
X12829213Y-13218901D01*
X12830093Y-13217866D01*
X12831012Y-13216864D01*
X12831967Y-13215896D01*
X12832959Y-13214961D01*
X12833985Y-13214063D01*
X12835045Y-13213203D01*
X12836138Y-13212379D01*
X12837265Y-13211596D01*
X12838397Y-13210924D01*
X12839550Y-13210295D01*
X12840724Y-13209711D01*
X12841916Y-13209171D01*
X12843126Y-13208674D01*
X12844351Y-13208222D01*
X12845591Y-13207817D01*
X12846845Y-13207456D01*
X12848111Y-13207141D01*
X12849389Y-13206872D01*
X12850675Y-13206649D01*
X12851971Y-13206474D01*
X12853274Y-13206346D01*
X12854582Y-13206265D01*
X12855895Y-13206232D01*
X12857212Y-13206248D01*
X12858217Y-13206241D01*
X12859220Y-13206265D01*
X12860221Y-13206320D01*
X12861218Y-13206407D01*
X12862211Y-13206523D01*
X12863199Y-13206670D01*
X12864182Y-13206847D01*
X12865159Y-13207055D01*
X12866129Y-13207292D01*
X12867091Y-13207559D01*
X12868045Y-13207855D01*
X12868990Y-13208182D01*
X12869926Y-13208537D01*
X12870851Y-13208921D01*
X12871765Y-13209336D01*
X12872668Y-13209777D01*
X12873465Y-13210219D01*
X12874249Y-13210684D01*
X12875016Y-13211171D01*
X12875767Y-13211680D01*
X12876502Y-13212213D01*
X12877220Y-13212766D01*
X12877921Y-13213342D01*
X12878604Y-13213937D01*
X12879268Y-13214554D01*
X12879914Y-13215190D01*
X12880539Y-13215846D01*
X12881146Y-13216521D01*
X12881732Y-13217215D01*
X12882297Y-13217927D01*
X12882841Y-13218657D01*
X12883363Y-13219404D01*
X12883895Y-13220200D01*
X12884407Y-13221009D01*
X12884898Y-13221829D01*
X12885370Y-13222660D01*
X12885820Y-13223503D01*
X12886248Y-13224354D01*
X12886657Y-13225217D01*
X12887044Y-13226088D01*
X12887409Y-13226970D01*
X12887753Y-13227860D01*
X12888075Y-13228758D01*
X12888375Y-13229665D01*
X12888653Y-13230578D01*
X12888910Y-13231499D01*
X12889142Y-13232427D01*
X12889352Y-13233362D01*
X12890797Y-13233362D01*
X12890862Y-13232301D01*
X12890961Y-13231244D01*
X12891091Y-13230193D01*
X12891255Y-13229146D01*
X12891450Y-13228107D01*
X12891677Y-13227074D01*
X12891937Y-13226050D01*
X12892228Y-13225035D01*
X12892550Y-13224031D01*
X12892903Y-13223035D01*
X12893287Y-13222050D01*
X12893701Y-13221078D01*
X12894149Y-13220118D01*
X12894623Y-13219170D01*
X12895129Y-13218236D01*
X12895664Y-13217318D01*
X12896243Y-13216375D01*
X12896853Y-13215453D01*
X12897491Y-13214553D01*
X12898158Y-13213675D01*
X12898851Y-13212820D01*
X12899572Y-13211989D01*
X12900320Y-13211183D01*
X12901092Y-13210402D01*
X12901890Y-13209646D01*
X12902713Y-13208916D01*
X12903559Y-13208214D01*
X12904428Y-13207538D01*
X12905320Y-13206891D01*
X12906234Y-13206272D01*
X12907169Y-13205684D01*
X12908125Y-13205125D01*
X12909229Y-13204530D01*
X12910350Y-13203975D01*
X12911488Y-13203458D01*
X12912639Y-13202979D01*
X12913806Y-13202541D01*
X12914985Y-13202141D01*
X12916176Y-13201781D01*
X12917378Y-13201461D01*
X12918591Y-13201181D01*
X12919811Y-13200941D01*
X12921041Y-13200742D01*
X12922277Y-13200585D01*
X12923519Y-13200467D01*
X12924765Y-13200392D01*
X12926016Y-13200358D01*
X12927270Y-13200366D01*
G37*
G36*
X12871118Y-13360161D02*
G01*
X12870387Y-13360262D01*
X12869661Y-13360380D01*
X12868939Y-13360514D01*
X12868220Y-13360665D01*
X12867505Y-13360833D01*
X12866794Y-13361017D01*
X12866089Y-13361218D01*
X12865388Y-13361434D01*
X12864692Y-13361667D01*
X12864002Y-13361916D01*
X12863319Y-13362181D01*
X12862640Y-13362462D01*
X12861968Y-13362758D01*
X12861303Y-13363071D01*
X12860644Y-13363399D01*
X12859993Y-13363744D01*
X12859397Y-13364080D01*
X12858810Y-13364431D01*
X12858232Y-13364795D01*
X12857663Y-13365174D01*
X12857104Y-13365565D01*
X12856554Y-13365970D01*
X12856016Y-13366387D01*
X12855486Y-13366817D01*
X12854968Y-13367260D01*
X12854460Y-13367715D01*
X12853963Y-13368183D01*
X12853477Y-13368662D01*
X12853002Y-13369153D01*
X12852540Y-13369656D01*
X12852089Y-13370171D01*
X12851651Y-13370696D01*
X12851214Y-13371246D01*
X12850790Y-13371806D01*
X12850379Y-13372374D01*
X12849983Y-13372952D01*
X12849598Y-13373537D01*
X12849229Y-13374133D01*
X12848872Y-13374735D01*
X12848529Y-13375345D01*
X12848201Y-13375963D01*
X12847886Y-13376589D01*
X12847586Y-13377221D01*
X12847300Y-13377860D01*
X12847028Y-13378507D01*
X12846771Y-13379159D01*
X12846530Y-13379818D01*
X12846303Y-13380483D01*
X12845857Y-13381947D01*
X12845469Y-13383427D01*
X12845144Y-13384919D01*
X12844878Y-13386424D01*
X12844675Y-13387936D01*
X12844532Y-13389458D01*
X12844450Y-13390985D01*
X12844430Y-13392516D01*
X12844424Y-13393861D01*
X12844469Y-13395203D01*
X12844564Y-13396539D01*
X12844709Y-13397867D01*
X12844903Y-13399189D01*
X12845146Y-13400499D01*
X12845439Y-13401801D01*
X12845781Y-13403088D01*
X12846170Y-13404361D01*
X12846606Y-13405622D01*
X12847090Y-13406864D01*
X12847622Y-13408090D01*
X12848199Y-13409295D01*
X12848822Y-13410480D01*
X12849492Y-13411644D01*
X12850207Y-13412784D01*
X12851002Y-13413897D01*
X12851835Y-13414978D01*
X12852707Y-13416026D01*
X12853613Y-13417040D01*
X12854556Y-13418017D01*
X12855533Y-13418959D01*
X12856543Y-13419865D01*
X12857584Y-13420732D01*
X12858657Y-13421560D01*
X12859760Y-13422350D01*
X12860892Y-13423098D01*
X12862051Y-13423806D01*
X12863238Y-13424472D01*
X12864450Y-13425094D01*
X12865686Y-13425673D01*
X12866946Y-13426208D01*
X12868543Y-13426828D01*
X12870155Y-13427409D01*
X12871780Y-13427946D01*
X12873417Y-13428439D01*
X12875066Y-13428890D01*
X12876723Y-13429297D01*
X12878390Y-13429661D01*
X12880067Y-13429982D01*
X12881751Y-13430259D01*
X12883442Y-13430493D01*
X12885139Y-13430682D01*
X12886840Y-13430828D01*
X12888548Y-13430930D01*
X12890257Y-13430986D01*
X12891970Y-13430999D01*
X12893684Y-13430966D01*
X12895400Y-13430994D01*
X12897112Y-13430976D01*
X12898822Y-13430916D01*
X12900528Y-13430811D01*
X12902229Y-13430663D01*
X12903925Y-13430473D01*
X12905616Y-13430238D01*
X12907300Y-13429960D01*
X12908976Y-13429640D01*
X12910644Y-13429276D01*
X12912302Y-13428871D01*
X12913950Y-13428422D01*
X12915588Y-13427932D01*
X12917213Y-13427399D01*
X12918826Y-13426824D01*
X12920425Y-13426208D01*
X12921696Y-13425691D01*
X12922940Y-13425128D01*
X12924152Y-13424521D01*
X12925335Y-13423870D01*
X12926486Y-13423176D01*
X12927606Y-13422442D01*
X12928691Y-13421668D01*
X12929744Y-13420855D01*
X12930762Y-13420005D01*
X12931744Y-13419118D01*
X12932690Y-13418197D01*
X12933599Y-13417242D01*
X12934470Y-13416254D01*
X12935302Y-13415236D01*
X12936094Y-13414187D01*
X12936847Y-13413108D01*
X12937558Y-13412004D01*
X12938227Y-13410872D01*
X12938854Y-13409716D01*
X12939436Y-13408534D01*
X12939975Y-13407331D01*
X12940467Y-13406106D01*
X12940914Y-13404861D01*
X12941314Y-13403596D01*
X12941666Y-13402314D01*
X12941970Y-13401016D01*
X12942224Y-13399702D01*
X12942428Y-13398374D01*
X12942581Y-13397032D01*
X12942682Y-13395679D01*
X12942730Y-13394316D01*
X12942726Y-13392944D01*
X12942708Y-13391437D01*
X12942634Y-13389933D01*
X12942503Y-13388435D01*
X12942317Y-13386943D01*
X12942075Y-13385459D01*
X12941777Y-13383985D01*
X12941423Y-13382521D01*
X12941015Y-13381071D01*
X12940812Y-13380417D01*
X12940596Y-13379769D01*
X12940364Y-13379127D01*
X12940119Y-13378491D01*
X12939859Y-13377860D01*
X12939585Y-13377236D01*
X12939297Y-13376618D01*
X12938995Y-13376007D01*
X12938680Y-13375403D01*
X12938350Y-13374806D01*
X12938007Y-13374217D01*
X12937651Y-13373635D01*
X12937281Y-13373062D01*
X12936899Y-13372497D01*
X12936502Y-13371940D01*
X12936094Y-13371392D01*
X12935679Y-13370861D01*
X12935253Y-13370342D01*
X12934814Y-13369832D01*
X12934364Y-13369333D01*
X12933901Y-13368847D01*
X12933429Y-13368371D01*
X12932945Y-13367907D01*
X12932450Y-13367455D01*
X12931945Y-13367015D01*
X12931428Y-13366585D01*
X12930902Y-13366169D01*
X12930366Y-13365765D01*
X12929820Y-13365374D01*
X12929265Y-13364996D01*
X12928700Y-13364630D01*
X12928126Y-13364278D01*
X12927503Y-13363924D01*
X12926872Y-13363583D01*
X12926235Y-13363258D01*
X12925591Y-13362947D01*
X12924940Y-13362650D01*
X12924284Y-13362368D01*
X12923621Y-13362102D01*
X12922953Y-13361848D01*
X12922279Y-13361611D01*
X12921600Y-13361389D01*
X12920916Y-13361181D01*
X12920227Y-13360989D01*
X12919533Y-13360812D01*
X12918837Y-13360650D01*
X12918135Y-13360505D01*
X12917431Y-13360375D01*
X12917431Y-13328287D01*
X12918736Y-13328440D01*
X12920037Y-13328623D01*
X12921332Y-13328833D01*
X12922622Y-13329073D01*
X12923906Y-13329341D01*
X12925184Y-13329637D01*
X12926454Y-13329961D01*
X12927716Y-13330313D01*
X12928970Y-13330692D01*
X12930216Y-13331100D01*
X12931452Y-13331534D01*
X12932679Y-13331996D01*
X12933897Y-13332486D01*
X12935104Y-13333003D01*
X12936300Y-13333547D01*
X12937484Y-13334116D01*
X12938684Y-13334760D01*
X12939866Y-13335431D01*
X12941033Y-13336127D01*
X12942183Y-13336847D01*
X12943317Y-13337595D01*
X12944432Y-13338366D01*
X12945530Y-13339162D01*
X12946610Y-13339983D01*
X12947670Y-13340826D01*
X12948713Y-13341694D01*
X12949735Y-13342586D01*
X12950739Y-13343500D01*
X12951721Y-13344436D01*
X12952684Y-13345395D01*
X12953625Y-13346376D01*
X12954545Y-13347379D01*
X12955501Y-13348479D01*
X12956429Y-13349600D01*
X12957331Y-13350740D01*
X12958205Y-13351903D01*
X12959051Y-13353084D01*
X12959867Y-13354284D01*
X12960657Y-13355502D01*
X12961416Y-13356739D01*
X12962146Y-13357994D01*
X12962848Y-13359266D01*
X12963519Y-13360552D01*
X12964161Y-13361856D01*
X12964771Y-13363175D01*
X12965351Y-13364509D01*
X12965900Y-13365857D01*
X12966417Y-13367220D01*
X12966969Y-13368779D01*
X12967485Y-13370349D01*
X12967965Y-13371928D01*
X12968408Y-13373518D01*
X12968812Y-13375117D01*
X12969181Y-13376724D01*
X12969512Y-13378338D01*
X12969806Y-13379959D01*
X12970062Y-13381587D01*
X12970282Y-13383221D01*
X12970464Y-13384859D01*
X12970606Y-13386502D01*
X12970712Y-13388148D01*
X12970781Y-13389799D01*
X12970810Y-13391450D01*
X12970802Y-13393103D01*
X12970802Y-13395456D01*
X12970724Y-13397802D01*
X12970568Y-13400141D01*
X12970336Y-13402469D01*
X12970027Y-13404786D01*
X12969642Y-13407090D01*
X12969181Y-13409380D01*
X12968645Y-13411652D01*
X12968035Y-13413903D01*
X12967350Y-13416136D01*
X12966592Y-13418346D01*
X12965760Y-13420531D01*
X12964855Y-13422689D01*
X12963879Y-13424819D01*
X12962830Y-13426920D01*
X12961711Y-13428989D01*
X12960514Y-13430980D01*
X12959252Y-13432925D01*
X12957921Y-13434818D01*
X12956525Y-13436659D01*
X12955066Y-13438446D01*
X12953545Y-13440179D01*
X12951964Y-13441854D01*
X12950324Y-13443472D01*
X12948628Y-13445029D01*
X12946876Y-13446525D01*
X12945069Y-13447958D01*
X12943212Y-13449327D01*
X12941303Y-13450628D01*
X12939346Y-13451863D01*
X12937342Y-13453028D01*
X12935293Y-13454123D01*
X12932847Y-13455282D01*
X12930372Y-13456363D01*
X12927869Y-13457368D01*
X12925338Y-13458295D01*
X12922784Y-13459143D01*
X12920206Y-13459914D01*
X12917609Y-13460605D01*
X12914990Y-13461218D01*
X12912355Y-13461750D01*
X12909705Y-13462203D01*
X12907041Y-13462575D01*
X12904365Y-13462866D01*
X12901679Y-13463076D01*
X12898985Y-13463205D01*
X12896283Y-13463251D01*
X12893578Y-13463215D01*
X12890863Y-13463256D01*
X12888153Y-13463212D01*
X12885450Y-13463086D01*
X12882755Y-13462876D01*
X12880070Y-13462583D01*
X12877398Y-13462209D01*
X12874739Y-13461751D01*
X12872096Y-13461212D01*
X12869472Y-13460592D01*
X12866867Y-13459892D01*
X12864283Y-13459110D01*
X12861724Y-13458250D01*
X12859190Y-13457310D01*
X12856682Y-13456291D01*
X12854204Y-13455193D01*
X12851757Y-13454016D01*
X12849723Y-13452915D01*
X12847732Y-13451746D01*
X12845790Y-13450509D01*
X12843896Y-13449205D01*
X12842051Y-13447837D01*
X12840257Y-13446405D01*
X12838517Y-13444911D01*
X12836831Y-13443357D01*
X12835202Y-13441744D01*
X12833630Y-13440074D01*
X12832117Y-13438348D01*
X12830665Y-13436568D01*
X12829276Y-13434735D01*
X12827950Y-13432850D01*
X12826692Y-13430916D01*
X12825500Y-13428934D01*
X12824386Y-13426878D01*
X12823342Y-13424792D01*
X12822369Y-13422674D01*
X12821469Y-13420528D01*
X12820639Y-13418356D01*
X12819883Y-13416160D01*
X12819199Y-13413941D01*
X12818589Y-13411702D01*
X12818053Y-13409443D01*
X12817592Y-13407169D01*
X12817204Y-13404879D01*
X12816892Y-13402575D01*
X12816657Y-13400260D01*
X12816496Y-13397935D01*
X12816414Y-13395603D01*
X12816407Y-13393265D01*
X12816444Y-13390185D01*
X12816602Y-13387112D01*
X12816883Y-13384051D01*
X12817285Y-13381004D01*
X12817808Y-13377976D01*
X12818452Y-13374970D01*
X12819215Y-13371989D01*
X12820098Y-13369038D01*
X12820548Y-13367691D01*
X12821027Y-13366356D01*
X12821537Y-13365034D01*
X12822078Y-13363724D01*
X12822647Y-13362428D01*
X12823246Y-13361145D01*
X12823874Y-13359878D01*
X12824531Y-13358625D01*
X12825217Y-13357388D01*
X12825931Y-13356166D01*
X12826673Y-13354962D01*
X12827442Y-13353772D01*
X12828239Y-13352601D01*
X12829063Y-13351448D01*
X12829915Y-13350314D01*
X12830794Y-13349198D01*
X12831690Y-13348123D01*
X12832612Y-13347072D01*
X12833559Y-13346045D01*
X12834529Y-13345043D01*
X12835525Y-13344066D01*
X12836543Y-13343113D01*
X12837584Y-13342187D01*
X12838648Y-13341288D01*
X12839733Y-13340414D01*
X12840841Y-13339568D01*
X12841969Y-13338749D01*
X12843118Y-13337957D01*
X12844287Y-13337194D01*
X12845474Y-13336460D01*
X12846682Y-13335754D01*
X12847907Y-13335079D01*
X12849271Y-13334390D01*
X12850648Y-13333734D01*
X12852040Y-13333112D01*
X12853445Y-13332522D01*
X12854863Y-13331964D01*
X12856292Y-13331440D01*
X12857733Y-13330950D01*
X12859185Y-13330493D01*
X12860647Y-13330070D01*
X12862119Y-13329681D01*
X12863599Y-13329327D01*
X12865088Y-13329006D01*
X12866585Y-13328721D01*
X12868089Y-13328470D01*
X12869600Y-13328254D01*
X12871118Y-13328073D01*
X12871118Y-13360161D01*
G37*
%TO.C,C3*%
D11*
X13868854Y-13664000D02*
X13840146Y-13664000D01*
X13868854Y-13736000D02*
X13840146Y-13736000D01*
%TO.C,Z1*%
X14389476Y-14955716D02*
X14416838Y-14983078D01*
X14443216Y-14901976D02*
X14470578Y-14929338D01*
%TO.C,U4*%
X13861500Y-13311000D02*
X13861500Y-13189000D01*
X14138500Y-13231443D02*
X14138500Y-13311000D01*
X14158000Y-13216000D02*
X14139000Y-13202000D01*
X14158000Y-13188000D01*
X14158000Y-13216000D01*
G36*
X14158000Y-13216000D02*
G01*
X14139000Y-13202000D01*
X14158000Y-13188000D01*
X14158000Y-13216000D01*
G37*
%TO.C,R1*%
X13759000Y-13312652D02*
X13759000Y-13351347D01*
X13835000Y-13312652D02*
X13835000Y-13351347D01*
%TO.C,C7*%
X14313146Y-13086500D02*
X14341854Y-13086500D01*
X14313146Y-13158500D02*
X14341854Y-13158500D01*
%TO.C,Z3*%
X14219771Y-15125422D02*
X14247132Y-15152783D01*
X14273511Y-15071682D02*
X14300872Y-15099043D01*
%TO.C,U3*%
X14255500Y-13200000D02*
X14255500Y-13300000D01*
X14399500Y-13300000D02*
X14399500Y-13200000D01*
X14263500Y-13357000D02*
X14235500Y-13329000D01*
X14263500Y-13329000D01*
X14263500Y-13357000D01*
G36*
X14263500Y-13357000D02*
G01*
X14235500Y-13329000D01*
X14263500Y-13329000D01*
X14263500Y-13357000D01*
G37*
%TO.C,C2*%
X13568853Y-14804000D02*
X13540146Y-14804000D01*
X13568853Y-14876000D02*
X13540146Y-14876000D01*
%TO.C,R2*%
X14132152Y-14882000D02*
X14170847Y-14882000D01*
X14132152Y-14958000D02*
X14170847Y-14958000D01*
%TO.C,D1*%
X13622000Y-13106000D02*
X13622000Y-13237000D01*
X13744000Y-13106000D02*
X13622000Y-13106000D01*
X13744000Y-13106000D02*
X13744000Y-13237000D01*
%TO.C,J2*%
X13837500Y-15289000D02*
X13907500Y-15289000D01*
X13837500Y-15614000D02*
X13907500Y-15614000D01*
X13972500Y-15184000D02*
X13997500Y-15234000D01*
X13997500Y-15234000D02*
X14022500Y-15184000D01*
X14022500Y-15184000D02*
X13972500Y-15184000D01*
X14087500Y-15289000D02*
X14157500Y-15289000D01*
%TO.C,C6*%
X14168854Y-14804000D02*
X14140146Y-14804000D01*
X14168854Y-14876000D02*
X14140146Y-14876000D01*
%TO.C,U2*%
X13436500Y-13759000D02*
X14558500Y-13759000D01*
X13436500Y-14781000D02*
X13436500Y-13759000D01*
X14464188Y-14781000D02*
X13436500Y-14781000D01*
X14558500Y-13759000D02*
X14558500Y-14781000D01*
X14558500Y-14781000D02*
X14530812Y-14781000D01*
X14521500Y-14809000D02*
X14473500Y-14809000D01*
X14497500Y-14776000D01*
X14521500Y-14809000D01*
G36*
X14521500Y-14809000D02*
G01*
X14473500Y-14809000D01*
X14497500Y-14776000D01*
X14521500Y-14809000D01*
G37*
%TO.C,Z2*%
X14299458Y-14954302D02*
X14272096Y-14981663D01*
X14353198Y-15008042D02*
X14325837Y-15035404D01*
%TO.C,C5*%
X13668854Y-13664000D02*
X13640146Y-13664000D01*
X13668854Y-13736000D02*
X13640146Y-13736000D01*
%TO.C,C4*%
X14026146Y-13664000D02*
X14054854Y-13664000D01*
X14026146Y-13736000D02*
X14054854Y-13736000D01*
%TD*%
%LPC*%
D12*
%TO.C,LOGO1*%
G36*
X12969198Y-13924633D02*
G01*
X12874700Y-13989930D01*
X12874700Y-13990358D01*
X12969198Y-13990358D01*
X12969198Y-14022981D01*
X12818119Y-14022981D01*
X12818119Y-13994422D01*
X12818333Y-13994315D01*
X12912563Y-13929607D01*
X12912563Y-13929019D01*
X12818119Y-13929019D01*
X12818119Y-13896503D01*
X12969198Y-13896503D01*
X12969198Y-13924633D01*
G37*
G36*
X12969198Y-13707453D02*
G01*
X12968984Y-13707614D01*
X12930747Y-13729433D01*
X12969198Y-13750986D01*
X12969198Y-13784357D01*
X12912457Y-13750612D01*
X12855661Y-13783180D01*
X12855661Y-13749810D01*
X12894541Y-13729433D01*
X12855661Y-13708523D01*
X12855661Y-13675419D01*
X12912457Y-13708309D01*
X12969198Y-13674510D01*
X12969198Y-13707453D01*
G37*
G36*
X12967701Y-13599640D02*
G01*
X12968080Y-13600924D01*
X12968496Y-13602454D01*
X12968941Y-13604235D01*
X12969412Y-13606271D01*
X12969681Y-13607592D01*
X12969919Y-13608920D01*
X12970123Y-13610252D01*
X12970293Y-13611588D01*
X12970431Y-13612928D01*
X12970535Y-13614273D01*
X12970605Y-13615619D01*
X12970642Y-13616967D01*
X12970642Y-13619481D01*
X12970651Y-13620598D01*
X12970632Y-13621712D01*
X12970586Y-13622826D01*
X12970513Y-13623938D01*
X12970412Y-13625045D01*
X12970284Y-13626152D01*
X12970129Y-13627253D01*
X12969948Y-13628349D01*
X12969740Y-13629442D01*
X12969505Y-13630530D01*
X12969243Y-13631611D01*
X12968956Y-13632686D01*
X12968641Y-13633754D01*
X12968301Y-13634816D01*
X12967933Y-13635870D01*
X12967540Y-13636915D01*
X12967130Y-13637929D01*
X12966682Y-13638925D01*
X12966195Y-13639900D01*
X12965673Y-13640853D01*
X12965116Y-13641784D01*
X12964523Y-13642692D01*
X12963896Y-13643576D01*
X12963235Y-13644436D01*
X12962543Y-13645267D01*
X12961818Y-13646073D01*
X12961062Y-13646850D01*
X12960276Y-13647599D01*
X12959461Y-13648318D01*
X12958616Y-13649006D01*
X12957744Y-13649662D01*
X12956844Y-13650285D01*
X12955782Y-13650892D01*
X12954701Y-13651460D01*
X12953602Y-13651986D01*
X12952487Y-13652472D01*
X12951356Y-13652916D01*
X12950210Y-13653319D01*
X12949053Y-13653679D01*
X12947883Y-13653998D01*
X12946703Y-13654274D01*
X12945512Y-13654507D01*
X12944313Y-13654697D01*
X12943107Y-13654843D01*
X12941895Y-13654946D01*
X12940678Y-13655005D01*
X12939457Y-13655021D01*
X12938233Y-13654991D01*
X12880048Y-13654991D01*
X12880048Y-13670499D01*
X12855661Y-13670499D01*
X12855661Y-13654937D01*
X12836035Y-13654937D01*
X12817638Y-13622850D01*
X12855661Y-13622850D01*
X12855661Y-13601458D01*
X12880048Y-13601458D01*
X12880048Y-13622850D01*
X12934062Y-13622850D01*
X12934480Y-13622866D01*
X12934898Y-13622869D01*
X12935315Y-13622859D01*
X12935731Y-13622836D01*
X12936145Y-13622800D01*
X12936558Y-13622751D01*
X12936969Y-13622689D01*
X12937378Y-13622615D01*
X12937785Y-13622528D01*
X12938188Y-13622428D01*
X12938589Y-13622315D01*
X12938986Y-13622190D01*
X12939379Y-13622053D01*
X12939768Y-13621903D01*
X12940153Y-13621741D01*
X12940533Y-13621567D01*
X12940796Y-13621421D01*
X12941051Y-13621265D01*
X12941298Y-13621098D01*
X12941537Y-13620922D01*
X12941768Y-13620733D01*
X12941989Y-13620536D01*
X12942200Y-13620328D01*
X12942402Y-13620112D01*
X12942594Y-13619886D01*
X12942776Y-13619653D01*
X12942947Y-13619411D01*
X12943108Y-13619161D01*
X12943257Y-13618903D01*
X12943395Y-13618639D01*
X12943521Y-13618368D01*
X12943635Y-13618090D01*
X12943758Y-13617770D01*
X12943872Y-13617447D01*
X12943979Y-13617122D01*
X12944076Y-13616794D01*
X12944166Y-13616465D01*
X12944248Y-13616132D01*
X12944321Y-13615800D01*
X12944385Y-13615464D01*
X12944441Y-13615128D01*
X12944490Y-13614790D01*
X12944528Y-13614450D01*
X12944560Y-13614110D01*
X12944582Y-13613769D01*
X12944595Y-13613428D01*
X12944601Y-13613085D01*
X12944597Y-13612741D01*
X12944587Y-13612196D01*
X12944565Y-13611653D01*
X12944530Y-13611109D01*
X12944484Y-13610567D01*
X12944423Y-13610025D01*
X12944351Y-13609485D01*
X12944267Y-13608947D01*
X12944170Y-13608411D01*
X12943581Y-13605042D01*
X12943581Y-13604614D01*
X12944009Y-13604614D01*
X12967701Y-13599265D01*
X12967701Y-13599640D01*
G37*
G36*
X12911868Y-13781041D02*
G01*
X12920907Y-13781041D01*
X12920907Y-13853399D01*
X12900798Y-13853399D01*
X12900798Y-13811364D01*
X12900058Y-13811372D01*
X12899321Y-13811403D01*
X12898587Y-13811458D01*
X12897855Y-13811535D01*
X12897127Y-13811637D01*
X12896403Y-13811762D01*
X12895684Y-13811910D01*
X12894970Y-13812080D01*
X12894262Y-13812273D01*
X12893560Y-13812489D01*
X12892865Y-13812727D01*
X12892177Y-13812988D01*
X12891497Y-13813271D01*
X12890827Y-13813576D01*
X12890166Y-13813903D01*
X12889514Y-13814252D01*
X12888892Y-13814609D01*
X12888283Y-13814985D01*
X12887690Y-13815383D01*
X12887112Y-13815799D01*
X12886548Y-13816236D01*
X12886001Y-13816691D01*
X12885470Y-13817164D01*
X12884955Y-13817654D01*
X12884458Y-13818162D01*
X12883978Y-13818687D01*
X12883516Y-13819228D01*
X12883072Y-13819786D01*
X12882648Y-13820359D01*
X12882243Y-13820947D01*
X12881857Y-13821549D01*
X12881491Y-13822167D01*
X12881132Y-13822847D01*
X12880795Y-13823537D01*
X12880483Y-13824236D01*
X12880192Y-13824946D01*
X12879927Y-13825663D01*
X12879684Y-13826388D01*
X12879466Y-13827120D01*
X12879273Y-13827860D01*
X12879102Y-13828603D01*
X12878957Y-13829354D01*
X12878836Y-13830108D01*
X12878739Y-13830867D01*
X12878668Y-13831630D01*
X12878622Y-13832395D01*
X12878600Y-13833163D01*
X12878604Y-13833932D01*
X12878602Y-13834744D01*
X12878628Y-13835554D01*
X12878682Y-13836361D01*
X12878763Y-13837164D01*
X12878872Y-13837963D01*
X12879007Y-13838758D01*
X12879169Y-13839548D01*
X12879359Y-13840330D01*
X12879574Y-13841105D01*
X12879816Y-13841874D01*
X12880085Y-13842635D01*
X12880379Y-13843385D01*
X12880699Y-13844126D01*
X12881045Y-13844858D01*
X12881416Y-13845578D01*
X12881813Y-13846286D01*
X12882208Y-13846940D01*
X12882624Y-13847578D01*
X12883060Y-13848202D01*
X12883516Y-13848811D01*
X12883991Y-13849403D01*
X12884486Y-13849979D01*
X12884998Y-13850539D01*
X12885529Y-13851080D01*
X12886077Y-13851604D01*
X12886642Y-13852109D01*
X12887225Y-13852595D01*
X12887822Y-13853064D01*
X12888437Y-13853514D01*
X12889066Y-13853940D01*
X12889711Y-13854348D01*
X12890369Y-13854735D01*
X12890989Y-13855065D01*
X12891618Y-13855377D01*
X12892255Y-13855670D01*
X12892900Y-13855944D01*
X12893552Y-13856200D01*
X12894210Y-13856436D01*
X12894874Y-13856653D01*
X12895545Y-13856852D01*
X12896220Y-13857030D01*
X12896901Y-13857190D01*
X12897586Y-13857329D01*
X12898275Y-13857449D01*
X12898968Y-13857550D01*
X12899664Y-13857630D01*
X12900364Y-13857690D01*
X12901066Y-13857730D01*
X12920692Y-13857730D01*
X12921620Y-13857741D01*
X12922547Y-13857724D01*
X12923471Y-13857680D01*
X12924393Y-13857610D01*
X12925310Y-13857511D01*
X12926224Y-13857387D01*
X12927135Y-13857234D01*
X12928039Y-13857056D01*
X12928939Y-13856851D01*
X12929830Y-13856618D01*
X12930718Y-13856361D01*
X12931596Y-13856077D01*
X12932467Y-13855767D01*
X12933329Y-13855431D01*
X12934182Y-13855069D01*
X12935024Y-13854682D01*
X12935739Y-13854310D01*
X12936438Y-13853912D01*
X12937120Y-13853491D01*
X12937786Y-13853044D01*
X12938433Y-13852575D01*
X12939063Y-13852082D01*
X12939674Y-13851568D01*
X12940265Y-13851030D01*
X12940836Y-13850473D01*
X12941387Y-13849894D01*
X12941916Y-13849295D01*
X12942423Y-13848677D01*
X12942908Y-13848039D01*
X12943370Y-13847383D01*
X12943809Y-13846710D01*
X12944223Y-13846019D01*
X12944628Y-13845248D01*
X12945006Y-13844467D01*
X12945357Y-13843675D01*
X12945683Y-13842871D01*
X12945981Y-13842059D01*
X12946251Y-13841239D01*
X12946495Y-13840410D01*
X12946712Y-13839573D01*
X12946900Y-13838731D01*
X12947061Y-13837881D01*
X12947193Y-13837028D01*
X12947298Y-13836169D01*
X12947374Y-13835306D01*
X12947422Y-13834441D01*
X12947441Y-13833572D01*
X12947432Y-13832702D01*
X12947421Y-13831505D01*
X12947362Y-13830311D01*
X12947253Y-13829121D01*
X12947096Y-13827937D01*
X12946891Y-13826761D01*
X12946638Y-13825592D01*
X12946337Y-13824435D01*
X12945988Y-13823290D01*
X12945623Y-13822267D01*
X12945201Y-13821274D01*
X12944726Y-13820311D01*
X12944198Y-13819381D01*
X12943618Y-13818486D01*
X12942990Y-13817628D01*
X12942317Y-13816807D01*
X12941596Y-13816028D01*
X12940833Y-13815291D01*
X12940028Y-13814597D01*
X12939184Y-13813950D01*
X12938303Y-13813350D01*
X12937386Y-13812801D01*
X12936434Y-13812303D01*
X12935450Y-13811860D01*
X12934436Y-13811471D01*
X12934116Y-13811471D01*
X12934116Y-13811150D01*
X12936094Y-13781737D01*
X12936576Y-13781737D01*
X12937846Y-13782014D01*
X12939104Y-13782333D01*
X12940349Y-13782692D01*
X12941580Y-13783091D01*
X12942796Y-13783530D01*
X12943996Y-13784007D01*
X12945179Y-13784523D01*
X12946345Y-13785077D01*
X12947492Y-13785669D01*
X12948619Y-13786298D01*
X12949725Y-13786964D01*
X12950811Y-13787667D01*
X12951873Y-13788404D01*
X12952914Y-13789177D01*
X12953928Y-13789986D01*
X12954919Y-13790828D01*
X12955915Y-13791748D01*
X12956881Y-13792694D01*
X12957819Y-13793666D01*
X12958728Y-13794666D01*
X12959605Y-13795690D01*
X12960451Y-13796740D01*
X12961266Y-13797812D01*
X12962050Y-13798908D01*
X12962800Y-13800026D01*
X12963519Y-13801167D01*
X12964205Y-13802328D01*
X12964855Y-13803509D01*
X12965472Y-13804710D01*
X12966055Y-13805930D01*
X12966601Y-13807167D01*
X12967112Y-13808422D01*
X12967652Y-13809911D01*
X12968155Y-13811411D01*
X12968623Y-13812921D01*
X12969055Y-13814440D01*
X12969451Y-13815969D01*
X12969810Y-13817506D01*
X12970134Y-13819050D01*
X12970420Y-13820601D01*
X12970671Y-13822158D01*
X12970885Y-13823722D01*
X12971062Y-13825290D01*
X12971201Y-13826862D01*
X12971305Y-13828438D01*
X12971370Y-13830018D01*
X12971399Y-13831600D01*
X12971390Y-13833183D01*
X12971410Y-13835147D01*
X12971366Y-13837108D01*
X12971261Y-13839062D01*
X12971090Y-13841010D01*
X12970858Y-13842949D01*
X12970565Y-13844878D01*
X12970208Y-13846795D01*
X12969789Y-13848700D01*
X12969311Y-13850589D01*
X12968772Y-13852465D01*
X12968171Y-13854321D01*
X12967512Y-13856159D01*
X12966792Y-13857976D01*
X12966012Y-13859773D01*
X12965174Y-13861544D01*
X12964278Y-13863292D01*
X12963369Y-13864836D01*
X12962408Y-13866344D01*
X12961393Y-13867811D01*
X12960326Y-13869238D01*
X12959212Y-13870625D01*
X12958047Y-13871967D01*
X12956835Y-13873266D01*
X12955577Y-13874518D01*
X12954275Y-13875725D01*
X12952930Y-13876884D01*
X12951541Y-13877993D01*
X12950111Y-13879051D01*
X12948642Y-13880059D01*
X12947134Y-13881013D01*
X12945590Y-13881914D01*
X12944009Y-13882759D01*
X12942186Y-13883615D01*
X12940341Y-13884415D01*
X12938474Y-13885158D01*
X12936589Y-13885846D01*
X12934686Y-13886476D01*
X12932766Y-13887047D01*
X12930830Y-13887562D01*
X12928881Y-13888019D01*
X12926919Y-13888417D01*
X12924945Y-13888757D01*
X12922962Y-13889038D01*
X12920970Y-13889260D01*
X12918969Y-13889422D01*
X12916963Y-13889526D01*
X12914952Y-13889568D01*
X12912938Y-13889551D01*
X12910947Y-13889560D01*
X12908960Y-13889512D01*
X12906977Y-13889403D01*
X12905001Y-13889236D01*
X12903032Y-13889012D01*
X12901072Y-13888728D01*
X12899122Y-13888387D01*
X12897184Y-13887988D01*
X12895258Y-13887532D01*
X12893346Y-13887018D01*
X12891449Y-13886449D01*
X12889569Y-13885822D01*
X12887707Y-13885140D01*
X12885864Y-13884401D01*
X12884041Y-13883608D01*
X12882241Y-13882759D01*
X12880655Y-13881919D01*
X12879103Y-13881025D01*
X12877587Y-13880079D01*
X12876106Y-13879082D01*
X12874663Y-13878036D01*
X12873258Y-13876942D01*
X12871893Y-13875800D01*
X12870569Y-13874611D01*
X12869288Y-13873376D01*
X12868050Y-13872097D01*
X12866856Y-13870776D01*
X12865708Y-13869412D01*
X12864607Y-13868007D01*
X12863554Y-13866563D01*
X12862551Y-13865080D01*
X12861598Y-13863559D01*
X12860681Y-13861886D01*
X12859823Y-13860187D01*
X12859025Y-13858462D01*
X12858287Y-13856713D01*
X12857610Y-13854942D01*
X12856993Y-13853151D01*
X12856438Y-13851342D01*
X12855945Y-13849514D01*
X12855514Y-13847671D01*
X12855146Y-13845815D01*
X12854840Y-13843945D01*
X12854598Y-13842064D01*
X12854419Y-13840175D01*
X12854305Y-13838278D01*
X12854255Y-13836375D01*
X12854271Y-13834467D01*
X12854272Y-13833127D01*
X12854305Y-13831790D01*
X12854366Y-13830455D01*
X12854459Y-13829121D01*
X12854580Y-13827792D01*
X12854731Y-13826465D01*
X12854911Y-13825143D01*
X12855122Y-13823824D01*
X12855361Y-13822511D01*
X12855630Y-13821204D01*
X12855928Y-13819902D01*
X12856255Y-13818608D01*
X12856612Y-13817320D01*
X12856997Y-13816039D01*
X12857411Y-13814767D01*
X12857854Y-13813503D01*
X12858300Y-13812314D01*
X12858776Y-13811139D01*
X12859284Y-13809980D01*
X12859823Y-13808833D01*
X12860392Y-13807705D01*
X12860991Y-13806592D01*
X12861620Y-13805497D01*
X12862277Y-13804419D01*
X12862963Y-13803358D01*
X12863679Y-13802317D01*
X12864423Y-13801295D01*
X12865194Y-13800292D01*
X12865993Y-13799312D01*
X12866819Y-13798352D01*
X12867671Y-13797413D01*
X12868550Y-13796496D01*
X12869520Y-13795561D01*
X12870514Y-13794654D01*
X12871531Y-13793776D01*
X12872570Y-13792926D01*
X12873631Y-13792105D01*
X12874714Y-13791313D01*
X12875817Y-13790551D01*
X12876941Y-13789820D01*
X12878083Y-13789119D01*
X12879245Y-13788449D01*
X12880425Y-13787811D01*
X12881621Y-13787204D01*
X12882836Y-13786630D01*
X12884066Y-13786089D01*
X12885311Y-13785581D01*
X12886572Y-13785106D01*
X12888100Y-13784590D01*
X12889638Y-13784108D01*
X12891186Y-13783660D01*
X12892742Y-13783248D01*
X12894306Y-13782871D01*
X12895877Y-13782528D01*
X12897456Y-13782220D01*
X12899039Y-13781948D01*
X12900629Y-13781710D01*
X12902225Y-13781508D01*
X12903824Y-13781341D01*
X12905428Y-13781210D01*
X12907034Y-13781115D01*
X12908644Y-13781055D01*
X12910255Y-13781030D01*
X12911868Y-13781041D01*
G37*
%TD*%
D13*
%TO.C,H1*%
X12870000Y-14650000D03*
%TD*%
%TO.C,H2*%
X15130000Y-14650000D03*
%TD*%
D14*
%TO.C,C8*%
X14284500Y-13380000D03*
X14370500Y-13380000D03*
%TD*%
D15*
%TO.C,C3*%
X13897500Y-13700000D03*
X13811500Y-13700000D03*
%TD*%
D16*
%TO.C,Z1*%
X14397500Y-14910000D03*
X14462554Y-14975054D03*
%TD*%
D17*
%TO.C,U4*%
X14100000Y-13211250D03*
X14050000Y-13211250D03*
D18*
X14000000Y-13215000D03*
D17*
X13950000Y-13211250D03*
X13900000Y-13211250D03*
X13900000Y-13288750D03*
X13950000Y-13288750D03*
D19*
X14000000Y-13291250D03*
D17*
X14050000Y-13288750D03*
X14100000Y-13288750D03*
%TD*%
D20*
%TO.C,R1*%
X13797000Y-13286000D03*
X13797000Y-13378000D03*
%TD*%
D14*
%TO.C,C7*%
X14284500Y-13122500D03*
X14370500Y-13122500D03*
%TD*%
D16*
%TO.C,Z3*%
X14227794Y-15079706D03*
X14292848Y-15144759D03*
%TD*%
D21*
%TO.C,U3*%
X14295000Y-13298500D03*
D22*
X14360000Y-13298500D03*
D23*
X14360000Y-13201500D03*
D24*
X14295000Y-13201500D03*
D25*
X14327500Y-13250000D03*
%TD*%
D26*
%TO.C,J1*%
X13725000Y-12887000D03*
X13775000Y-12887000D03*
X13825000Y-12887000D03*
X13875000Y-12887000D03*
X13925000Y-12887000D03*
X13975000Y-12887000D03*
X14025000Y-12887000D03*
X14075000Y-12887000D03*
X14125000Y-12887000D03*
X14175000Y-12887000D03*
X14225000Y-12887000D03*
X14275000Y-12887000D03*
D27*
X14340000Y-12902000D03*
%TD*%
D15*
%TO.C,C2*%
X13597500Y-14840000D03*
X13511500Y-14840000D03*
%TD*%
D28*
%TO.C,R2*%
X14105500Y-14920000D03*
X14197500Y-14920000D03*
%TD*%
D29*
%TO.C,D1*%
X13683000Y-13152000D03*
X13683000Y-13222000D03*
%TD*%
D30*
%TO.C,J2*%
X13997500Y-15460000D03*
D31*
X14251500Y-15460000D03*
X13743500Y-15460000D03*
%TD*%
D15*
%TO.C,C6*%
X14197500Y-14840000D03*
X14111500Y-14840000D03*
%TD*%
D32*
%TO.C,U2*%
X14497500Y-14720000D03*
X14397500Y-14720000D03*
X14297500Y-14720000D03*
X14197500Y-14720000D03*
X14097500Y-14720000D03*
X13997500Y-14720000D03*
X13897500Y-14720000D03*
X13797500Y-14720000D03*
X13697500Y-14720000D03*
X13597500Y-14720000D03*
X13497500Y-14720000D03*
X13497500Y-14620000D03*
X13497500Y-14520000D03*
X13497500Y-14420000D03*
X13497500Y-14320000D03*
X13497500Y-14220000D03*
X13497500Y-14120000D03*
X13497500Y-14020000D03*
X13497500Y-13920000D03*
X13497500Y-13820000D03*
X13597500Y-13820000D03*
X13697500Y-13820000D03*
X13797500Y-13820000D03*
X13897500Y-13820000D03*
X13997500Y-13820000D03*
X14097500Y-13820000D03*
X14197500Y-13820000D03*
X14297500Y-13820000D03*
X14397500Y-13820000D03*
X14497500Y-13820000D03*
X14497500Y-13920000D03*
X14497500Y-14020000D03*
X14497500Y-14120000D03*
X14497500Y-14220000D03*
X14497500Y-14320000D03*
X14497500Y-14420000D03*
X14497500Y-14520000D03*
X14497500Y-14620000D03*
%TD*%
D33*
%TO.C,Z2*%
X14345174Y-14962326D03*
X14280120Y-15027380D03*
%TD*%
D15*
%TO.C,C5*%
X13697500Y-13700000D03*
X13611500Y-13700000D03*
%TD*%
D14*
%TO.C,C4*%
X13997500Y-13700000D03*
X14083500Y-13700000D03*
%TD*%
%LPD*%
M02*
