%TF.GenerationSoftware,KiCad,Pcbnew,10.0.1-10.0.1~ubuntu25.10.1*%
%TF.CreationDate,2026-04-27T21:14:21-04:00*%
%TF.ProjectId,Day_01_Wi-Fi-Halow,4461795f-3031-45f5-9769-2d46692d4861,X1*%
%TF.SameCoordinates,Original*%
%TF.FileFunction,Soldermask,Top*%
%TF.FilePolarity,Negative*%
%FSLAX45Y45*%
G04 Gerber Fmt 4.5, Leading zero omitted, Abs format (unit mm)*
G04 Created by KiCad (PCBNEW 10.0.1-10.0.1~ubuntu25.10.1) date 2026-04-27 21:14:21*
%MOMM*%
%LPD*%
G01*
G04 APERTURE LIST*
G04 Aperture macros list*
%AMRoundRect*
0 Rectangle with rounded corners*
0 $1 Rounding radius*
0 $2 $3 $4 $5 $6 $7 $8 $9 X,Y pos of 4 corners*
0 Add a 4 corners polygon primitive as box body*
4,1,4,$2,$3,$4,$5,$6,$7,$8,$9,$2,$3,0*
0 Add four circle primitives for the rounded corners*
1,1,$1+$1,$2,$3*
1,1,$1+$1,$4,$5*
1,1,$1+$1,$6,$7*
1,1,$1+$1,$8,$9*
0 Add four rect primitives between the rounded corners*
20,1,$1+$1,$2,$3,$4,$5,0*
20,1,$1+$1,$4,$5,$6,$7,0*
20,1,$1+$1,$6,$7,$8,$9,0*
20,1,$1+$1,$8,$9,$2,$3,0*%
%AMRotRect*
0 Rectangle, with rotation*
0 The origin of the aperture is its center*
0 $1 length*
0 $2 width*
0 $3 Rotation angle, in degrees counterclockwise*
0 Add horizontal line*
21,1,$1,$2,0,0,$3*%
%AMFreePoly0*
4,1,6,0.130000,0.115000,0.130000,-0.115000,-0.130000,-0.115000,-0.130000,0.275000,-0.020000,0.275000,0.130000,0.115000,0.130000,0.115000,$1*%
%AMFreePoly1*
4,1,6,0.130000,-0.115000,-0.130000,-0.115000,-0.130000,0.115000,0.020000,0.275000,0.130000,0.275000,0.130000,-0.115000,0.130000,-0.115000,$1*%
G04 Aperture macros list end*
%ADD10C,0.000000*%
%ADD11C,2.200000*%
%ADD12RoundRect,0.115000X-0.115000X-0.145000X0.115000X-0.145000X0.115000X0.145000X-0.115000X0.145000X0*%
%ADD13RoundRect,0.115000X0.115000X0.145000X-0.115000X0.145000X-0.115000X-0.145000X0.115000X-0.145000X0*%
%ADD14RoundRect,0.110000X-0.190919X-0.035355X-0.035355X-0.190919X0.190919X0.035355X0.035355X0.190919X0*%
%ADD15RoundRect,0.062500X-0.062500X0.250000X-0.062500X-0.250000X0.062500X-0.250000X0.062500X0.250000X0*%
%ADD16RoundRect,0.112500X-0.112500X0.237500X-0.112500X-0.237500X0.112500X-0.237500X0.112500X0.237500X0*%
%ADD17RoundRect,0.112500X-0.112500X0.175000X-0.112500X-0.175000X0.112500X-0.175000X0.112500X0.175000X0*%
%ADD18RoundRect,0.110000X-0.160000X0.110000X-0.160000X-0.110000X0.160000X-0.110000X0.160000X0.110000X0*%
%ADD19FreePoly0,0.000000*%
%ADD20FreePoly1,0.000000*%
%ADD21FreePoly0,180.000000*%
%ADD22FreePoly1,180.000000*%
%ADD23RotRect,0.520000X0.520000X225.000000*%
%ADD24RoundRect,0.075000X-0.075000X-0.675000X0.075000X-0.675000X0.075000X0.675000X-0.075000X0.675000X0*%
%ADD25RoundRect,0.075000X-0.075000X-0.825000X0.075000X-0.825000X0.075000X0.825000X-0.075000X0.825000X0*%
%ADD26RoundRect,0.110000X-0.110000X-0.160000X0.110000X-0.160000X0.110000X0.160000X-0.110000X0.160000X0*%
%ADD27RoundRect,0.050000X-0.300000X0.150000X-0.300000X-0.150000X0.300000X-0.150000X0.300000X0.150000X0*%
%ADD28RoundRect,0.299213X-0.460787X-1.730787X0.460787X-1.730787X0.460787X1.730787X-0.460787X1.730787X0*%
%ADD29RoundRect,0.281481X-0.478519X-1.748519X0.478519X-1.748519X0.478519X1.748519X-0.478519X1.748519X0*%
%ADD30RoundRect,0.150000X0.150000X0.150000X-0.150000X0.150000X-0.150000X-0.150000X0.150000X-0.150000X0*%
%ADD31RoundRect,0.110000X-0.035355X0.190919X-0.190919X0.035355X0.035355X-0.190919X0.190919X-0.035355X0*%
G04 APERTURE END LIST*
D10*
%TO.C,LOGO1*%
G36*
X12969198Y-13924633D02*
G01*
X12874700Y-13989930D01*
X12874700Y-13990358D01*
X12969198Y-13990358D01*
X12969198Y-14022981D01*
X12818119Y-14022981D01*
X12818119Y-13994422D01*
X12818333Y-13994315D01*
X12912563Y-13929607D01*
X12912563Y-13929019D01*
X12818119Y-13929019D01*
X12818119Y-13896503D01*
X12969198Y-13896503D01*
X12969198Y-13924633D01*
G37*
G36*
X12969198Y-13707453D02*
G01*
X12968984Y-13707614D01*
X12930747Y-13729433D01*
X12969198Y-13750986D01*
X12969198Y-13784357D01*
X12912457Y-13750612D01*
X12855661Y-13783180D01*
X12855661Y-13749810D01*
X12894541Y-13729433D01*
X12855661Y-13708523D01*
X12855661Y-13675419D01*
X12912457Y-13708309D01*
X12969198Y-13674510D01*
X12969198Y-13707453D01*
G37*
G36*
X12967701Y-13599640D02*
G01*
X12968080Y-13600924D01*
X12968496Y-13602454D01*
X12968941Y-13604235D01*
X12969412Y-13606271D01*
X12969681Y-13607592D01*
X12969919Y-13608920D01*
X12970123Y-13610252D01*
X12970293Y-13611588D01*
X12970431Y-13612928D01*
X12970535Y-13614273D01*
X12970605Y-13615619D01*
X12970642Y-13616967D01*
X12970642Y-13619481D01*
X12970651Y-13620598D01*
X12970632Y-13621712D01*
X12970586Y-13622826D01*
X12970513Y-13623938D01*
X12970412Y-13625045D01*
X12970284Y-13626152D01*
X12970129Y-13627253D01*
X12969948Y-13628349D01*
X12969740Y-13629442D01*
X12969505Y-13630530D01*
X12969243Y-13631611D01*
X12968956Y-13632686D01*
X12968641Y-13633754D01*
X12968301Y-13634816D01*
X12967933Y-13635870D01*
X12967540Y-13636915D01*
X12967130Y-13637929D01*
X12966682Y-13638925D01*
X12966195Y-13639900D01*
X12965673Y-13640853D01*
X12965116Y-13641784D01*
X12964523Y-13642692D01*
X12963896Y-13643576D01*
X12963235Y-13644436D01*
X12962543Y-13645267D01*
X12961818Y-13646073D01*
X12961062Y-13646850D01*
X12960276Y-13647599D01*
X12959461Y-13648318D01*
X12958616Y-13649006D01*
X12957744Y-13649662D01*
X12956844Y-13650285D01*
X12955782Y-13650892D01*
X12954701Y-13651460D01*
X12953602Y-13651986D01*
X12952487Y-13652472D01*
X12951356Y-13652916D01*
X12950210Y-13653319D01*
X12949053Y-13653679D01*
X12947883Y-13653998D01*
X12946703Y-13654274D01*
X12945512Y-13654507D01*
X12944313Y-13654697D01*
X12943107Y-13654843D01*
X12941895Y-13654946D01*
X12940678Y-13655005D01*
X12939457Y-13655021D01*
X12938233Y-13654991D01*
X12880048Y-13654991D01*
X12880048Y-13670499D01*
X12855661Y-13670499D01*
X12855661Y-13654937D01*
X12836035Y-13654937D01*
X12817638Y-13622850D01*
X12855661Y-13622850D01*
X12855661Y-13601458D01*
X12880048Y-13601458D01*
X12880048Y-13622850D01*
X12934062Y-13622850D01*
X12934480Y-13622866D01*
X12934898Y-13622869D01*
X12935315Y-13622859D01*
X12935731Y-13622836D01*
X12936145Y-13622800D01*
X12936558Y-13622751D01*
X12936969Y-13622689D01*
X12937378Y-13622615D01*
X12937785Y-13622528D01*
X12938188Y-13622428D01*
X12938589Y-13622315D01*
X12938986Y-13622190D01*
X12939379Y-13622053D01*
X12939768Y-13621903D01*
X12940153Y-13621741D01*
X12940533Y-13621567D01*
X12940796Y-13621421D01*
X12941051Y-13621265D01*
X12941298Y-13621098D01*
X12941537Y-13620922D01*
X12941768Y-13620733D01*
X12941989Y-13620536D01*
X12942200Y-13620328D01*
X12942402Y-13620112D01*
X12942594Y-13619886D01*
X12942776Y-13619653D01*
X12942947Y-13619411D01*
X12943108Y-13619161D01*
X12943257Y-13618903D01*
X12943395Y-13618639D01*
X12943521Y-13618368D01*
X12943635Y-13618090D01*
X12943758Y-13617770D01*
X12943872Y-13617447D01*
X12943979Y-13617122D01*
X12944076Y-13616794D01*
X12944166Y-13616465D01*
X12944248Y-13616132D01*
X12944321Y-13615800D01*
X12944385Y-13615464D01*
X12944441Y-13615128D01*
X12944490Y-13614790D01*
X12944528Y-13614450D01*
X12944560Y-13614110D01*
X12944582Y-13613769D01*
X12944595Y-13613428D01*
X12944601Y-13613085D01*
X12944597Y-13612741D01*
X12944587Y-13612196D01*
X12944565Y-13611653D01*
X12944530Y-13611109D01*
X12944484Y-13610567D01*
X12944423Y-13610025D01*
X12944351Y-13609485D01*
X12944267Y-13608947D01*
X12944170Y-13608411D01*
X12943581Y-13605042D01*
X12943581Y-13604614D01*
X12944009Y-13604614D01*
X12967701Y-13599265D01*
X12967701Y-13599640D01*
G37*
G36*
X12911868Y-13781041D02*
G01*
X12920907Y-13781041D01*
X12920907Y-13853399D01*
X12900798Y-13853399D01*
X12900798Y-13811364D01*
X12900058Y-13811372D01*
X12899321Y-13811403D01*
X12898587Y-13811458D01*
X12897855Y-13811535D01*
X12897127Y-13811637D01*
X12896403Y-13811762D01*
X12895684Y-13811910D01*
X12894970Y-13812080D01*
X12894262Y-13812273D01*
X12893560Y-13812489D01*
X12892865Y-13812727D01*
X12892177Y-13812988D01*
X12891497Y-13813271D01*
X12890827Y-13813576D01*
X12890166Y-13813903D01*
X12889514Y-13814252D01*
X12888892Y-13814609D01*
X12888283Y-13814985D01*
X12887690Y-13815383D01*
X12887112Y-13815799D01*
X12886548Y-13816236D01*
X12886001Y-13816691D01*
X12885470Y-13817164D01*
X12884955Y-13817654D01*
X12884458Y-13818162D01*
X12883978Y-13818687D01*
X12883516Y-13819228D01*
X12883072Y-13819786D01*
X12882648Y-13820359D01*
X12882243Y-13820947D01*
X12881857Y-13821549D01*
X12881491Y-13822167D01*
X12881132Y-13822847D01*
X12880795Y-13823537D01*
X12880483Y-13824236D01*
X12880192Y-13824946D01*
X12879927Y-13825663D01*
X12879684Y-13826388D01*
X12879466Y-13827120D01*
X12879273Y-13827860D01*
X12879102Y-13828603D01*
X12878957Y-13829354D01*
X12878836Y-13830108D01*
X12878739Y-13830867D01*
X12878668Y-13831630D01*
X12878622Y-13832395D01*
X12878600Y-13833163D01*
X12878604Y-13833932D01*
X12878602Y-13834744D01*
X12878628Y-13835554D01*
X12878682Y-13836361D01*
X12878763Y-13837164D01*
X12878872Y-13837963D01*
X12879007Y-13838758D01*
X12879169Y-13839548D01*
X12879359Y-13840330D01*
X12879574Y-13841105D01*
X12879816Y-13841874D01*
X12880085Y-13842635D01*
X12880379Y-13843385D01*
X12880699Y-13844126D01*
X12881045Y-13844858D01*
X12881416Y-13845578D01*
X12881813Y-13846286D01*
X12882208Y-13846940D01*
X12882624Y-13847578D01*
X12883060Y-13848202D01*
X12883516Y-13848811D01*
X12883991Y-13849403D01*
X12884486Y-13849979D01*
X12884998Y-13850539D01*
X12885529Y-13851080D01*
X12886077Y-13851604D01*
X12886642Y-13852109D01*
X12887225Y-13852595D01*
X12887822Y-13853064D01*
X12888437Y-13853514D01*
X12889066Y-13853940D01*
X12889711Y-13854348D01*
X12890369Y-13854735D01*
X12890989Y-13855065D01*
X12891618Y-13855377D01*
X12892255Y-13855670D01*
X12892900Y-13855944D01*
X12893552Y-13856200D01*
X12894210Y-13856436D01*
X12894874Y-13856653D01*
X12895545Y-13856852D01*
X12896220Y-13857030D01*
X12896901Y-13857190D01*
X12897586Y-13857329D01*
X12898275Y-13857449D01*
X12898968Y-13857550D01*
X12899664Y-13857630D01*
X12900364Y-13857690D01*
X12901066Y-13857730D01*
X12920692Y-13857730D01*
X12921620Y-13857741D01*
X12922547Y-13857724D01*
X12923471Y-13857680D01*
X12924393Y-13857610D01*
X12925310Y-13857511D01*
X12926224Y-13857387D01*
X12927135Y-13857234D01*
X12928039Y-13857056D01*
X12928939Y-13856851D01*
X12929830Y-13856618D01*
X12930718Y-13856361D01*
X12931596Y-13856077D01*
X12932467Y-13855767D01*
X12933329Y-13855431D01*
X12934182Y-13855069D01*
X12935024Y-13854682D01*
X12935739Y-13854310D01*
X12936438Y-13853912D01*
X12937120Y-13853491D01*
X12937786Y-13853044D01*
X12938433Y-13852575D01*
X12939063Y-13852082D01*
X12939674Y-13851568D01*
X12940265Y-13851030D01*
X12940836Y-13850473D01*
X12941387Y-13849894D01*
X12941916Y-13849295D01*
X12942423Y-13848677D01*
X12942908Y-13848039D01*
X12943370Y-13847383D01*
X12943809Y-13846710D01*
X12944223Y-13846019D01*
X12944628Y-13845248D01*
X12945006Y-13844467D01*
X12945357Y-13843675D01*
X12945683Y-13842871D01*
X12945981Y-13842059D01*
X12946251Y-13841239D01*
X12946495Y-13840410D01*
X12946712Y-13839573D01*
X12946900Y-13838731D01*
X12947061Y-13837881D01*
X12947193Y-13837028D01*
X12947298Y-13836169D01*
X12947374Y-13835306D01*
X12947422Y-13834441D01*
X12947441Y-13833572D01*
X12947432Y-13832702D01*
X12947421Y-13831505D01*
X12947362Y-13830311D01*
X12947253Y-13829121D01*
X12947096Y-13827937D01*
X12946891Y-13826761D01*
X12946638Y-13825592D01*
X12946337Y-13824435D01*
X12945988Y-13823290D01*
X12945623Y-13822267D01*
X12945201Y-13821274D01*
X12944726Y-13820311D01*
X12944198Y-13819381D01*
X12943618Y-13818486D01*
X12942990Y-13817628D01*
X12942317Y-13816807D01*
X12941596Y-13816028D01*
X12940833Y-13815291D01*
X12940028Y-13814597D01*
X12939184Y-13813950D01*
X12938303Y-13813350D01*
X12937386Y-13812801D01*
X12936434Y-13812303D01*
X12935450Y-13811860D01*
X12934436Y-13811471D01*
X12934116Y-13811471D01*
X12934116Y-13811150D01*
X12936094Y-13781737D01*
X12936576Y-13781737D01*
X12937846Y-13782014D01*
X12939104Y-13782333D01*
X12940349Y-13782692D01*
X12941580Y-13783091D01*
X12942796Y-13783530D01*
X12943996Y-13784007D01*
X12945179Y-13784523D01*
X12946345Y-13785077D01*
X12947492Y-13785669D01*
X12948619Y-13786298D01*
X12949725Y-13786964D01*
X12950811Y-13787667D01*
X12951873Y-13788404D01*
X12952914Y-13789177D01*
X12953928Y-13789986D01*
X12954919Y-13790828D01*
X12955915Y-13791748D01*
X12956881Y-13792694D01*
X12957819Y-13793666D01*
X12958728Y-13794666D01*
X12959605Y-13795690D01*
X12960451Y-13796740D01*
X12961266Y-13797812D01*
X12962050Y-13798908D01*
X12962800Y-13800026D01*
X12963519Y-13801167D01*
X12964205Y-13802328D01*
X12964855Y-13803509D01*
X12965472Y-13804710D01*
X12966055Y-13805930D01*
X12966601Y-13807167D01*
X12967112Y-13808422D01*
X12967652Y-13809911D01*
X12968155Y-13811411D01*
X12968623Y-13812921D01*
X12969055Y-13814440D01*
X12969451Y-13815969D01*
X12969810Y-13817506D01*
X12970134Y-13819050D01*
X12970420Y-13820601D01*
X12970671Y-13822158D01*
X12970885Y-13823722D01*
X12971062Y-13825290D01*
X12971201Y-13826862D01*
X12971305Y-13828438D01*
X12971370Y-13830018D01*
X12971399Y-13831600D01*
X12971390Y-13833183D01*
X12971410Y-13835147D01*
X12971366Y-13837108D01*
X12971261Y-13839062D01*
X12971090Y-13841010D01*
X12970858Y-13842949D01*
X12970565Y-13844878D01*
X12970208Y-13846795D01*
X12969789Y-13848700D01*
X12969311Y-13850589D01*
X12968772Y-13852465D01*
X12968171Y-13854321D01*
X12967512Y-13856159D01*
X12966792Y-13857976D01*
X12966012Y-13859773D01*
X12965174Y-13861544D01*
X12964278Y-13863292D01*
X12963369Y-13864836D01*
X12962408Y-13866344D01*
X12961393Y-13867811D01*
X12960326Y-13869238D01*
X12959212Y-13870625D01*
X12958047Y-13871967D01*
X12956835Y-13873266D01*
X12955577Y-13874518D01*
X12954275Y-13875725D01*
X12952930Y-13876884D01*
X12951541Y-13877993D01*
X12950111Y-13879051D01*
X12948642Y-13880059D01*
X12947134Y-13881013D01*
X12945590Y-13881914D01*
X12944009Y-13882759D01*
X12942186Y-13883615D01*
X12940341Y-13884415D01*
X12938474Y-13885158D01*
X12936589Y-13885846D01*
X12934686Y-13886476D01*
X12932766Y-13887047D01*
X12930830Y-13887562D01*
X12928881Y-13888019D01*
X12926919Y-13888417D01*
X12924945Y-13888757D01*
X12922962Y-13889038D01*
X12920970Y-13889260D01*
X12918969Y-13889422D01*
X12916963Y-13889526D01*
X12914952Y-13889568D01*
X12912938Y-13889551D01*
X12910947Y-13889560D01*
X12908960Y-13889512D01*
X12906977Y-13889403D01*
X12905001Y-13889236D01*
X12903032Y-13889012D01*
X12901072Y-13888728D01*
X12899122Y-13888387D01*
X12897184Y-13887988D01*
X12895258Y-13887532D01*
X12893346Y-13887018D01*
X12891449Y-13886449D01*
X12889569Y-13885822D01*
X12887707Y-13885140D01*
X12885864Y-13884401D01*
X12884041Y-13883608D01*
X12882241Y-13882759D01*
X12880655Y-13881919D01*
X12879103Y-13881025D01*
X12877587Y-13880079D01*
X12876106Y-13879082D01*
X12874663Y-13878036D01*
X12873258Y-13876942D01*
X12871893Y-13875800D01*
X12870569Y-13874611D01*
X12869288Y-13873376D01*
X12868050Y-13872097D01*
X12866856Y-13870776D01*
X12865708Y-13869412D01*
X12864607Y-13868007D01*
X12863554Y-13866563D01*
X12862551Y-13865080D01*
X12861598Y-13863559D01*
X12860681Y-13861886D01*
X12859823Y-13860187D01*
X12859025Y-13858462D01*
X12858287Y-13856713D01*
X12857610Y-13854942D01*
X12856993Y-13853151D01*
X12856438Y-13851342D01*
X12855945Y-13849514D01*
X12855514Y-13847671D01*
X12855146Y-13845815D01*
X12854840Y-13843945D01*
X12854598Y-13842064D01*
X12854419Y-13840175D01*
X12854305Y-13838278D01*
X12854255Y-13836375D01*
X12854271Y-13834467D01*
X12854272Y-13833127D01*
X12854305Y-13831790D01*
X12854366Y-13830455D01*
X12854459Y-13829121D01*
X12854580Y-13827792D01*
X12854731Y-13826465D01*
X12854911Y-13825143D01*
X12855122Y-13823824D01*
X12855361Y-13822511D01*
X12855630Y-13821204D01*
X12855928Y-13819902D01*
X12856255Y-13818608D01*
X12856612Y-13817320D01*
X12856997Y-13816039D01*
X12857411Y-13814767D01*
X12857854Y-13813503D01*
X12858300Y-13812314D01*
X12858776Y-13811139D01*
X12859284Y-13809980D01*
X12859823Y-13808833D01*
X12860392Y-13807705D01*
X12860991Y-13806592D01*
X12861620Y-13805497D01*
X12862277Y-13804419D01*
X12862963Y-13803358D01*
X12863679Y-13802317D01*
X12864423Y-13801295D01*
X12865194Y-13800292D01*
X12865993Y-13799312D01*
X12866819Y-13798352D01*
X12867671Y-13797413D01*
X12868550Y-13796496D01*
X12869520Y-13795561D01*
X12870514Y-13794654D01*
X12871531Y-13793776D01*
X12872570Y-13792926D01*
X12873631Y-13792105D01*
X12874714Y-13791313D01*
X12875817Y-13790551D01*
X12876941Y-13789820D01*
X12878083Y-13789119D01*
X12879245Y-13788449D01*
X12880425Y-13787811D01*
X12881621Y-13787204D01*
X12882836Y-13786630D01*
X12884066Y-13786089D01*
X12885311Y-13785581D01*
X12886572Y-13785106D01*
X12888100Y-13784590D01*
X12889638Y-13784108D01*
X12891186Y-13783660D01*
X12892742Y-13783248D01*
X12894306Y-13782871D01*
X12895877Y-13782528D01*
X12897456Y-13782220D01*
X12899039Y-13781948D01*
X12900629Y-13781710D01*
X12902225Y-13781508D01*
X12903824Y-13781341D01*
X12905428Y-13781210D01*
X12907034Y-13781115D01*
X12908644Y-13781055D01*
X12910255Y-13781030D01*
X12911868Y-13781041D01*
G37*
%TD*%
D11*
%TO.C,H1*%
X12870000Y-14650000D03*
%TD*%
%TO.C,H2*%
X15130000Y-14650000D03*
%TD*%
D12*
%TO.C,C8*%
X14284500Y-13380000D03*
X14370500Y-13380000D03*
%TD*%
D13*
%TO.C,C3*%
X13897500Y-13700000D03*
X13811500Y-13700000D03*
%TD*%
D14*
%TO.C,Z1*%
X14397500Y-14910000D03*
X14462554Y-14975054D03*
%TD*%
D15*
%TO.C,U4*%
X14100000Y-13211250D03*
X14050000Y-13211250D03*
D16*
X14000000Y-13215000D03*
D15*
X13950000Y-13211250D03*
X13900000Y-13211250D03*
X13900000Y-13288750D03*
X13950000Y-13288750D03*
D17*
X14000000Y-13291250D03*
D15*
X14050000Y-13288750D03*
X14100000Y-13288750D03*
%TD*%
D18*
%TO.C,R1*%
X13797000Y-13286000D03*
X13797000Y-13378000D03*
%TD*%
D12*
%TO.C,C7*%
X14284500Y-13122500D03*
X14370500Y-13122500D03*
%TD*%
D14*
%TO.C,Z3*%
X14227794Y-15079706D03*
X14292848Y-15144759D03*
%TD*%
D19*
%TO.C,U3*%
X14295000Y-13298500D03*
D20*
X14360000Y-13298500D03*
D21*
X14360000Y-13201500D03*
D22*
X14295000Y-13201500D03*
D23*
X14327500Y-13250000D03*
%TD*%
D24*
%TO.C,J1*%
X13725000Y-12887000D03*
X13775000Y-12887000D03*
X13825000Y-12887000D03*
X13875000Y-12887000D03*
X13925000Y-12887000D03*
X13975000Y-12887000D03*
X14025000Y-12887000D03*
X14075000Y-12887000D03*
X14125000Y-12887000D03*
X14175000Y-12887000D03*
X14225000Y-12887000D03*
X14275000Y-12887000D03*
D25*
X14340000Y-12902000D03*
%TD*%
D13*
%TO.C,C2*%
X13597500Y-14840000D03*
X13511500Y-14840000D03*
%TD*%
D26*
%TO.C,R2*%
X14105500Y-14920000D03*
X14197500Y-14920000D03*
%TD*%
D27*
%TO.C,D1*%
X13683000Y-13152000D03*
X13683000Y-13222000D03*
%TD*%
D28*
%TO.C,J2*%
X13997500Y-15460000D03*
D29*
X14251500Y-15460000D03*
X13743500Y-15460000D03*
%TD*%
D13*
%TO.C,C6*%
X14197500Y-14840000D03*
X14111500Y-14840000D03*
%TD*%
D30*
%TO.C,U2*%
X14497500Y-14720000D03*
X14397500Y-14720000D03*
X14297500Y-14720000D03*
X14197500Y-14720000D03*
X14097500Y-14720000D03*
X13997500Y-14720000D03*
X13897500Y-14720000D03*
X13797500Y-14720000D03*
X13697500Y-14720000D03*
X13597500Y-14720000D03*
X13497500Y-14720000D03*
X13497500Y-14620000D03*
X13497500Y-14520000D03*
X13497500Y-14420000D03*
X13497500Y-14320000D03*
X13497500Y-14220000D03*
X13497500Y-14120000D03*
X13497500Y-14020000D03*
X13497500Y-13920000D03*
X13497500Y-13820000D03*
X13597500Y-13820000D03*
X13697500Y-13820000D03*
X13797500Y-13820000D03*
X13897500Y-13820000D03*
X13997500Y-13820000D03*
X14097500Y-13820000D03*
X14197500Y-13820000D03*
X14297500Y-13820000D03*
X14397500Y-13820000D03*
X14497500Y-13820000D03*
X14497500Y-13920000D03*
X14497500Y-14020000D03*
X14497500Y-14120000D03*
X14497500Y-14220000D03*
X14497500Y-14320000D03*
X14497500Y-14420000D03*
X14497500Y-14520000D03*
X14497500Y-14620000D03*
%TD*%
D31*
%TO.C,Z2*%
X14345174Y-14962326D03*
X14280120Y-15027380D03*
%TD*%
D13*
%TO.C,C5*%
X13697500Y-13700000D03*
X13611500Y-13700000D03*
%TD*%
D12*
%TO.C,C4*%
X13997500Y-13700000D03*
X14083500Y-13700000D03*
%TD*%
M02*
