%TF.GenerationSoftware,KiCad,Pcbnew,10.0.1-10.0.1~ubuntu25.10.1*%
%TF.CreationDate,2026-04-27T21:14:21-04:00*%
%TF.ProjectId,Day_01_Wi-Fi-Halow,4461795f-3031-45f5-9769-2d46692d4861,X1*%
%TF.SameCoordinates,Original*%
%TF.FileFunction,Paste,Top*%
%TF.FilePolarity,Positive*%
%FSLAX45Y45*%
G04 Gerber Fmt 4.5, Leading zero omitted, Abs format (unit mm)*
G04 Created by KiCad (PCBNEW 10.0.1-10.0.1~ubuntu25.10.1) date 2026-04-27 21:14:21*
%MOMM*%
%LPD*%
G01*
G04 APERTURE LIST*
G04 Aperture macros list*
%AMRoundRect*
0 Rectangle with rounded corners*
0 $1 Rounding radius*
0 $2 $3 $4 $5 $6 $7 $8 $9 X,Y pos of 4 corners*
0 Add a 4 corners polygon primitive as box body*
4,1,4,$2,$3,$4,$5,$6,$7,$8,$9,$2,$3,0*
0 Add four circle primitives for the rounded corners*
1,1,$1+$1,$2,$3*
1,1,$1+$1,$4,$5*
1,1,$1+$1,$6,$7*
1,1,$1+$1,$8,$9*
0 Add four rect primitives between the rounded corners*
20,1,$1+$1,$2,$3,$4,$5,0*
20,1,$1+$1,$4,$5,$6,$7,0*
20,1,$1+$1,$6,$7,$8,$9,0*
20,1,$1+$1,$8,$9,$2,$3,0*%
%AMRotRect*
0 Rectangle, with rotation*
0 The origin of the aperture is its center*
0 $1 length*
0 $2 width*
0 $3 Rotation angle, in degrees counterclockwise*
0 Add horizontal line*
21,1,$1,$2,0,0,$3*%
%AMFreePoly0*
4,1,6,0.130000,0.115000,0.130000,-0.115000,-0.130000,-0.115000,-0.130000,0.275000,-0.020000,0.275000,0.130000,0.115000,0.130000,0.115000,$1*%
%AMFreePoly1*
4,1,6,0.130000,-0.115000,-0.130000,-0.115000,-0.130000,0.115000,0.020000,0.275000,0.130000,0.275000,0.130000,-0.115000,0.130000,-0.115000,$1*%
G04 Aperture macros list end*
%ADD10RoundRect,0.115000X-0.115000X-0.145000X0.115000X-0.145000X0.115000X0.145000X-0.115000X0.145000X0*%
%ADD11RoundRect,0.115000X0.115000X0.145000X-0.115000X0.145000X-0.115000X-0.145000X0.115000X-0.145000X0*%
%ADD12RoundRect,0.110000X-0.190919X-0.035355X-0.035355X-0.190919X0.190919X0.035355X0.035355X0.190919X0*%
%ADD13RoundRect,0.062500X-0.062500X0.250000X-0.062500X-0.250000X0.062500X-0.250000X0.062500X0.250000X0*%
%ADD14RoundRect,0.112500X-0.112500X0.237500X-0.112500X-0.237500X0.112500X-0.237500X0.112500X0.237500X0*%
%ADD15RoundRect,0.112500X-0.112500X0.175000X-0.112500X-0.175000X0.112500X-0.175000X0.112500X0.175000X0*%
%ADD16RoundRect,0.110000X-0.160000X0.110000X-0.160000X-0.110000X0.160000X-0.110000X0.160000X0.110000X0*%
%ADD17FreePoly0,0.000000*%
%ADD18FreePoly1,0.000000*%
%ADD19FreePoly0,180.000000*%
%ADD20FreePoly1,180.000000*%
%ADD21RotRect,0.520000X0.520000X225.000000*%
%ADD22RoundRect,0.075000X-0.075000X-0.675000X0.075000X-0.675000X0.075000X0.675000X-0.075000X0.675000X0*%
%ADD23RoundRect,0.075000X-0.075000X-0.825000X0.075000X-0.825000X0.075000X0.825000X-0.075000X0.825000X0*%
%ADD24RoundRect,0.110000X-0.110000X-0.160000X0.110000X-0.160000X0.110000X0.160000X-0.110000X0.160000X0*%
%ADD25RoundRect,0.050000X-0.250000X0.100000X-0.250000X-0.100000X0.250000X-0.100000X0.250000X0.100000X0*%
%ADD26RoundRect,0.150000X0.150000X0.150000X-0.150000X0.150000X-0.150000X-0.150000X0.150000X-0.150000X0*%
%ADD27RoundRect,0.110000X-0.035355X0.190919X-0.190919X0.035355X0.035355X-0.190919X0.190919X-0.035355X0*%
G04 APERTURE END LIST*
D10*
%TO.C,C8*%
X14284500Y-13380000D03*
X14370500Y-13380000D03*
%TD*%
D11*
%TO.C,C3*%
X13897500Y-13700000D03*
X13811500Y-13700000D03*
%TD*%
D12*
%TO.C,Z1*%
X14397500Y-14910000D03*
X14462554Y-14975054D03*
%TD*%
D13*
%TO.C,U4*%
X14100000Y-13211250D03*
X14050000Y-13211250D03*
D14*
X14000000Y-13215000D03*
D13*
X13950000Y-13211250D03*
X13900000Y-13211250D03*
X13900000Y-13288750D03*
X13950000Y-13288750D03*
D15*
X14000000Y-13291250D03*
D13*
X14050000Y-13288750D03*
X14100000Y-13288750D03*
%TD*%
D16*
%TO.C,R1*%
X13797000Y-13286000D03*
X13797000Y-13378000D03*
%TD*%
D10*
%TO.C,C7*%
X14284500Y-13122500D03*
X14370500Y-13122500D03*
%TD*%
D12*
%TO.C,Z3*%
X14227794Y-15079706D03*
X14292848Y-15144759D03*
%TD*%
D17*
%TO.C,U3*%
X14295000Y-13298500D03*
D18*
X14360000Y-13298500D03*
D19*
X14360000Y-13201500D03*
D20*
X14295000Y-13201500D03*
D21*
X14327500Y-13250000D03*
%TD*%
D22*
%TO.C,J1*%
X13725000Y-12887000D03*
X13775000Y-12887000D03*
X13825000Y-12887000D03*
X13875000Y-12887000D03*
X13925000Y-12887000D03*
X13975000Y-12887000D03*
X14025000Y-12887000D03*
X14075000Y-12887000D03*
X14125000Y-12887000D03*
X14175000Y-12887000D03*
X14225000Y-12887000D03*
X14275000Y-12887000D03*
D23*
X14340000Y-12902000D03*
%TD*%
D11*
%TO.C,C2*%
X13597500Y-14840000D03*
X13511500Y-14840000D03*
%TD*%
D24*
%TO.C,R2*%
X14105500Y-14920000D03*
X14197500Y-14920000D03*
%TD*%
D25*
%TO.C,D1*%
X13683000Y-13152000D03*
X13683000Y-13222000D03*
%TD*%
D11*
%TO.C,C6*%
X14197500Y-14840000D03*
X14111500Y-14840000D03*
%TD*%
D26*
%TO.C,U2*%
X14497500Y-14720000D03*
X14397500Y-14720000D03*
X14297500Y-14720000D03*
X14197500Y-14720000D03*
X14097500Y-14720000D03*
X13997500Y-14720000D03*
X13897500Y-14720000D03*
X13797500Y-14720000D03*
X13697500Y-14720000D03*
X13597500Y-14720000D03*
X13497500Y-14720000D03*
X13497500Y-14620000D03*
X13497500Y-14520000D03*
X13497500Y-14420000D03*
X13497500Y-14320000D03*
X13497500Y-14220000D03*
X13497500Y-14120000D03*
X13497500Y-14020000D03*
X13497500Y-13920000D03*
X13497500Y-13820000D03*
X13597500Y-13820000D03*
X13697500Y-13820000D03*
X13797500Y-13820000D03*
X13897500Y-13820000D03*
X13997500Y-13820000D03*
X14097500Y-13820000D03*
X14197500Y-13820000D03*
X14297500Y-13820000D03*
X14397500Y-13820000D03*
X14497500Y-13820000D03*
X14497500Y-13920000D03*
X14497500Y-14020000D03*
X14497500Y-14120000D03*
X14497500Y-14220000D03*
X14497500Y-14320000D03*
X14497500Y-14420000D03*
X14497500Y-14520000D03*
X14497500Y-14620000D03*
%TD*%
D27*
%TO.C,Z2*%
X14345174Y-14962326D03*
X14280120Y-15027380D03*
%TD*%
D11*
%TO.C,C5*%
X13697500Y-13700000D03*
X13611500Y-13700000D03*
%TD*%
D10*
%TO.C,C4*%
X13997500Y-13700000D03*
X14083500Y-13700000D03*
%TD*%
M02*
