M48
; DRILL file KiCad 10.0.1-10.0.1~ubuntu25.10.1 date 2026-04-27T21:14:21
; FORMAT={-:-/ absolute / inch / decimal}
; #@! TF.CreationDate,2026-04-27T21:14:21-04:00
; #@! TF.GenerationSoftware,Kicad,Pcbnew,10.0.1-10.0.1~ubuntu25.10.1
; #@! TF.FileFunction,MixedPlating,1,4
FMAT,2
INCH
; #@! TA.AperFunction,Plated,PTH,ViaDrill
T1C0.0118
; #@! TA.AperFunction,Plated,PTH,ViaDrill
T2C0.0157
; #@! TA.AperFunction,NonPlated,NPTH,ComponentDrill
T3C0.0866
%
G90
G05
T1
X5.1181Y-5.9055
X5.1181Y-6.1024
X5.1378Y-5.1181
X5.1378Y-5.315
X5.1378Y-5.5118
X5.2815Y-5.4409
X5.315Y-5.1181
X5.315Y-5.315
X5.315Y-5.9055
X5.3189Y-5.8671
X5.3386Y-6.0394
X5.3386Y-6.0984
X5.3386Y-6.1496
X5.3533Y-5.8671
X5.3583Y-5.3681
X5.3874Y-5.2272
X5.3917Y-5.3681
X5.4031Y-5.2665
X5.437Y-5.3681
X5.4715Y-5.3681
X5.4724Y-5.9724
X5.5079Y-5.9331
X5.5108Y-5.3681
X5.5118Y-5.1772
X5.5118Y-5.5118
X5.5118Y-5.7087
X5.5315Y-5.8425
X5.5453Y-5.3681
X5.5669Y-5.9213
X5.5906Y-5.377
X5.624Y-5.2913
X5.626Y-5.8583
X5.628Y-5.4144
X5.6473Y-5.9828
X5.6575Y-5.1417
X5.6585Y-5.2913
X5.6654Y-5.9331
X5.685Y-6.0394
X5.685Y-6.0984
X5.685Y-6.1496
X5.7087Y-5.1181
X5.7087Y-5.315
X5.7107Y-5.9122
X5.7402Y-5.4409
X5.7402Y-5.7559
X5.7402Y-5.7953
X5.8268Y-5.2165
X5.8268Y-5.4134
X5.8268Y-5.6102
X5.9055Y-5.9055
X5.9055Y-6.1024
T2
X5.4409Y-5.1427
X5.5827Y-5.1417
T3
X5.0669Y-5.7677
X5.9567Y-5.7677
M30
